M48
;GenerationSoftware,Autodesk,EAGLE,9.4.2*%
;CreationDate,2020-10-20T21:13:04Z*%
FMAT,2
ICI,OFF
METRIC,TZ,000.000
T3C0.350
T2C0.813
T1C1.016
%
G90
M71
T1
X33020Y93980
X12700Y93980
X33274Y71120
X33274Y73660
X33274Y76200
X33274Y78740
X33274Y81280
X33274Y83820
X3302Y63500
X3302Y60960
X3302Y68580
X3302Y66040
T2
X35814Y38100
X15494Y38100
X4064Y72390
X4064Y77470
X40894Y67310
X38354Y67310
X35814Y67310
X33274Y67310
X30734Y67310
X28194Y67310
X25654Y67310
X23114Y67310
X20574Y67310
X18034Y67310
X15494Y67310
X12954Y67310
X10414Y67310
X7874Y67310
X7874Y52070
X10414Y52070
X12954Y52070
X15494Y52070
X18034Y52070
X20574Y52070
X23114Y52070
X25654Y52070
X28194Y52070
X30734Y52070
X33274Y52070
X35814Y52070
X38354Y52070
X40894Y52070
X40894Y57150
X38354Y57150
X25654Y57150
X23114Y57150
X35814Y57150
X33274Y57150
X28194Y57150
X30734Y57150
X20574Y57150
X18034Y57150
X15494Y57150
X12954Y57150
X10414Y57150
X7874Y57150
X5334Y57150
X2794Y57150
X2794Y41910
X5334Y41910
X7874Y41910
X10414Y41910
X12954Y41910
X15494Y41910
X18034Y41910
X20574Y41910
X23114Y41910
X25654Y41910
X28194Y41910
X30734Y41910
X33274Y41910
X35814Y41910
X38354Y41910
X40894Y41910
X40894Y29210
X38354Y29210
X35814Y29210
X33274Y29210
X30734Y29210
X28194Y29210
X25654Y29210
X23114Y29210
X20574Y29210
X18034Y29210
X15494Y29210
X12954Y29210
X10414Y29210
X7874Y29210
X7874Y13970
X10414Y13970
X12954Y13970
X15494Y13970
X18034Y13970
X20574Y13970
X23114Y13970
X25654Y13970
X28194Y13970
X30734Y13970
X33274Y13970
X35814Y13970
X38354Y13970
X40894Y13970
X40894Y38100
X38354Y38100
X25654Y38100
X23114Y38100
X26924Y8890
X33274Y38100
X28194Y38100
X30734Y38100
X20574Y38100
X18034Y38100
X26924Y3810
X12954Y38100
X10414Y38100
X7874Y38100
X5334Y38100
X2794Y38100
X2794Y22860
X5334Y22860
X7874Y22860
X10414Y22860
X12954Y22860
X15494Y22860
X18034Y22860
X20574Y22860
X23114Y22860
X25654Y22860
X28194Y22860
X30734Y22860
X33274Y22860
X35814Y22860
X38354Y22860
X40894Y22860
X6604Y60960
X19304Y60960
X6604Y64008
X19304Y64008
X23114Y10160
X20574Y10160
X7874Y10160
X7874Y2540
X18034Y10160
X15494Y10160
X10414Y10160
X12954Y10160
X10414Y2540
X12954Y2540
X15494Y2540
X18034Y2540
X20574Y2540
X23114Y2540
X40894Y48260
X38354Y48260
X35814Y48260
X33274Y48260
X30734Y48260
X28194Y48260
X25654Y48260
X23114Y48260
X20574Y48260
X18034Y48260
X15494Y48260
X12954Y48260
X10414Y48260
X7874Y48260
X7874Y33020
X10414Y33020
X12954Y33020
X15494Y33020
X18034Y33020
X20574Y33020
X23114Y33020
X25654Y33020
X28194Y33020
X30734Y33020
X33274Y33020
X35814Y33020
X38354Y33020
X40894Y33020
X4826Y83312
X2286Y83312
X7874Y78740
X10414Y78740
X12954Y78740
X15494Y78740
X7874Y71120
X10414Y71120
X23114Y71120
X25654Y71120
X12954Y71120
X15494Y71120
X20574Y71120
X18034Y71120
X25654Y78740
X23114Y78740
X20574Y78740
X18034Y78740
T3
X22860Y65278
X25146Y69088
X29718Y76200
X10414Y60960
X14986Y60960
X21844Y64262
X24229Y70358
X29972Y78740
X19558Y69088
X12446Y76708
X15240Y75184
X12192Y75184
X12192Y73660
X15240Y73660
X14986Y64008
X10414Y64008
M30