G04 EAGLE Gerber RS-274X export*
G75*
%MOMM*%
%FSLAX34Y34*%
%LPD*%
%INBottom Copper*%
%IPPOS*%
%AMOC8*
5,1,8,0,0,1.08239X$1,22.5*%
G01*
%ADD10C,1.219200*%
%ADD11C,1.879600*%
%ADD12C,1.524000*%
%ADD13C,1.219200*%
%ADD14P,1.319650X8X202.500000*%
%ADD15P,1.319650X8X112.500000*%
%ADD16P,1.319650X8X292.500000*%
%ADD17C,0.177800*%
%ADD18C,0.609600*%
%ADD19C,0.654800*%

G36*
X441311Y5087D02*
X441311Y5087D01*
X441391Y5085D01*
X441557Y5107D01*
X441723Y5121D01*
X441801Y5140D01*
X441880Y5151D01*
X442040Y5199D01*
X442202Y5239D01*
X442275Y5271D01*
X442352Y5294D01*
X442502Y5368D01*
X442655Y5434D01*
X442723Y5477D01*
X442795Y5512D01*
X442931Y5609D01*
X443071Y5699D01*
X443131Y5752D01*
X443196Y5799D01*
X443315Y5917D01*
X443439Y6028D01*
X443489Y6090D01*
X443546Y6146D01*
X443644Y6282D01*
X443749Y6412D01*
X443789Y6481D01*
X443836Y6546D01*
X443911Y6695D01*
X443993Y6840D01*
X444021Y6915D01*
X444057Y6987D01*
X444107Y7146D01*
X444165Y7303D01*
X444180Y7381D01*
X444204Y7458D01*
X444215Y7562D01*
X444259Y7787D01*
X444267Y8031D01*
X444279Y8136D01*
X441780Y987560D01*
X441774Y987632D01*
X441776Y987704D01*
X441753Y987877D01*
X441739Y988051D01*
X441721Y988122D01*
X441712Y988193D01*
X441661Y988361D01*
X441619Y988530D01*
X441590Y988596D01*
X441569Y988666D01*
X441492Y988823D01*
X441423Y988983D01*
X441384Y989044D01*
X441352Y989109D01*
X441251Y989251D01*
X441157Y989398D01*
X441109Y989452D01*
X441067Y989511D01*
X440944Y989635D01*
X440827Y989765D01*
X440771Y989810D01*
X440720Y989862D01*
X440579Y989965D01*
X440443Y990074D01*
X440380Y990110D01*
X440321Y990152D01*
X440166Y990231D01*
X440013Y990317D01*
X439945Y990342D01*
X439881Y990375D01*
X439715Y990427D01*
X439550Y990488D01*
X439479Y990501D01*
X439410Y990523D01*
X439306Y990535D01*
X439066Y990581D01*
X438837Y990588D01*
X438733Y990599D01*
X10668Y990599D01*
X10592Y990593D01*
X10516Y990595D01*
X10347Y990573D01*
X10176Y990559D01*
X10102Y990541D01*
X10027Y990531D01*
X9863Y990482D01*
X9697Y990441D01*
X9628Y990411D01*
X9554Y990389D01*
X9401Y990313D01*
X9244Y990246D01*
X9180Y990205D01*
X9111Y990172D01*
X8972Y990073D01*
X8828Y989981D01*
X8771Y989930D01*
X8709Y989886D01*
X8588Y989766D01*
X8460Y989652D01*
X8412Y989593D01*
X8358Y989539D01*
X8257Y989401D01*
X8150Y989268D01*
X8113Y989202D01*
X8068Y989141D01*
X7991Y988988D01*
X7906Y988840D01*
X7880Y988768D01*
X7845Y988700D01*
X7794Y988537D01*
X7735Y988377D01*
X7720Y988302D01*
X7697Y988230D01*
X7685Y988125D01*
X7640Y987893D01*
X7633Y987657D01*
X7621Y987552D01*
X7621Y223077D01*
X7630Y222963D01*
X7629Y222849D01*
X7650Y222717D01*
X7661Y222585D01*
X7688Y222474D01*
X7706Y222361D01*
X7747Y222235D01*
X7779Y222106D01*
X7824Y222001D01*
X7860Y221893D01*
X7922Y221775D01*
X7974Y221653D01*
X8035Y221557D01*
X8088Y221455D01*
X8147Y221382D01*
X8239Y221237D01*
X8455Y220995D01*
X8513Y220922D01*
X57647Y171788D01*
X58421Y169921D01*
X58421Y8128D01*
X58427Y8052D01*
X58425Y7976D01*
X58447Y7807D01*
X58461Y7636D01*
X58479Y7562D01*
X58489Y7487D01*
X58538Y7323D01*
X58579Y7157D01*
X58609Y7088D01*
X58631Y7014D01*
X58707Y6861D01*
X58774Y6704D01*
X58815Y6640D01*
X58848Y6571D01*
X58947Y6432D01*
X59039Y6288D01*
X59090Y6231D01*
X59134Y6169D01*
X59254Y6048D01*
X59368Y5920D01*
X59427Y5872D01*
X59481Y5818D01*
X59619Y5717D01*
X59752Y5610D01*
X59818Y5573D01*
X59879Y5528D01*
X60032Y5451D01*
X60180Y5366D01*
X60252Y5340D01*
X60320Y5305D01*
X60483Y5254D01*
X60643Y5195D01*
X60718Y5180D01*
X60790Y5157D01*
X60895Y5145D01*
X61127Y5100D01*
X61363Y5093D01*
X61468Y5081D01*
X441231Y5081D01*
X441311Y5087D01*
G37*
%LPC*%
G36*
X153374Y367029D02*
X153374Y367029D01*
X150479Y368228D01*
X148264Y370443D01*
X147065Y373338D01*
X147065Y388662D01*
X148264Y391557D01*
X150479Y393772D01*
X153374Y394971D01*
X156506Y394971D01*
X159401Y393772D01*
X159515Y393657D01*
X159573Y393608D01*
X159625Y393553D01*
X159761Y393448D01*
X159891Y393338D01*
X159956Y393299D01*
X160017Y393252D01*
X160167Y393171D01*
X160314Y393083D01*
X160384Y393055D01*
X160452Y393019D01*
X160613Y392964D01*
X160772Y392900D01*
X160846Y392884D01*
X160918Y392859D01*
X161086Y392830D01*
X161253Y392793D01*
X161329Y392789D01*
X161405Y392776D01*
X161575Y392775D01*
X161746Y392766D01*
X161822Y392774D01*
X161898Y392773D01*
X162067Y392800D01*
X162236Y392818D01*
X162310Y392838D01*
X162385Y392850D01*
X162547Y392903D01*
X162712Y392949D01*
X162781Y392980D01*
X162854Y393004D01*
X163005Y393083D01*
X163161Y393154D01*
X163224Y393197D01*
X163291Y393232D01*
X163374Y393298D01*
X163570Y393430D01*
X163742Y393592D01*
X163825Y393657D01*
X174033Y403865D01*
X174082Y403923D01*
X174138Y403976D01*
X174241Y404111D01*
X174352Y404241D01*
X174392Y404307D01*
X174438Y404367D01*
X174518Y404517D01*
X174607Y404664D01*
X174635Y404735D01*
X174671Y404802D01*
X174726Y404964D01*
X174790Y405122D01*
X174806Y405196D01*
X174831Y405268D01*
X174860Y405437D01*
X174897Y405604D01*
X174901Y405680D01*
X174914Y405755D01*
X174915Y405925D01*
X174924Y406096D01*
X174916Y406172D01*
X174917Y406248D01*
X174890Y406417D01*
X174872Y406587D01*
X174852Y406660D01*
X174840Y406736D01*
X174787Y406898D01*
X174741Y407062D01*
X174710Y407132D01*
X174686Y407204D01*
X174607Y407356D01*
X174536Y407511D01*
X174493Y407574D01*
X174458Y407642D01*
X174392Y407724D01*
X174260Y407920D01*
X174098Y408092D01*
X174033Y408175D01*
X173664Y408543D01*
X172465Y411438D01*
X172465Y426762D01*
X173664Y429657D01*
X175879Y431872D01*
X178774Y433071D01*
X181906Y433071D01*
X184801Y431872D01*
X187016Y429657D01*
X188215Y426762D01*
X188215Y411438D01*
X188084Y411122D01*
X188029Y410950D01*
X187966Y410781D01*
X187953Y410716D01*
X187933Y410653D01*
X187906Y410474D01*
X187871Y410297D01*
X187869Y410231D01*
X187859Y410165D01*
X187861Y409984D01*
X187856Y409804D01*
X187865Y409738D01*
X187865Y409671D01*
X187897Y409494D01*
X187920Y409315D01*
X187939Y409251D01*
X187951Y409186D01*
X188011Y409015D01*
X188063Y408842D01*
X188092Y408783D01*
X188114Y408720D01*
X188200Y408562D01*
X188280Y408399D01*
X188318Y408345D01*
X188350Y408287D01*
X188461Y408144D01*
X188565Y407997D01*
X188612Y407950D01*
X188653Y407897D01*
X188785Y407774D01*
X188912Y407646D01*
X188966Y407607D01*
X189014Y407562D01*
X189165Y407462D01*
X189311Y407356D01*
X189370Y407326D01*
X189425Y407289D01*
X189590Y407215D01*
X189751Y407133D01*
X189815Y407113D01*
X189875Y407086D01*
X190049Y407039D01*
X190222Y406985D01*
X190274Y406979D01*
X190352Y406958D01*
X190843Y406909D01*
X190876Y406911D01*
X190899Y406909D01*
X194445Y406909D01*
X194506Y406914D01*
X194567Y406911D01*
X194751Y406934D01*
X194937Y406949D01*
X194996Y406963D01*
X195056Y406971D01*
X195235Y407023D01*
X195416Y407067D01*
X195472Y407091D01*
X195530Y407108D01*
X195698Y407189D01*
X195869Y407262D01*
X195920Y407295D01*
X195975Y407321D01*
X196128Y407427D01*
X196285Y407527D01*
X196330Y407568D01*
X196381Y407602D01*
X196514Y407732D01*
X196653Y407856D01*
X196691Y407903D01*
X196735Y407946D01*
X196846Y408095D01*
X196963Y408240D01*
X196993Y408292D01*
X197029Y408341D01*
X197115Y408507D01*
X197207Y408668D01*
X197228Y408725D01*
X197256Y408780D01*
X197314Y408956D01*
X197378Y409131D01*
X197390Y409191D01*
X197409Y409249D01*
X197437Y409433D01*
X197473Y409615D01*
X197475Y409676D01*
X197484Y409736D01*
X197483Y409922D01*
X197489Y410108D01*
X197481Y410169D01*
X197480Y410229D01*
X197459Y410332D01*
X197424Y410597D01*
X197364Y410797D01*
X197343Y410898D01*
X197316Y410981D01*
X197103Y412324D01*
X197103Y416053D01*
X205740Y416053D01*
X205816Y416059D01*
X205892Y416056D01*
X206061Y416079D01*
X206231Y416093D01*
X206305Y416111D01*
X206381Y416121D01*
X206545Y416170D01*
X206710Y416211D01*
X206780Y416241D01*
X206853Y416263D01*
X207007Y416338D01*
X207164Y416406D01*
X207228Y416447D01*
X207296Y416480D01*
X207436Y416579D01*
X207580Y416671D01*
X207636Y416722D01*
X207699Y416766D01*
X207820Y416886D01*
X207948Y417000D01*
X207995Y417059D01*
X208050Y417112D01*
X208150Y417251D01*
X208257Y417383D01*
X208295Y417450D01*
X208340Y417511D01*
X208417Y417664D01*
X208501Y417812D01*
X208528Y417884D01*
X208562Y417952D01*
X208614Y418114D01*
X208673Y418275D01*
X208688Y418349D01*
X208711Y418422D01*
X208722Y418527D01*
X208768Y418759D01*
X208775Y418995D01*
X208787Y419100D01*
X208781Y419176D01*
X208783Y419252D01*
X208761Y419421D01*
X208747Y419592D01*
X208729Y419666D01*
X208719Y419741D01*
X208669Y419905D01*
X208628Y420071D01*
X208598Y420141D01*
X208576Y420214D01*
X208501Y420367D01*
X208434Y420524D01*
X208393Y420588D01*
X208359Y420657D01*
X208260Y420796D01*
X208169Y420940D01*
X208118Y420997D01*
X208074Y421059D01*
X207954Y421181D01*
X207840Y421308D01*
X207781Y421356D01*
X207727Y421410D01*
X207589Y421511D01*
X207456Y421618D01*
X207390Y421656D01*
X207328Y421700D01*
X207176Y421777D01*
X207027Y421862D01*
X206956Y421888D01*
X206888Y421923D01*
X206725Y421974D01*
X206565Y422034D01*
X206490Y422048D01*
X206417Y422071D01*
X206313Y422083D01*
X206081Y422128D01*
X205845Y422136D01*
X205740Y422147D01*
X197103Y422147D01*
X197103Y425876D01*
X197316Y427219D01*
X197736Y428511D01*
X198353Y429723D01*
X199152Y430823D01*
X200113Y431784D01*
X201213Y432583D01*
X201292Y432623D01*
X201344Y432655D01*
X201399Y432680D01*
X201554Y432784D01*
X201712Y432882D01*
X201758Y432922D01*
X201809Y432956D01*
X201944Y433083D01*
X202085Y433205D01*
X202124Y433252D01*
X202168Y433293D01*
X202281Y433441D01*
X202400Y433584D01*
X202431Y433637D01*
X202468Y433685D01*
X202556Y433849D01*
X202651Y434009D01*
X202673Y434066D01*
X202702Y434120D01*
X202762Y434296D01*
X202829Y434469D01*
X202842Y434528D01*
X202862Y434586D01*
X202893Y434770D01*
X202931Y434951D01*
X202934Y435013D01*
X202944Y435073D01*
X202945Y435259D01*
X202954Y435444D01*
X202947Y435505D01*
X202947Y435566D01*
X202918Y435750D01*
X202897Y435934D01*
X202880Y435993D01*
X202871Y436053D01*
X202813Y436230D01*
X202762Y436409D01*
X202736Y436464D01*
X202716Y436522D01*
X202631Y436687D01*
X202551Y436855D01*
X202517Y436905D01*
X202489Y436960D01*
X202423Y437041D01*
X202272Y437262D01*
X202127Y437413D01*
X202063Y437493D01*
X168909Y470647D01*
X168909Y552496D01*
X168900Y552609D01*
X168901Y552724D01*
X168880Y552855D01*
X168869Y552987D01*
X168842Y553098D01*
X168824Y553211D01*
X168783Y553337D01*
X168751Y553466D01*
X168706Y553571D01*
X168670Y553680D01*
X168608Y553798D01*
X168556Y553920D01*
X168495Y554016D01*
X168442Y554117D01*
X168383Y554191D01*
X168291Y554336D01*
X168075Y554578D01*
X168017Y554650D01*
X163825Y558843D01*
X163767Y558892D01*
X163714Y558948D01*
X163579Y559052D01*
X163449Y559162D01*
X163383Y559201D01*
X163323Y559248D01*
X163173Y559329D01*
X163026Y559417D01*
X162955Y559445D01*
X162888Y559481D01*
X162727Y559536D01*
X162568Y559600D01*
X162494Y559616D01*
X162421Y559641D01*
X162253Y559670D01*
X162086Y559707D01*
X162010Y559711D01*
X161935Y559724D01*
X161765Y559725D01*
X161594Y559734D01*
X161518Y559726D01*
X161442Y559727D01*
X161273Y559700D01*
X161103Y559682D01*
X161030Y559662D01*
X160954Y559650D01*
X160792Y559597D01*
X160628Y559551D01*
X160558Y559520D01*
X160486Y559496D01*
X160335Y559417D01*
X160179Y559346D01*
X160116Y559303D01*
X160048Y559268D01*
X159966Y559202D01*
X159770Y559070D01*
X159597Y558908D01*
X159515Y558843D01*
X159401Y558728D01*
X156506Y557529D01*
X153374Y557529D01*
X150479Y558728D01*
X148264Y560943D01*
X147065Y563838D01*
X147065Y579162D01*
X148264Y582057D01*
X150479Y584272D01*
X153374Y585471D01*
X156506Y585471D01*
X159401Y584272D01*
X161616Y582057D01*
X162815Y579162D01*
X162815Y568660D01*
X162824Y568547D01*
X162823Y568432D01*
X162844Y568301D01*
X162855Y568169D01*
X162882Y568058D01*
X162900Y567945D01*
X162941Y567819D01*
X162973Y567690D01*
X163018Y567585D01*
X163054Y567476D01*
X163115Y567358D01*
X163168Y567236D01*
X163229Y567140D01*
X163282Y567039D01*
X163341Y566965D01*
X163433Y566820D01*
X163649Y566578D01*
X163707Y566506D01*
X167263Y562949D01*
X167292Y562925D01*
X167318Y562896D01*
X167480Y562765D01*
X167639Y562630D01*
X167672Y562610D01*
X167702Y562586D01*
X167883Y562483D01*
X168062Y562375D01*
X168097Y562361D01*
X168130Y562342D01*
X168326Y562270D01*
X168520Y562192D01*
X168557Y562184D01*
X168593Y562171D01*
X168798Y562131D01*
X169002Y562086D01*
X169040Y562083D01*
X169077Y562076D01*
X169285Y562070D01*
X169494Y562058D01*
X169532Y562062D01*
X169570Y562061D01*
X169777Y562088D01*
X169985Y562110D01*
X170021Y562120D01*
X170059Y562125D01*
X170259Y562186D01*
X170460Y562241D01*
X170495Y562257D01*
X170532Y562268D01*
X170719Y562359D01*
X170909Y562446D01*
X170940Y562468D01*
X170975Y562485D01*
X171145Y562605D01*
X171318Y562722D01*
X171346Y562748D01*
X171377Y562770D01*
X171525Y562916D01*
X171678Y563060D01*
X171701Y563090D01*
X171728Y563117D01*
X171851Y563285D01*
X171978Y563451D01*
X171996Y563485D01*
X172018Y563515D01*
X172112Y563702D01*
X172211Y563886D01*
X172224Y563922D01*
X172241Y563956D01*
X172303Y564155D01*
X172371Y564352D01*
X172377Y564390D01*
X172389Y564426D01*
X172399Y564519D01*
X172454Y564839D01*
X172455Y565011D01*
X172465Y565104D01*
X172465Y579162D01*
X173664Y582057D01*
X175879Y584272D01*
X178774Y585471D01*
X181906Y585471D01*
X184801Y584272D01*
X187016Y582057D01*
X188215Y579162D01*
X188215Y566829D01*
X188224Y566715D01*
X188223Y566601D01*
X188244Y566470D01*
X188255Y566337D01*
X188282Y566227D01*
X188300Y566114D01*
X188341Y565987D01*
X188373Y565859D01*
X188418Y565754D01*
X188454Y565645D01*
X188516Y565527D01*
X188568Y565405D01*
X188629Y565309D01*
X188682Y565208D01*
X188741Y565134D01*
X188833Y564989D01*
X189049Y564747D01*
X189107Y564674D01*
X189970Y563812D01*
X190028Y563763D01*
X190080Y563707D01*
X190216Y563603D01*
X190346Y563492D01*
X190411Y563453D01*
X190471Y563407D01*
X190622Y563326D01*
X190768Y563238D01*
X190839Y563209D01*
X190906Y563174D01*
X191068Y563118D01*
X191226Y563055D01*
X191301Y563038D01*
X191373Y563014D01*
X191541Y562985D01*
X191708Y562948D01*
X191784Y562944D01*
X191859Y562931D01*
X192030Y562930D01*
X192200Y562920D01*
X192276Y562928D01*
X192352Y562928D01*
X192521Y562954D01*
X192691Y562973D01*
X192764Y562993D01*
X192840Y563005D01*
X193002Y563058D01*
X193167Y563103D01*
X193236Y563135D01*
X193308Y563159D01*
X193460Y563238D01*
X193615Y563309D01*
X193678Y563351D01*
X193746Y563387D01*
X193828Y563452D01*
X194024Y563584D01*
X194197Y563746D01*
X194279Y563812D01*
X196973Y566506D01*
X197047Y566593D01*
X197128Y566673D01*
X197206Y566780D01*
X197292Y566881D01*
X197351Y566979D01*
X197418Y567072D01*
X197478Y567190D01*
X197547Y567304D01*
X197589Y567410D01*
X197641Y567512D01*
X197681Y567639D01*
X197730Y567762D01*
X197755Y567874D01*
X197789Y567982D01*
X197799Y568076D01*
X197837Y568244D01*
X197855Y568568D01*
X197865Y568660D01*
X197865Y579162D01*
X199064Y582057D01*
X201279Y584272D01*
X204174Y585471D01*
X207306Y585471D01*
X210201Y584272D01*
X212416Y582057D01*
X213615Y579162D01*
X213615Y565104D01*
X213618Y565066D01*
X213616Y565028D01*
X213638Y564820D01*
X213655Y564612D01*
X213664Y564575D01*
X213668Y564538D01*
X213723Y564336D01*
X213773Y564134D01*
X213788Y564099D01*
X213799Y564062D01*
X213886Y563872D01*
X213968Y563680D01*
X213988Y563648D01*
X214004Y563613D01*
X214121Y563440D01*
X214233Y563264D01*
X214258Y563236D01*
X214280Y563204D01*
X214423Y563052D01*
X214562Y562896D01*
X214591Y562872D01*
X214617Y562845D01*
X214784Y562717D01*
X214946Y562586D01*
X214978Y562568D01*
X215009Y562544D01*
X215193Y562445D01*
X215374Y562342D01*
X215410Y562329D01*
X215444Y562311D01*
X215641Y562243D01*
X215837Y562171D01*
X215874Y562163D01*
X215910Y562151D01*
X216117Y562116D01*
X216321Y562076D01*
X216359Y562075D01*
X216397Y562068D01*
X216606Y562067D01*
X216814Y562061D01*
X216852Y562066D01*
X216890Y562065D01*
X217097Y562098D01*
X217303Y562125D01*
X217340Y562136D01*
X217377Y562142D01*
X217576Y562207D01*
X217775Y562268D01*
X217810Y562284D01*
X217846Y562296D01*
X218031Y562393D01*
X218219Y562485D01*
X218250Y562507D01*
X218284Y562524D01*
X218356Y562582D01*
X218621Y562770D01*
X218743Y562891D01*
X218817Y562949D01*
X222373Y566506D01*
X222447Y566593D01*
X222528Y566673D01*
X222606Y566780D01*
X222692Y566881D01*
X222751Y566979D01*
X222818Y567072D01*
X222878Y567190D01*
X222947Y567304D01*
X222989Y567410D01*
X223041Y567512D01*
X223081Y567639D01*
X223130Y567762D01*
X223155Y567873D01*
X223189Y567982D01*
X223199Y568076D01*
X223237Y568244D01*
X223255Y568568D01*
X223265Y568660D01*
X223265Y579162D01*
X224464Y582057D01*
X226679Y584272D01*
X229574Y585471D01*
X232706Y585471D01*
X235601Y584272D01*
X237816Y582057D01*
X239015Y579162D01*
X239015Y563838D01*
X237816Y560943D01*
X235601Y558728D01*
X232706Y557529D01*
X229574Y557529D01*
X226679Y558728D01*
X226565Y558843D01*
X226507Y558892D01*
X226455Y558947D01*
X226319Y559052D01*
X226189Y559162D01*
X226124Y559201D01*
X226063Y559248D01*
X225913Y559329D01*
X225766Y559417D01*
X225696Y559445D01*
X225628Y559481D01*
X225467Y559536D01*
X225308Y559600D01*
X225234Y559616D01*
X225162Y559641D01*
X224994Y559670D01*
X224827Y559707D01*
X224751Y559711D01*
X224675Y559724D01*
X224505Y559725D01*
X224334Y559734D01*
X224258Y559726D01*
X224182Y559727D01*
X224013Y559700D01*
X223844Y559682D01*
X223770Y559662D01*
X223695Y559650D01*
X223533Y559597D01*
X223368Y559551D01*
X223299Y559520D01*
X223226Y559496D01*
X223075Y559417D01*
X222919Y559346D01*
X222856Y559303D01*
X222789Y559268D01*
X222706Y559202D01*
X222510Y559070D01*
X222338Y558908D01*
X222255Y558843D01*
X222000Y558587D01*
X221926Y558501D01*
X221845Y558420D01*
X221767Y558313D01*
X221681Y558212D01*
X221622Y558114D01*
X221555Y558021D01*
X221495Y557903D01*
X221426Y557789D01*
X221384Y557683D01*
X221332Y557581D01*
X221292Y557454D01*
X221243Y557331D01*
X221218Y557220D01*
X221184Y557111D01*
X221174Y557017D01*
X221136Y556849D01*
X221118Y556525D01*
X221108Y556433D01*
X221108Y535257D01*
X221111Y535219D01*
X221109Y535181D01*
X221112Y535153D01*
X221112Y535150D01*
X221114Y535134D01*
X221131Y534973D01*
X221148Y534765D01*
X221157Y534728D01*
X221161Y534690D01*
X221216Y534489D01*
X221266Y534286D01*
X221281Y534251D01*
X221292Y534215D01*
X221379Y534025D01*
X221461Y533833D01*
X221481Y533801D01*
X221497Y533766D01*
X221614Y533593D01*
X221726Y533417D01*
X221751Y533389D01*
X221773Y533357D01*
X221916Y533205D01*
X222055Y533049D01*
X222084Y533025D01*
X222111Y532997D01*
X222276Y532870D01*
X222439Y532739D01*
X222472Y532720D01*
X222502Y532697D01*
X222686Y532598D01*
X222867Y532495D01*
X222903Y532482D01*
X222937Y532464D01*
X223134Y532396D01*
X223330Y532324D01*
X223367Y532316D01*
X223403Y532304D01*
X223609Y532269D01*
X223814Y532229D01*
X223852Y532228D01*
X223890Y532221D01*
X224099Y532220D01*
X224307Y532214D01*
X224345Y532219D01*
X224383Y532218D01*
X224589Y532251D01*
X224796Y532278D01*
X224833Y532289D01*
X224870Y532295D01*
X225068Y532360D01*
X225268Y532420D01*
X225303Y532437D01*
X225339Y532449D01*
X225524Y532546D01*
X225712Y532637D01*
X225743Y532659D01*
X225777Y532677D01*
X225850Y532735D01*
X226114Y532923D01*
X226236Y533044D01*
X226310Y533102D01*
X226679Y533472D01*
X229574Y534671D01*
X232706Y534671D01*
X235601Y533472D01*
X237816Y531257D01*
X239015Y528362D01*
X239015Y513038D01*
X237816Y510143D01*
X235601Y507928D01*
X232706Y506729D01*
X229574Y506729D01*
X226679Y507928D01*
X226310Y508298D01*
X226281Y508322D01*
X226255Y508351D01*
X226093Y508482D01*
X225934Y508617D01*
X225901Y508637D01*
X225871Y508661D01*
X225690Y508764D01*
X225511Y508872D01*
X225476Y508886D01*
X225443Y508905D01*
X225247Y508977D01*
X225053Y509055D01*
X225016Y509063D01*
X224980Y509076D01*
X224776Y509116D01*
X224572Y509162D01*
X224533Y509164D01*
X224496Y509171D01*
X224288Y509178D01*
X224079Y509189D01*
X224041Y509185D01*
X224003Y509186D01*
X223797Y509159D01*
X223588Y509137D01*
X223552Y509127D01*
X223514Y509122D01*
X223313Y509062D01*
X223113Y509006D01*
X223078Y508991D01*
X223041Y508980D01*
X222854Y508888D01*
X222664Y508801D01*
X222633Y508779D01*
X222598Y508763D01*
X222429Y508642D01*
X222255Y508525D01*
X222227Y508499D01*
X222196Y508477D01*
X222048Y508331D01*
X221895Y508188D01*
X221872Y508157D01*
X221845Y508130D01*
X221723Y507962D01*
X221595Y507796D01*
X221577Y507763D01*
X221555Y507732D01*
X221461Y507545D01*
X221362Y507361D01*
X221350Y507325D01*
X221332Y507291D01*
X221270Y507092D01*
X221202Y506895D01*
X221196Y506857D01*
X221184Y506821D01*
X221174Y506728D01*
X221119Y506408D01*
X221118Y506236D01*
X221108Y506143D01*
X221108Y497157D01*
X221111Y497119D01*
X221109Y497081D01*
X221131Y496873D01*
X221148Y496665D01*
X221157Y496628D01*
X221161Y496590D01*
X221216Y496389D01*
X221266Y496186D01*
X221281Y496151D01*
X221292Y496115D01*
X221379Y495925D01*
X221461Y495733D01*
X221481Y495701D01*
X221497Y495666D01*
X221614Y495493D01*
X221726Y495317D01*
X221751Y495289D01*
X221773Y495257D01*
X221916Y495105D01*
X222055Y494949D01*
X222084Y494925D01*
X222111Y494897D01*
X222276Y494770D01*
X222439Y494639D01*
X222472Y494620D01*
X222502Y494597D01*
X222686Y494498D01*
X222867Y494395D01*
X222903Y494382D01*
X222937Y494364D01*
X223134Y494296D01*
X223330Y494224D01*
X223367Y494216D01*
X223403Y494204D01*
X223609Y494169D01*
X223814Y494129D01*
X223852Y494128D01*
X223890Y494121D01*
X224099Y494120D01*
X224307Y494114D01*
X224345Y494119D01*
X224383Y494118D01*
X224589Y494151D01*
X224796Y494178D01*
X224833Y494189D01*
X224870Y494195D01*
X225068Y494260D01*
X225268Y494320D01*
X225303Y494337D01*
X225339Y494349D01*
X225524Y494446D01*
X225712Y494537D01*
X225743Y494559D01*
X225777Y494577D01*
X225850Y494635D01*
X226114Y494823D01*
X226236Y494944D01*
X226310Y495002D01*
X226679Y495372D01*
X229574Y496571D01*
X232706Y496571D01*
X235601Y495372D01*
X237816Y493157D01*
X239015Y490262D01*
X239015Y474938D01*
X237816Y472043D01*
X235601Y469828D01*
X232706Y468629D01*
X229574Y468629D01*
X226679Y469828D01*
X226310Y470198D01*
X226281Y470222D01*
X226255Y470251D01*
X226093Y470382D01*
X225934Y470517D01*
X225901Y470537D01*
X225871Y470561D01*
X225690Y470664D01*
X225511Y470772D01*
X225476Y470786D01*
X225443Y470805D01*
X225247Y470877D01*
X225053Y470955D01*
X225016Y470963D01*
X224980Y470976D01*
X224776Y471016D01*
X224572Y471062D01*
X224533Y471064D01*
X224496Y471071D01*
X224288Y471078D01*
X224079Y471089D01*
X224041Y471085D01*
X224003Y471086D01*
X223797Y471059D01*
X223588Y471037D01*
X223552Y471027D01*
X223514Y471022D01*
X223313Y470962D01*
X223113Y470906D01*
X223078Y470891D01*
X223041Y470880D01*
X222854Y470788D01*
X222664Y470701D01*
X222633Y470679D01*
X222598Y470663D01*
X222429Y470542D01*
X222255Y470425D01*
X222227Y470399D01*
X222196Y470377D01*
X222048Y470231D01*
X221895Y470088D01*
X221872Y470057D01*
X221845Y470030D01*
X221722Y469862D01*
X221595Y469696D01*
X221577Y469663D01*
X221555Y469632D01*
X221461Y469445D01*
X221362Y469261D01*
X221350Y469225D01*
X221332Y469191D01*
X221270Y468992D01*
X221202Y468795D01*
X221196Y468757D01*
X221184Y468721D01*
X221174Y468628D01*
X221119Y468308D01*
X221118Y468136D01*
X221108Y468043D01*
X221108Y449407D01*
X221117Y449294D01*
X221116Y449179D01*
X221137Y449048D01*
X221148Y448916D01*
X221175Y448805D01*
X221193Y448692D01*
X221234Y448566D01*
X221266Y448437D01*
X221311Y448332D01*
X221347Y448223D01*
X221409Y448105D01*
X221461Y447983D01*
X221522Y447887D01*
X221575Y447786D01*
X221634Y447712D01*
X221726Y447567D01*
X221942Y447325D01*
X222000Y447253D01*
X231734Y437519D01*
X231820Y437445D01*
X231901Y437364D01*
X232008Y437286D01*
X232109Y437200D01*
X232207Y437141D01*
X232300Y437074D01*
X232418Y437014D01*
X232532Y436945D01*
X232638Y436903D01*
X232740Y436851D01*
X232867Y436811D01*
X232990Y436762D01*
X233101Y436737D01*
X233210Y436703D01*
X233304Y436693D01*
X233472Y436655D01*
X233796Y436637D01*
X233888Y436627D01*
X235875Y436627D01*
X238330Y434172D01*
X239907Y432594D01*
X239936Y432570D01*
X239962Y432541D01*
X240124Y432410D01*
X240283Y432275D01*
X240316Y432255D01*
X240346Y432231D01*
X240527Y432128D01*
X240706Y432020D01*
X240741Y432006D01*
X240774Y431987D01*
X240970Y431914D01*
X241164Y431837D01*
X241201Y431829D01*
X241237Y431816D01*
X241441Y431776D01*
X241645Y431730D01*
X241684Y431728D01*
X241721Y431721D01*
X241929Y431714D01*
X242138Y431703D01*
X242176Y431707D01*
X242214Y431706D01*
X242420Y431733D01*
X242629Y431755D01*
X242665Y431765D01*
X242703Y431770D01*
X242903Y431830D01*
X243104Y431886D01*
X243139Y431901D01*
X243176Y431912D01*
X243363Y432004D01*
X243553Y432091D01*
X243584Y432113D01*
X243619Y432129D01*
X243789Y432250D01*
X243962Y432367D01*
X243990Y432393D01*
X244021Y432415D01*
X244169Y432562D01*
X244322Y432704D01*
X244345Y432735D01*
X244372Y432762D01*
X244495Y432930D01*
X244622Y433096D01*
X244640Y433130D01*
X244662Y433160D01*
X244756Y433347D01*
X244855Y433531D01*
X244867Y433567D01*
X244885Y433601D01*
X244948Y433800D01*
X245015Y433997D01*
X245021Y434035D01*
X245033Y434071D01*
X245043Y434164D01*
X245098Y434484D01*
X245099Y434656D01*
X245109Y434749D01*
X245109Y544231D01*
X252980Y552101D01*
X253054Y552188D01*
X253135Y552269D01*
X253213Y552376D01*
X253299Y552477D01*
X253358Y552575D01*
X253425Y552667D01*
X253485Y552786D01*
X253554Y552900D01*
X253596Y553006D01*
X253648Y553108D01*
X253688Y553235D01*
X253737Y553358D01*
X253762Y553469D01*
X253796Y553578D01*
X253806Y553672D01*
X253844Y553840D01*
X253862Y554164D01*
X253872Y554256D01*
X253872Y555949D01*
X253855Y556167D01*
X253841Y556385D01*
X253835Y556413D01*
X253832Y556441D01*
X253780Y556653D01*
X253731Y556866D01*
X253720Y556892D01*
X253714Y556920D01*
X253628Y557120D01*
X253545Y557323D01*
X253530Y557347D01*
X253519Y557373D01*
X253402Y557557D01*
X253288Y557744D01*
X253269Y557765D01*
X253254Y557789D01*
X253109Y557952D01*
X252966Y558118D01*
X252944Y558136D01*
X252925Y558157D01*
X252755Y558294D01*
X252588Y558435D01*
X252568Y558446D01*
X252541Y558467D01*
X252113Y558711D01*
X252087Y558721D01*
X249864Y560943D01*
X248665Y563838D01*
X248665Y579162D01*
X249864Y582057D01*
X252079Y584272D01*
X254974Y585471D01*
X258106Y585471D01*
X261001Y584272D01*
X263216Y582057D01*
X264415Y579162D01*
X264415Y565104D01*
X264418Y565066D01*
X264416Y565028D01*
X264438Y564820D01*
X264455Y564612D01*
X264464Y564575D01*
X264468Y564538D01*
X264523Y564336D01*
X264573Y564134D01*
X264588Y564099D01*
X264599Y564062D01*
X264686Y563872D01*
X264768Y563680D01*
X264788Y563648D01*
X264804Y563613D01*
X264921Y563440D01*
X265033Y563264D01*
X265058Y563236D01*
X265080Y563204D01*
X265223Y563052D01*
X265362Y562896D01*
X265391Y562872D01*
X265417Y562845D01*
X265584Y562717D01*
X265746Y562586D01*
X265778Y562568D01*
X265809Y562544D01*
X265993Y562445D01*
X266174Y562342D01*
X266210Y562329D01*
X266244Y562311D01*
X266441Y562243D01*
X266637Y562171D01*
X266674Y562163D01*
X266710Y562151D01*
X266917Y562116D01*
X267121Y562076D01*
X267159Y562075D01*
X267197Y562068D01*
X267406Y562067D01*
X267614Y562061D01*
X267652Y562066D01*
X267690Y562065D01*
X267897Y562098D01*
X268103Y562125D01*
X268140Y562136D01*
X268177Y562142D01*
X268376Y562207D01*
X268575Y562268D01*
X268610Y562284D01*
X268646Y562296D01*
X268831Y562393D01*
X269019Y562485D01*
X269050Y562507D01*
X269084Y562524D01*
X269156Y562582D01*
X269421Y562770D01*
X269543Y562891D01*
X269617Y562949D01*
X273173Y566506D01*
X273247Y566593D01*
X273328Y566673D01*
X273406Y566780D01*
X273492Y566881D01*
X273551Y566979D01*
X273618Y567072D01*
X273678Y567190D01*
X273747Y567304D01*
X273789Y567410D01*
X273841Y567512D01*
X273881Y567639D01*
X273930Y567762D01*
X273955Y567873D01*
X273989Y567982D01*
X273999Y568076D01*
X274037Y568244D01*
X274055Y568568D01*
X274065Y568660D01*
X274065Y579162D01*
X275264Y582057D01*
X277479Y584272D01*
X280374Y585471D01*
X283506Y585471D01*
X286401Y584272D01*
X288616Y582057D01*
X289815Y579162D01*
X289815Y565104D01*
X289818Y565066D01*
X289816Y565028D01*
X289838Y564820D01*
X289855Y564612D01*
X289864Y564575D01*
X289868Y564538D01*
X289923Y564336D01*
X289973Y564134D01*
X289988Y564099D01*
X289999Y564062D01*
X290086Y563872D01*
X290168Y563680D01*
X290188Y563648D01*
X290204Y563613D01*
X290321Y563440D01*
X290433Y563264D01*
X290458Y563236D01*
X290480Y563204D01*
X290623Y563052D01*
X290762Y562896D01*
X290791Y562872D01*
X290817Y562845D01*
X290984Y562717D01*
X291146Y562586D01*
X291178Y562568D01*
X291209Y562544D01*
X291393Y562445D01*
X291574Y562342D01*
X291610Y562329D01*
X291644Y562311D01*
X291841Y562243D01*
X292037Y562171D01*
X292074Y562163D01*
X292110Y562151D01*
X292317Y562116D01*
X292521Y562076D01*
X292559Y562075D01*
X292597Y562068D01*
X292806Y562067D01*
X293014Y562061D01*
X293052Y562066D01*
X293090Y562065D01*
X293297Y562098D01*
X293503Y562125D01*
X293540Y562136D01*
X293577Y562142D01*
X293776Y562207D01*
X293975Y562268D01*
X294010Y562284D01*
X294046Y562296D01*
X294231Y562393D01*
X294419Y562485D01*
X294450Y562507D01*
X294484Y562524D01*
X294556Y562582D01*
X294821Y562770D01*
X294943Y562891D01*
X295017Y562949D01*
X298573Y566506D01*
X298647Y566593D01*
X298728Y566673D01*
X298806Y566780D01*
X298892Y566881D01*
X298951Y566979D01*
X299018Y567072D01*
X299078Y567190D01*
X299147Y567304D01*
X299189Y567410D01*
X299241Y567512D01*
X299281Y567639D01*
X299330Y567762D01*
X299355Y567873D01*
X299389Y567982D01*
X299399Y568076D01*
X299437Y568244D01*
X299455Y568568D01*
X299465Y568660D01*
X299465Y579162D01*
X300664Y582057D01*
X302879Y584272D01*
X305774Y585471D01*
X308906Y585471D01*
X311801Y584272D01*
X314016Y582057D01*
X315215Y579162D01*
X315215Y565104D01*
X315218Y565066D01*
X315216Y565028D01*
X315238Y564820D01*
X315255Y564612D01*
X315264Y564575D01*
X315268Y564538D01*
X315323Y564336D01*
X315373Y564134D01*
X315388Y564099D01*
X315399Y564062D01*
X315486Y563872D01*
X315568Y563680D01*
X315588Y563648D01*
X315604Y563613D01*
X315721Y563440D01*
X315833Y563264D01*
X315858Y563236D01*
X315880Y563204D01*
X316023Y563052D01*
X316162Y562896D01*
X316191Y562872D01*
X316217Y562845D01*
X316384Y562717D01*
X316546Y562586D01*
X316578Y562568D01*
X316609Y562544D01*
X316793Y562445D01*
X316974Y562342D01*
X317010Y562329D01*
X317044Y562311D01*
X317241Y562243D01*
X317437Y562171D01*
X317474Y562163D01*
X317510Y562151D01*
X317717Y562116D01*
X317921Y562076D01*
X317959Y562075D01*
X317997Y562068D01*
X318206Y562067D01*
X318414Y562061D01*
X318452Y562066D01*
X318490Y562065D01*
X318697Y562098D01*
X318903Y562125D01*
X318940Y562136D01*
X318977Y562142D01*
X319176Y562207D01*
X319375Y562268D01*
X319410Y562284D01*
X319446Y562296D01*
X319631Y562393D01*
X319819Y562485D01*
X319850Y562507D01*
X319884Y562524D01*
X319956Y562582D01*
X320221Y562770D01*
X320343Y562891D01*
X320417Y562949D01*
X323973Y566506D01*
X324047Y566593D01*
X324128Y566673D01*
X324206Y566780D01*
X324292Y566881D01*
X324351Y566979D01*
X324418Y567072D01*
X324478Y567190D01*
X324547Y567304D01*
X324589Y567410D01*
X324641Y567512D01*
X324681Y567639D01*
X324730Y567762D01*
X324755Y567873D01*
X324789Y567982D01*
X324799Y568076D01*
X324837Y568244D01*
X324855Y568568D01*
X324865Y568660D01*
X324865Y579162D01*
X326064Y582057D01*
X328279Y584272D01*
X331174Y585471D01*
X334306Y585471D01*
X337201Y584272D01*
X339416Y582057D01*
X340615Y579162D01*
X340615Y565104D01*
X340618Y565066D01*
X340616Y565028D01*
X340638Y564820D01*
X340655Y564612D01*
X340664Y564575D01*
X340668Y564538D01*
X340723Y564336D01*
X340773Y564134D01*
X340788Y564099D01*
X340799Y564062D01*
X340886Y563872D01*
X340968Y563680D01*
X340988Y563648D01*
X341004Y563613D01*
X341121Y563440D01*
X341233Y563264D01*
X341258Y563236D01*
X341280Y563204D01*
X341423Y563052D01*
X341562Y562896D01*
X341591Y562872D01*
X341617Y562845D01*
X341784Y562717D01*
X341946Y562586D01*
X341978Y562568D01*
X342009Y562544D01*
X342193Y562445D01*
X342374Y562342D01*
X342410Y562329D01*
X342444Y562311D01*
X342641Y562243D01*
X342837Y562171D01*
X342874Y562163D01*
X342910Y562151D01*
X343117Y562116D01*
X343321Y562076D01*
X343359Y562075D01*
X343397Y562068D01*
X343606Y562067D01*
X343814Y562061D01*
X343852Y562066D01*
X343890Y562065D01*
X344097Y562098D01*
X344303Y562125D01*
X344340Y562136D01*
X344377Y562142D01*
X344576Y562207D01*
X344775Y562268D01*
X344810Y562284D01*
X344846Y562296D01*
X345031Y562393D01*
X345219Y562485D01*
X345250Y562507D01*
X345284Y562524D01*
X345356Y562582D01*
X345621Y562770D01*
X345743Y562891D01*
X345817Y562949D01*
X349373Y566506D01*
X349447Y566593D01*
X349528Y566673D01*
X349606Y566780D01*
X349692Y566881D01*
X349751Y566979D01*
X349818Y567072D01*
X349878Y567190D01*
X349947Y567304D01*
X349989Y567410D01*
X350041Y567512D01*
X350081Y567639D01*
X350130Y567762D01*
X350155Y567873D01*
X350189Y567982D01*
X350199Y568076D01*
X350237Y568244D01*
X350255Y568568D01*
X350265Y568660D01*
X350265Y579162D01*
X351464Y582057D01*
X353679Y584272D01*
X356574Y585471D01*
X359706Y585471D01*
X362601Y584272D01*
X364816Y582057D01*
X366015Y579162D01*
X366015Y565104D01*
X366018Y565066D01*
X366016Y565028D01*
X366038Y564820D01*
X366055Y564612D01*
X366064Y564575D01*
X366068Y564538D01*
X366123Y564336D01*
X366173Y564134D01*
X366188Y564099D01*
X366199Y564062D01*
X366286Y563872D01*
X366368Y563680D01*
X366388Y563648D01*
X366404Y563613D01*
X366521Y563440D01*
X366633Y563264D01*
X366658Y563236D01*
X366680Y563204D01*
X366823Y563052D01*
X366962Y562896D01*
X366991Y562872D01*
X367017Y562845D01*
X367184Y562717D01*
X367346Y562586D01*
X367378Y562568D01*
X367409Y562544D01*
X367593Y562445D01*
X367774Y562342D01*
X367810Y562329D01*
X367844Y562311D01*
X368041Y562243D01*
X368237Y562171D01*
X368274Y562163D01*
X368310Y562151D01*
X368517Y562116D01*
X368721Y562076D01*
X368759Y562075D01*
X368797Y562068D01*
X369006Y562067D01*
X369214Y562061D01*
X369252Y562066D01*
X369290Y562065D01*
X369497Y562098D01*
X369703Y562125D01*
X369740Y562136D01*
X369777Y562142D01*
X369976Y562207D01*
X370175Y562268D01*
X370210Y562284D01*
X370246Y562296D01*
X370431Y562393D01*
X370619Y562485D01*
X370650Y562507D01*
X370684Y562524D01*
X370756Y562582D01*
X371021Y562770D01*
X371143Y562891D01*
X371217Y562949D01*
X374773Y566506D01*
X374847Y566593D01*
X374928Y566673D01*
X375006Y566780D01*
X375092Y566881D01*
X375151Y566979D01*
X375218Y567072D01*
X375278Y567190D01*
X375347Y567304D01*
X375389Y567410D01*
X375441Y567512D01*
X375481Y567639D01*
X375530Y567762D01*
X375555Y567873D01*
X375589Y567982D01*
X375599Y568076D01*
X375637Y568244D01*
X375655Y568568D01*
X375665Y568660D01*
X375665Y579162D01*
X376864Y582057D01*
X379079Y584272D01*
X381974Y585471D01*
X385106Y585471D01*
X388001Y584272D01*
X390216Y582057D01*
X391415Y579162D01*
X391415Y565104D01*
X391418Y565066D01*
X391416Y565028D01*
X391438Y564820D01*
X391455Y564612D01*
X391464Y564575D01*
X391468Y564538D01*
X391523Y564336D01*
X391573Y564134D01*
X391588Y564099D01*
X391599Y564062D01*
X391686Y563872D01*
X391768Y563680D01*
X391788Y563648D01*
X391804Y563613D01*
X391921Y563440D01*
X392033Y563264D01*
X392058Y563236D01*
X392080Y563204D01*
X392223Y563052D01*
X392362Y562896D01*
X392391Y562872D01*
X392417Y562845D01*
X392584Y562717D01*
X392746Y562586D01*
X392778Y562568D01*
X392809Y562544D01*
X392993Y562445D01*
X393174Y562342D01*
X393210Y562329D01*
X393244Y562311D01*
X393441Y562243D01*
X393637Y562171D01*
X393674Y562163D01*
X393710Y562151D01*
X393917Y562116D01*
X394121Y562076D01*
X394159Y562075D01*
X394197Y562068D01*
X394406Y562067D01*
X394614Y562061D01*
X394652Y562066D01*
X394690Y562065D01*
X394897Y562098D01*
X395103Y562125D01*
X395140Y562136D01*
X395177Y562142D01*
X395376Y562207D01*
X395575Y562268D01*
X395610Y562284D01*
X395646Y562296D01*
X395831Y562393D01*
X396019Y562485D01*
X396050Y562507D01*
X396084Y562524D01*
X396156Y562582D01*
X396421Y562770D01*
X396543Y562891D01*
X396617Y562949D01*
X400173Y566506D01*
X400247Y566593D01*
X400328Y566673D01*
X400406Y566780D01*
X400492Y566881D01*
X400551Y566979D01*
X400618Y567072D01*
X400678Y567190D01*
X400747Y567304D01*
X400789Y567410D01*
X400841Y567512D01*
X400881Y567639D01*
X400930Y567762D01*
X400955Y567873D01*
X400989Y567982D01*
X400999Y568076D01*
X401037Y568244D01*
X401055Y568568D01*
X401065Y568660D01*
X401065Y579162D01*
X402264Y582057D01*
X404479Y584272D01*
X407374Y585471D01*
X410506Y585471D01*
X413401Y584272D01*
X415616Y582057D01*
X416031Y581055D01*
X416096Y580928D01*
X416152Y580797D01*
X416208Y580709D01*
X416256Y580616D01*
X416341Y580501D01*
X416417Y580381D01*
X416487Y580303D01*
X416549Y580219D01*
X416651Y580120D01*
X416746Y580013D01*
X416827Y579948D01*
X416902Y579875D01*
X417019Y579793D01*
X417130Y579703D01*
X417220Y579652D01*
X417306Y579592D01*
X417435Y579530D01*
X417558Y579459D01*
X417656Y579423D01*
X417750Y579378D01*
X417887Y579337D01*
X418021Y579288D01*
X418123Y579268D01*
X418224Y579238D01*
X418365Y579220D01*
X418505Y579193D01*
X418609Y579190D01*
X418713Y579177D01*
X418856Y579182D01*
X418998Y579178D01*
X419102Y579191D01*
X419206Y579195D01*
X419346Y579224D01*
X419487Y579242D01*
X419587Y579272D01*
X419690Y579293D01*
X419823Y579343D01*
X419960Y579385D01*
X420054Y579431D01*
X420151Y579468D01*
X420274Y579539D01*
X420403Y579602D01*
X420488Y579662D01*
X420578Y579714D01*
X420689Y579805D01*
X420805Y579887D01*
X420879Y579960D01*
X420960Y580027D01*
X421055Y580134D01*
X421156Y580234D01*
X421217Y580318D01*
X421287Y580397D01*
X421362Y580517D01*
X421446Y580633D01*
X421493Y580726D01*
X421549Y580814D01*
X421604Y580946D01*
X421669Y581073D01*
X421700Y581173D01*
X421741Y581269D01*
X421774Y581407D01*
X421817Y581543D01*
X421826Y581622D01*
X421856Y581749D01*
X421889Y582181D01*
X421893Y582221D01*
X421893Y588558D01*
X421884Y588672D01*
X421885Y588786D01*
X421864Y588918D01*
X421853Y589050D01*
X421826Y589161D01*
X421808Y589274D01*
X421767Y589400D01*
X421735Y589529D01*
X421690Y589634D01*
X421654Y589742D01*
X421592Y589860D01*
X421540Y589982D01*
X421479Y590079D01*
X421426Y590180D01*
X421367Y590254D01*
X421275Y590398D01*
X421059Y590641D01*
X421001Y590713D01*
X407833Y603881D01*
X407746Y603955D01*
X407666Y604036D01*
X407559Y604114D01*
X407457Y604200D01*
X407359Y604259D01*
X407267Y604326D01*
X407149Y604386D01*
X407035Y604455D01*
X406929Y604497D01*
X406827Y604549D01*
X406700Y604589D01*
X406577Y604638D01*
X406465Y604663D01*
X406356Y604697D01*
X406263Y604707D01*
X406095Y604745D01*
X405771Y604763D01*
X405678Y604773D01*
X200612Y604773D01*
X200498Y604764D01*
X200384Y604765D01*
X200253Y604744D01*
X200120Y604733D01*
X200010Y604706D01*
X199897Y604688D01*
X199770Y604647D01*
X199641Y604615D01*
X199537Y604570D01*
X199428Y604534D01*
X199310Y604472D01*
X199188Y604420D01*
X199092Y604359D01*
X198990Y604306D01*
X198917Y604247D01*
X198772Y604155D01*
X198530Y603939D01*
X198457Y603881D01*
X196302Y601725D01*
X189778Y601725D01*
X185165Y606338D01*
X185165Y612862D01*
X189778Y617475D01*
X196302Y617475D01*
X198457Y615319D01*
X198544Y615245D01*
X198625Y615164D01*
X198732Y615086D01*
X198833Y615000D01*
X198931Y614941D01*
X199023Y614874D01*
X199142Y614814D01*
X199256Y614745D01*
X199362Y614703D01*
X199464Y614651D01*
X199591Y614611D01*
X199714Y614562D01*
X199825Y614537D01*
X199934Y614503D01*
X200028Y614493D01*
X200195Y614455D01*
X200520Y614437D01*
X200612Y614427D01*
X409900Y614427D01*
X411674Y613692D01*
X430812Y594554D01*
X431547Y592780D01*
X431547Y537520D01*
X430812Y535746D01*
X417921Y522855D01*
X417872Y522797D01*
X417816Y522745D01*
X417712Y522609D01*
X417601Y522479D01*
X417562Y522413D01*
X417516Y522353D01*
X417435Y522203D01*
X417347Y522056D01*
X417318Y521985D01*
X417282Y521918D01*
X417227Y521757D01*
X417164Y521598D01*
X417147Y521524D01*
X417122Y521452D01*
X417094Y521283D01*
X417057Y521117D01*
X417053Y521040D01*
X417040Y520965D01*
X417039Y520794D01*
X417029Y520624D01*
X417037Y520548D01*
X417037Y520472D01*
X417063Y520303D01*
X417081Y520133D01*
X417102Y520060D01*
X417113Y519985D01*
X417167Y519822D01*
X417212Y519658D01*
X417244Y519588D01*
X417268Y519516D01*
X417347Y519365D01*
X417418Y519209D01*
X417460Y519146D01*
X417495Y519078D01*
X417561Y518996D01*
X417693Y518800D01*
X417855Y518627D01*
X417921Y518545D01*
X428272Y508194D01*
X429007Y506420D01*
X429007Y433380D01*
X428272Y431606D01*
X417707Y421041D01*
X417633Y420954D01*
X417552Y420874D01*
X417474Y420767D01*
X417388Y420665D01*
X417329Y420567D01*
X417262Y420475D01*
X417202Y420357D01*
X417133Y420243D01*
X417091Y420137D01*
X417039Y420035D01*
X416999Y419908D01*
X416950Y419785D01*
X416925Y419673D01*
X416891Y419564D01*
X416881Y419471D01*
X416843Y419303D01*
X416825Y418979D01*
X416815Y418886D01*
X416815Y411438D01*
X415616Y408543D01*
X413401Y406328D01*
X410506Y405129D01*
X407374Y405129D01*
X404479Y406328D01*
X402264Y408543D01*
X402230Y408625D01*
X402165Y408752D01*
X402109Y408883D01*
X402053Y408971D01*
X402005Y409064D01*
X401920Y409179D01*
X401844Y409299D01*
X401775Y409377D01*
X401712Y409461D01*
X401610Y409561D01*
X401515Y409667D01*
X401434Y409732D01*
X401359Y409805D01*
X401242Y409887D01*
X401131Y409977D01*
X401041Y410028D01*
X400955Y410088D01*
X400827Y410150D01*
X400703Y410221D01*
X400605Y410257D01*
X400511Y410302D01*
X400374Y410343D01*
X400240Y410392D01*
X400138Y410412D01*
X400037Y410442D01*
X399896Y410460D01*
X399756Y410487D01*
X399652Y410490D01*
X399548Y410503D01*
X399405Y410498D01*
X399263Y410502D01*
X399159Y410489D01*
X399055Y410485D01*
X398915Y410457D01*
X398774Y410438D01*
X398674Y410408D01*
X398571Y410387D01*
X398438Y410337D01*
X398301Y410296D01*
X398208Y410250D01*
X398110Y410213D01*
X397986Y410141D01*
X397858Y410079D01*
X397773Y410018D01*
X397683Y409966D01*
X397572Y409876D01*
X397456Y409793D01*
X397382Y409720D01*
X397301Y409654D01*
X397206Y409547D01*
X397105Y409446D01*
X397044Y409362D01*
X396974Y409284D01*
X396898Y409163D01*
X396815Y409048D01*
X396768Y408954D01*
X396712Y408866D01*
X396657Y408734D01*
X396592Y408607D01*
X396561Y408508D01*
X396520Y408411D01*
X396487Y408273D01*
X396444Y408137D01*
X396435Y408059D01*
X396405Y407932D01*
X396372Y407499D01*
X396368Y407459D01*
X396368Y398607D01*
X396377Y398494D01*
X396376Y398379D01*
X396397Y398248D01*
X396408Y398116D01*
X396435Y398005D01*
X396453Y397892D01*
X396494Y397766D01*
X396526Y397637D01*
X396571Y397532D01*
X396607Y397423D01*
X396669Y397305D01*
X396721Y397183D01*
X396782Y397087D01*
X396835Y396986D01*
X396894Y396912D01*
X396986Y396767D01*
X397202Y396525D01*
X397260Y396453D01*
X400055Y393657D01*
X400113Y393608D01*
X400166Y393552D01*
X400301Y393448D01*
X400431Y393338D01*
X400497Y393299D01*
X400557Y393252D01*
X400707Y393171D01*
X400854Y393083D01*
X400925Y393055D01*
X400992Y393019D01*
X401153Y392964D01*
X401312Y392900D01*
X401386Y392884D01*
X401459Y392859D01*
X401627Y392830D01*
X401794Y392793D01*
X401870Y392789D01*
X401945Y392776D01*
X402115Y392775D01*
X402286Y392766D01*
X402362Y392774D01*
X402438Y392773D01*
X402607Y392800D01*
X402777Y392818D01*
X402850Y392838D01*
X402926Y392850D01*
X403088Y392903D01*
X403252Y392949D01*
X403322Y392980D01*
X403394Y393004D01*
X403545Y393083D01*
X403701Y393154D01*
X403764Y393197D01*
X403832Y393232D01*
X403914Y393298D01*
X404110Y393430D01*
X404283Y393592D01*
X404365Y393657D01*
X404479Y393772D01*
X407374Y394971D01*
X410506Y394971D01*
X413401Y393772D01*
X415616Y391557D01*
X416815Y388662D01*
X416815Y373338D01*
X415616Y370443D01*
X413401Y368228D01*
X410506Y367029D01*
X407374Y367029D01*
X404479Y368228D01*
X402264Y370443D01*
X401065Y373338D01*
X401065Y383840D01*
X401056Y383953D01*
X401057Y384068D01*
X401036Y384199D01*
X401025Y384331D01*
X400998Y384442D01*
X400980Y384555D01*
X400939Y384681D01*
X400907Y384810D01*
X400862Y384915D01*
X400826Y385024D01*
X400765Y385142D01*
X400712Y385264D01*
X400651Y385360D01*
X400598Y385461D01*
X400539Y385535D01*
X400447Y385680D01*
X400231Y385922D01*
X400173Y385994D01*
X396617Y389551D01*
X396588Y389575D01*
X396562Y389604D01*
X396400Y389735D01*
X396241Y389870D01*
X396208Y389890D01*
X396178Y389914D01*
X395997Y390017D01*
X395818Y390125D01*
X395783Y390139D01*
X395750Y390158D01*
X395554Y390230D01*
X395360Y390308D01*
X395323Y390316D01*
X395287Y390329D01*
X395082Y390369D01*
X394878Y390414D01*
X394840Y390417D01*
X394803Y390424D01*
X394595Y390430D01*
X394386Y390442D01*
X394348Y390438D01*
X394310Y390439D01*
X394103Y390412D01*
X393895Y390390D01*
X393859Y390380D01*
X393821Y390375D01*
X393621Y390314D01*
X393420Y390259D01*
X393385Y390243D01*
X393348Y390232D01*
X393161Y390141D01*
X392971Y390054D01*
X392940Y390032D01*
X392905Y390015D01*
X392735Y389895D01*
X392562Y389778D01*
X392534Y389752D01*
X392503Y389730D01*
X392355Y389584D01*
X392202Y389440D01*
X392179Y389410D01*
X392152Y389383D01*
X392029Y389215D01*
X391902Y389049D01*
X391884Y389015D01*
X391862Y388985D01*
X391768Y388798D01*
X391669Y388614D01*
X391656Y388578D01*
X391639Y388544D01*
X391577Y388345D01*
X391509Y388148D01*
X391503Y388110D01*
X391491Y388074D01*
X391481Y387981D01*
X391426Y387661D01*
X391425Y387489D01*
X391415Y387396D01*
X391415Y373338D01*
X390216Y370443D01*
X388001Y368228D01*
X385106Y367029D01*
X381974Y367029D01*
X379079Y368228D01*
X376864Y370443D01*
X375665Y373338D01*
X375665Y383840D01*
X375656Y383953D01*
X375657Y384068D01*
X375636Y384199D01*
X375625Y384331D01*
X375598Y384442D01*
X375580Y384555D01*
X375539Y384681D01*
X375507Y384810D01*
X375462Y384915D01*
X375426Y385024D01*
X375365Y385142D01*
X375312Y385264D01*
X375251Y385360D01*
X375198Y385461D01*
X375139Y385535D01*
X375047Y385680D01*
X374831Y385922D01*
X374773Y385994D01*
X371217Y389551D01*
X371188Y389575D01*
X371162Y389604D01*
X371000Y389735D01*
X370841Y389870D01*
X370808Y389890D01*
X370778Y389914D01*
X370597Y390017D01*
X370418Y390125D01*
X370383Y390139D01*
X370350Y390158D01*
X370154Y390230D01*
X369960Y390308D01*
X369923Y390316D01*
X369887Y390329D01*
X369682Y390369D01*
X369478Y390414D01*
X369440Y390417D01*
X369403Y390424D01*
X369195Y390430D01*
X368986Y390442D01*
X368948Y390438D01*
X368910Y390439D01*
X368703Y390412D01*
X368495Y390390D01*
X368459Y390380D01*
X368421Y390375D01*
X368221Y390314D01*
X368020Y390259D01*
X367985Y390243D01*
X367948Y390232D01*
X367761Y390141D01*
X367571Y390054D01*
X367540Y390032D01*
X367505Y390015D01*
X367335Y389895D01*
X367162Y389778D01*
X367134Y389752D01*
X367103Y389730D01*
X366955Y389584D01*
X366802Y389440D01*
X366779Y389410D01*
X366752Y389383D01*
X366629Y389215D01*
X366502Y389049D01*
X366484Y389015D01*
X366462Y388985D01*
X366368Y388798D01*
X366269Y388614D01*
X366256Y388578D01*
X366239Y388544D01*
X366177Y388345D01*
X366109Y388148D01*
X366103Y388110D01*
X366091Y388074D01*
X366081Y387981D01*
X366026Y387661D01*
X366025Y387489D01*
X366015Y387396D01*
X366015Y373338D01*
X364816Y370443D01*
X362601Y368228D01*
X359706Y367029D01*
X356574Y367029D01*
X353679Y368228D01*
X351464Y370443D01*
X350265Y373338D01*
X350265Y383840D01*
X350256Y383953D01*
X350257Y384068D01*
X350236Y384199D01*
X350225Y384331D01*
X350198Y384442D01*
X350180Y384555D01*
X350139Y384681D01*
X350107Y384810D01*
X350062Y384915D01*
X350026Y385024D01*
X349965Y385142D01*
X349912Y385264D01*
X349851Y385360D01*
X349798Y385461D01*
X349739Y385535D01*
X349647Y385680D01*
X349431Y385922D01*
X349373Y385994D01*
X345817Y389551D01*
X345788Y389575D01*
X345762Y389604D01*
X345600Y389735D01*
X345441Y389870D01*
X345408Y389890D01*
X345378Y389914D01*
X345197Y390017D01*
X345018Y390125D01*
X344983Y390139D01*
X344950Y390158D01*
X344754Y390230D01*
X344560Y390308D01*
X344523Y390316D01*
X344487Y390329D01*
X344282Y390369D01*
X344078Y390414D01*
X344040Y390417D01*
X344003Y390424D01*
X343795Y390430D01*
X343586Y390442D01*
X343548Y390438D01*
X343510Y390439D01*
X343303Y390412D01*
X343095Y390390D01*
X343059Y390380D01*
X343021Y390375D01*
X342821Y390314D01*
X342620Y390259D01*
X342585Y390243D01*
X342548Y390232D01*
X342361Y390141D01*
X342171Y390054D01*
X342140Y390032D01*
X342105Y390015D01*
X341935Y389895D01*
X341762Y389778D01*
X341734Y389752D01*
X341703Y389730D01*
X341555Y389584D01*
X341402Y389440D01*
X341379Y389410D01*
X341352Y389383D01*
X341229Y389215D01*
X341102Y389049D01*
X341084Y389015D01*
X341062Y388985D01*
X340968Y388798D01*
X340869Y388614D01*
X340856Y388578D01*
X340839Y388544D01*
X340777Y388345D01*
X340709Y388148D01*
X340703Y388110D01*
X340691Y388074D01*
X340681Y387981D01*
X340626Y387661D01*
X340625Y387489D01*
X340615Y387396D01*
X340615Y373338D01*
X339416Y370443D01*
X337201Y368228D01*
X334306Y367029D01*
X331174Y367029D01*
X328279Y368228D01*
X326064Y370443D01*
X324865Y373338D01*
X324865Y383840D01*
X324856Y383953D01*
X324857Y384068D01*
X324836Y384199D01*
X324825Y384331D01*
X324798Y384442D01*
X324780Y384555D01*
X324739Y384681D01*
X324707Y384810D01*
X324662Y384915D01*
X324626Y385024D01*
X324565Y385142D01*
X324512Y385264D01*
X324451Y385360D01*
X324398Y385461D01*
X324339Y385535D01*
X324247Y385680D01*
X324031Y385922D01*
X323973Y385994D01*
X320417Y389551D01*
X320388Y389575D01*
X320362Y389604D01*
X320200Y389735D01*
X320041Y389870D01*
X320008Y389890D01*
X319978Y389914D01*
X319797Y390017D01*
X319618Y390125D01*
X319583Y390139D01*
X319550Y390158D01*
X319354Y390230D01*
X319160Y390308D01*
X319123Y390316D01*
X319087Y390329D01*
X318882Y390369D01*
X318678Y390414D01*
X318640Y390417D01*
X318603Y390424D01*
X318395Y390430D01*
X318186Y390442D01*
X318148Y390438D01*
X318110Y390439D01*
X317903Y390412D01*
X317695Y390390D01*
X317659Y390380D01*
X317621Y390375D01*
X317421Y390314D01*
X317220Y390259D01*
X317185Y390243D01*
X317148Y390232D01*
X316961Y390141D01*
X316771Y390054D01*
X316740Y390032D01*
X316705Y390015D01*
X316535Y389895D01*
X316362Y389778D01*
X316334Y389752D01*
X316303Y389730D01*
X316155Y389584D01*
X316002Y389440D01*
X315979Y389410D01*
X315952Y389383D01*
X315829Y389215D01*
X315702Y389049D01*
X315684Y389015D01*
X315662Y388985D01*
X315568Y388798D01*
X315469Y388614D01*
X315456Y388578D01*
X315439Y388544D01*
X315377Y388345D01*
X315309Y388148D01*
X315303Y388110D01*
X315291Y388074D01*
X315281Y387981D01*
X315226Y387661D01*
X315225Y387489D01*
X315215Y387396D01*
X315215Y373338D01*
X314016Y370443D01*
X311801Y368228D01*
X308906Y367029D01*
X305774Y367029D01*
X302879Y368228D01*
X300664Y370443D01*
X299465Y373338D01*
X299465Y383840D01*
X299456Y383953D01*
X299457Y384068D01*
X299436Y384199D01*
X299425Y384331D01*
X299398Y384442D01*
X299380Y384555D01*
X299339Y384681D01*
X299307Y384810D01*
X299262Y384915D01*
X299226Y385024D01*
X299165Y385142D01*
X299112Y385264D01*
X299051Y385360D01*
X298998Y385461D01*
X298939Y385535D01*
X298847Y385680D01*
X298631Y385922D01*
X298573Y385994D01*
X295017Y389551D01*
X294988Y389575D01*
X294962Y389604D01*
X294800Y389735D01*
X294641Y389870D01*
X294608Y389890D01*
X294578Y389914D01*
X294397Y390017D01*
X294218Y390125D01*
X294183Y390139D01*
X294150Y390158D01*
X293954Y390230D01*
X293760Y390308D01*
X293723Y390316D01*
X293687Y390329D01*
X293482Y390369D01*
X293278Y390414D01*
X293240Y390417D01*
X293203Y390424D01*
X292995Y390430D01*
X292786Y390442D01*
X292748Y390438D01*
X292710Y390439D01*
X292503Y390412D01*
X292295Y390390D01*
X292259Y390380D01*
X292221Y390375D01*
X292021Y390314D01*
X291820Y390259D01*
X291785Y390243D01*
X291748Y390232D01*
X291561Y390141D01*
X291371Y390054D01*
X291340Y390032D01*
X291305Y390015D01*
X291135Y389895D01*
X290962Y389778D01*
X290934Y389752D01*
X290903Y389730D01*
X290755Y389584D01*
X290602Y389440D01*
X290579Y389410D01*
X290552Y389383D01*
X290429Y389215D01*
X290302Y389049D01*
X290284Y389015D01*
X290262Y388985D01*
X290168Y388798D01*
X290069Y388614D01*
X290056Y388578D01*
X290039Y388544D01*
X289977Y388345D01*
X289909Y388148D01*
X289903Y388110D01*
X289891Y388074D01*
X289881Y387981D01*
X289826Y387661D01*
X289825Y387489D01*
X289815Y387396D01*
X289815Y373338D01*
X288616Y370443D01*
X286401Y368228D01*
X283506Y367029D01*
X280374Y367029D01*
X277479Y368228D01*
X275264Y370443D01*
X274065Y373338D01*
X274065Y383840D01*
X274056Y383953D01*
X274057Y384068D01*
X274036Y384199D01*
X274025Y384331D01*
X273998Y384442D01*
X273980Y384555D01*
X273939Y384681D01*
X273907Y384810D01*
X273862Y384915D01*
X273826Y385024D01*
X273765Y385142D01*
X273712Y385264D01*
X273651Y385360D01*
X273598Y385461D01*
X273539Y385535D01*
X273447Y385680D01*
X273231Y385922D01*
X273173Y385994D01*
X269617Y389551D01*
X269588Y389575D01*
X269562Y389604D01*
X269400Y389735D01*
X269241Y389870D01*
X269208Y389890D01*
X269178Y389914D01*
X268997Y390017D01*
X268818Y390125D01*
X268783Y390139D01*
X268750Y390158D01*
X268554Y390230D01*
X268360Y390308D01*
X268323Y390316D01*
X268287Y390329D01*
X268082Y390369D01*
X267878Y390414D01*
X267840Y390417D01*
X267803Y390424D01*
X267595Y390430D01*
X267386Y390442D01*
X267348Y390438D01*
X267310Y390439D01*
X267103Y390412D01*
X266895Y390390D01*
X266859Y390380D01*
X266821Y390375D01*
X266621Y390314D01*
X266420Y390259D01*
X266385Y390243D01*
X266348Y390232D01*
X266161Y390141D01*
X265971Y390054D01*
X265940Y390032D01*
X265905Y390015D01*
X265735Y389895D01*
X265562Y389778D01*
X265534Y389752D01*
X265503Y389730D01*
X265355Y389584D01*
X265202Y389440D01*
X265179Y389410D01*
X265152Y389383D01*
X265029Y389215D01*
X264902Y389049D01*
X264884Y389015D01*
X264862Y388985D01*
X264768Y388798D01*
X264669Y388614D01*
X264656Y388578D01*
X264639Y388544D01*
X264577Y388345D01*
X264509Y388148D01*
X264503Y388110D01*
X264491Y388074D01*
X264481Y387981D01*
X264426Y387661D01*
X264425Y387489D01*
X264415Y387396D01*
X264415Y373338D01*
X263216Y370443D01*
X261001Y368228D01*
X258106Y367029D01*
X254974Y367029D01*
X252079Y368228D01*
X249864Y370443D01*
X248665Y373338D01*
X248665Y388662D01*
X249864Y391557D01*
X252097Y393790D01*
X252186Y393835D01*
X252382Y393931D01*
X252405Y393947D01*
X252430Y393960D01*
X252606Y394090D01*
X252784Y394216D01*
X252804Y394237D01*
X252827Y394253D01*
X252979Y394409D01*
X253135Y394563D01*
X253152Y394586D01*
X253172Y394607D01*
X253297Y394785D01*
X253425Y394962D01*
X253438Y394987D01*
X253454Y395011D01*
X253549Y395207D01*
X253648Y395402D01*
X253656Y395430D01*
X253669Y395455D01*
X253730Y395664D01*
X253796Y395873D01*
X253799Y395896D01*
X253808Y395928D01*
X253869Y396418D01*
X253866Y396498D01*
X253872Y396551D01*
X253872Y398244D01*
X253868Y398301D01*
X253868Y398328D01*
X253863Y398369D01*
X253864Y398472D01*
X253843Y398603D01*
X253832Y398736D01*
X253805Y398846D01*
X253787Y398959D01*
X253746Y399086D01*
X253714Y399214D01*
X253669Y399319D01*
X253633Y399428D01*
X253571Y399546D01*
X253519Y399668D01*
X253458Y399764D01*
X253405Y399865D01*
X253346Y399939D01*
X253254Y400084D01*
X253038Y400326D01*
X252980Y400399D01*
X247565Y405814D01*
X247564Y405814D01*
X245995Y407384D01*
X245937Y407433D01*
X245885Y407489D01*
X245749Y407593D01*
X245619Y407703D01*
X245554Y407742D01*
X245493Y407789D01*
X245343Y407870D01*
X245196Y407958D01*
X245126Y407986D01*
X245058Y408022D01*
X244897Y408078D01*
X244738Y408141D01*
X244664Y408157D01*
X244592Y408182D01*
X244423Y408211D01*
X244257Y408248D01*
X244180Y408252D01*
X244105Y408265D01*
X243935Y408266D01*
X243764Y408275D01*
X243688Y408267D01*
X243612Y408268D01*
X243443Y408241D01*
X243273Y408223D01*
X243200Y408203D01*
X243125Y408191D01*
X242962Y408138D01*
X242798Y408092D01*
X242729Y408061D01*
X242656Y408037D01*
X242504Y407958D01*
X242349Y407887D01*
X242286Y407844D01*
X242218Y407809D01*
X242136Y407743D01*
X241940Y407611D01*
X241768Y407449D01*
X241685Y407384D01*
X234700Y400399D01*
X234626Y400312D01*
X234545Y400231D01*
X234467Y400124D01*
X234381Y400023D01*
X234322Y399925D01*
X234255Y399833D01*
X234195Y399714D01*
X234126Y399600D01*
X234084Y399494D01*
X234032Y399392D01*
X233992Y399265D01*
X233943Y399142D01*
X233918Y399031D01*
X233884Y398922D01*
X233874Y398828D01*
X233836Y398660D01*
X233829Y398527D01*
X233827Y398517D01*
X233825Y398462D01*
X233818Y398336D01*
X233808Y398244D01*
X233808Y396551D01*
X233825Y396333D01*
X233839Y396115D01*
X233845Y396087D01*
X233848Y396059D01*
X233900Y395847D01*
X233949Y395634D01*
X233960Y395608D01*
X233966Y395580D01*
X234052Y395380D01*
X234135Y395177D01*
X234150Y395153D01*
X234161Y395127D01*
X234278Y394943D01*
X234392Y394756D01*
X234411Y394735D01*
X234426Y394711D01*
X234571Y394548D01*
X234714Y394382D01*
X234736Y394364D01*
X234755Y394343D01*
X234925Y394206D01*
X235092Y394065D01*
X235112Y394054D01*
X235139Y394033D01*
X235567Y393789D01*
X235593Y393779D01*
X237816Y391557D01*
X239015Y388662D01*
X239015Y373338D01*
X237816Y370443D01*
X235601Y368228D01*
X232706Y367029D01*
X229574Y367029D01*
X226679Y368228D01*
X224464Y370443D01*
X223265Y373338D01*
X223265Y388662D01*
X224464Y391557D01*
X226697Y393790D01*
X226786Y393835D01*
X226982Y393931D01*
X227005Y393947D01*
X227030Y393960D01*
X227206Y394090D01*
X227384Y394216D01*
X227404Y394237D01*
X227427Y394253D01*
X227579Y394409D01*
X227735Y394563D01*
X227752Y394586D01*
X227772Y394607D01*
X227897Y394785D01*
X228025Y394962D01*
X228038Y394987D01*
X228054Y395011D01*
X228149Y395207D01*
X228248Y395402D01*
X228256Y395430D01*
X228269Y395455D01*
X228330Y395664D01*
X228396Y395873D01*
X228399Y395896D01*
X228408Y395928D01*
X228469Y396418D01*
X228466Y396498D01*
X228472Y396551D01*
X228472Y402156D01*
X228469Y402194D01*
X228471Y402232D01*
X228449Y402440D01*
X228432Y402648D01*
X228423Y402685D01*
X228419Y402723D01*
X228364Y402924D01*
X228314Y403127D01*
X228299Y403162D01*
X228288Y403198D01*
X228202Y403388D01*
X228119Y403580D01*
X228099Y403612D01*
X228083Y403647D01*
X227966Y403820D01*
X227854Y403996D01*
X227829Y404024D01*
X227807Y404056D01*
X227664Y404208D01*
X227525Y404364D01*
X227496Y404388D01*
X227469Y404416D01*
X227304Y404543D01*
X227141Y404674D01*
X227108Y404693D01*
X227078Y404716D01*
X226894Y404815D01*
X226713Y404918D01*
X226677Y404931D01*
X226643Y404949D01*
X226446Y405017D01*
X226250Y405089D01*
X226213Y405097D01*
X226177Y405109D01*
X225970Y405144D01*
X225766Y405184D01*
X225728Y405185D01*
X225690Y405192D01*
X225481Y405193D01*
X225273Y405199D01*
X225235Y405194D01*
X225197Y405195D01*
X224990Y405162D01*
X224784Y405135D01*
X224747Y405124D01*
X224710Y405118D01*
X224512Y405053D01*
X224312Y404993D01*
X224277Y404976D01*
X224241Y404964D01*
X224056Y404868D01*
X223868Y404776D01*
X223837Y404754D01*
X223803Y404736D01*
X223731Y404678D01*
X223466Y404490D01*
X223344Y404369D01*
X223270Y404311D01*
X221827Y402868D01*
X213299Y394340D01*
X213157Y394173D01*
X213013Y394010D01*
X212998Y393986D01*
X212980Y393964D01*
X212867Y393776D01*
X212751Y393592D01*
X212740Y393566D01*
X212725Y393541D01*
X212644Y393339D01*
X212559Y393137D01*
X212553Y393109D01*
X212542Y393083D01*
X212495Y392870D01*
X212444Y392658D01*
X212441Y392629D01*
X212435Y392601D01*
X212423Y392383D01*
X212407Y392166D01*
X212409Y392137D01*
X212408Y392109D01*
X212431Y391891D01*
X212450Y391674D01*
X212456Y391652D01*
X212460Y391618D01*
X212591Y391143D01*
X212624Y391069D01*
X212639Y391019D01*
X213615Y388662D01*
X213615Y373338D01*
X212416Y370443D01*
X210201Y368228D01*
X207306Y367029D01*
X204174Y367029D01*
X201279Y368228D01*
X199064Y370443D01*
X197865Y373338D01*
X197865Y387396D01*
X197862Y387434D01*
X197864Y387472D01*
X197842Y387680D01*
X197825Y387888D01*
X197816Y387925D01*
X197812Y387962D01*
X197757Y388164D01*
X197707Y388366D01*
X197692Y388401D01*
X197681Y388438D01*
X197594Y388628D01*
X197512Y388820D01*
X197492Y388852D01*
X197476Y388887D01*
X197359Y389060D01*
X197247Y389236D01*
X197222Y389264D01*
X197200Y389296D01*
X197057Y389448D01*
X196918Y389604D01*
X196889Y389628D01*
X196863Y389655D01*
X196696Y389783D01*
X196534Y389914D01*
X196502Y389932D01*
X196471Y389956D01*
X196287Y390055D01*
X196106Y390158D01*
X196070Y390171D01*
X196036Y390189D01*
X195839Y390257D01*
X195643Y390329D01*
X195606Y390337D01*
X195570Y390349D01*
X195363Y390384D01*
X195159Y390424D01*
X195121Y390425D01*
X195083Y390432D01*
X194874Y390433D01*
X194666Y390439D01*
X194628Y390434D01*
X194590Y390435D01*
X194383Y390402D01*
X194177Y390375D01*
X194140Y390364D01*
X194103Y390358D01*
X193904Y390293D01*
X193705Y390232D01*
X193670Y390216D01*
X193634Y390204D01*
X193449Y390107D01*
X193261Y390015D01*
X193230Y389993D01*
X193196Y389976D01*
X193124Y389918D01*
X192859Y389730D01*
X192737Y389609D01*
X192663Y389551D01*
X189107Y385994D01*
X189033Y385907D01*
X188952Y385827D01*
X188874Y385720D01*
X188788Y385619D01*
X188729Y385521D01*
X188662Y385428D01*
X188602Y385310D01*
X188533Y385196D01*
X188491Y385090D01*
X188439Y384988D01*
X188399Y384861D01*
X188350Y384738D01*
X188325Y384627D01*
X188291Y384518D01*
X188281Y384424D01*
X188243Y384256D01*
X188225Y383932D01*
X188215Y383840D01*
X188215Y373338D01*
X187016Y370443D01*
X184801Y368228D01*
X181906Y367029D01*
X178774Y367029D01*
X175879Y368228D01*
X173664Y370443D01*
X172465Y373338D01*
X172465Y387396D01*
X172462Y387434D01*
X172464Y387472D01*
X172442Y387680D01*
X172425Y387888D01*
X172416Y387925D01*
X172412Y387962D01*
X172357Y388164D01*
X172307Y388366D01*
X172292Y388401D01*
X172281Y388438D01*
X172194Y388628D01*
X172112Y388820D01*
X172092Y388852D01*
X172076Y388887D01*
X171959Y389060D01*
X171847Y389236D01*
X171822Y389264D01*
X171800Y389296D01*
X171657Y389448D01*
X171518Y389604D01*
X171489Y389628D01*
X171463Y389655D01*
X171296Y389783D01*
X171134Y389914D01*
X171102Y389932D01*
X171071Y389956D01*
X170887Y390055D01*
X170706Y390158D01*
X170670Y390171D01*
X170636Y390189D01*
X170439Y390257D01*
X170243Y390329D01*
X170206Y390337D01*
X170170Y390349D01*
X169963Y390384D01*
X169759Y390424D01*
X169721Y390425D01*
X169683Y390432D01*
X169474Y390433D01*
X169266Y390439D01*
X169228Y390434D01*
X169190Y390435D01*
X168983Y390402D01*
X168777Y390375D01*
X168740Y390364D01*
X168703Y390358D01*
X168504Y390293D01*
X168305Y390232D01*
X168270Y390216D01*
X168234Y390204D01*
X168049Y390107D01*
X167861Y390015D01*
X167830Y389993D01*
X167796Y389976D01*
X167724Y389918D01*
X167459Y389730D01*
X167337Y389609D01*
X167263Y389551D01*
X163707Y385994D01*
X163633Y385907D01*
X163552Y385827D01*
X163474Y385720D01*
X163388Y385619D01*
X163329Y385521D01*
X163262Y385428D01*
X163202Y385310D01*
X163133Y385196D01*
X163091Y385090D01*
X163039Y384988D01*
X162999Y384861D01*
X162950Y384738D01*
X162925Y384627D01*
X162891Y384518D01*
X162881Y384424D01*
X162843Y384256D01*
X162825Y383932D01*
X162815Y383840D01*
X162815Y373338D01*
X161616Y370443D01*
X159401Y368228D01*
X156506Y367029D01*
X153374Y367029D01*
G37*
%LPD*%
%LPC*%
G36*
X189778Y632205D02*
X189778Y632205D01*
X185165Y636818D01*
X185165Y643342D01*
X187321Y645497D01*
X187395Y645584D01*
X187476Y645665D01*
X187554Y645772D01*
X187640Y645873D01*
X187699Y645971D01*
X187766Y646063D01*
X187826Y646182D01*
X187895Y646296D01*
X187937Y646402D01*
X187989Y646504D01*
X188029Y646631D01*
X188078Y646754D01*
X188103Y646865D01*
X188137Y646974D01*
X188147Y647068D01*
X188185Y647236D01*
X188203Y647560D01*
X188213Y647652D01*
X188213Y657181D01*
X188199Y657361D01*
X188192Y657541D01*
X188179Y657606D01*
X188173Y657673D01*
X188130Y657848D01*
X188094Y658025D01*
X188071Y658087D01*
X188055Y658152D01*
X187983Y658317D01*
X187920Y658486D01*
X187886Y658544D01*
X187860Y658605D01*
X187763Y658757D01*
X187673Y658914D01*
X187631Y658965D01*
X187595Y659021D01*
X187475Y659156D01*
X187360Y659295D01*
X187311Y659339D01*
X187266Y659389D01*
X187126Y659502D01*
X186991Y659622D01*
X186934Y659657D01*
X186882Y659699D01*
X186726Y659788D01*
X186573Y659884D01*
X186512Y659910D01*
X186454Y659943D01*
X186284Y660006D01*
X186118Y660076D01*
X186054Y660091D01*
X185991Y660115D01*
X185814Y660149D01*
X185639Y660192D01*
X185572Y660196D01*
X185507Y660209D01*
X185327Y660215D01*
X185147Y660228D01*
X185080Y660223D01*
X185014Y660225D01*
X184835Y660201D01*
X184655Y660185D01*
X184605Y660171D01*
X184525Y660160D01*
X184053Y660018D01*
X184022Y660003D01*
X184000Y659996D01*
X181906Y659129D01*
X178774Y659129D01*
X175879Y660328D01*
X173664Y662543D01*
X172465Y665438D01*
X172465Y680762D01*
X173664Y683657D01*
X175879Y685872D01*
X178774Y687071D01*
X181906Y687071D01*
X184000Y686204D01*
X184171Y686148D01*
X184341Y686085D01*
X184406Y686073D01*
X184469Y686052D01*
X184648Y686025D01*
X184825Y685991D01*
X184891Y685989D01*
X184957Y685979D01*
X185138Y685981D01*
X185318Y685975D01*
X185384Y685984D01*
X185451Y685985D01*
X185628Y686016D01*
X185807Y686040D01*
X185871Y686059D01*
X185936Y686071D01*
X186106Y686130D01*
X186280Y686182D01*
X186339Y686212D01*
X186402Y686234D01*
X186560Y686320D01*
X186723Y686399D01*
X186777Y686438D01*
X186835Y686470D01*
X186978Y686580D01*
X187125Y686685D01*
X187172Y686731D01*
X187225Y686772D01*
X187348Y686905D01*
X187476Y687031D01*
X187515Y687085D01*
X187560Y687134D01*
X187660Y687284D01*
X187766Y687430D01*
X187796Y687490D01*
X187833Y687545D01*
X187907Y687709D01*
X187989Y687871D01*
X188009Y687934D01*
X188036Y687995D01*
X188083Y688169D01*
X188137Y688341D01*
X188143Y688394D01*
X188164Y688471D01*
X188213Y688962D01*
X188211Y688996D01*
X188213Y689019D01*
X188213Y689300D01*
X188948Y691074D01*
X190642Y692768D01*
X190648Y692775D01*
X190655Y692782D01*
X190806Y692961D01*
X190961Y693144D01*
X190966Y693152D01*
X190973Y693160D01*
X190992Y693195D01*
X191216Y693566D01*
X191265Y693688D01*
X191292Y693738D01*
X192718Y695163D01*
X194575Y695933D01*
X196455Y695933D01*
X196635Y695947D01*
X196815Y695954D01*
X196880Y695967D01*
X196947Y695973D01*
X197122Y696016D01*
X197299Y696052D01*
X197361Y696075D01*
X197425Y696091D01*
X197592Y696163D01*
X197760Y696226D01*
X197817Y696260D01*
X197879Y696286D01*
X198031Y696383D01*
X198187Y696473D01*
X198239Y696515D01*
X198295Y696551D01*
X198429Y696671D01*
X198569Y696786D01*
X198613Y696835D01*
X198663Y696880D01*
X198776Y697020D01*
X198895Y697155D01*
X198931Y697212D01*
X198973Y697264D01*
X199062Y697420D01*
X199158Y697573D01*
X199184Y697634D01*
X199217Y697692D01*
X199279Y697862D01*
X199349Y698028D01*
X199365Y698092D01*
X199388Y698155D01*
X199423Y698332D01*
X199465Y698507D01*
X199470Y698574D01*
X199483Y698639D01*
X199488Y698819D01*
X199502Y698999D01*
X199496Y699066D01*
X199498Y699132D01*
X199475Y699311D01*
X199459Y699491D01*
X199444Y699541D01*
X199434Y699621D01*
X199291Y700093D01*
X199277Y700124D01*
X199270Y700146D01*
X197865Y703538D01*
X197865Y718862D01*
X199064Y721757D01*
X201279Y723972D01*
X204174Y725171D01*
X207306Y725171D01*
X210201Y723972D01*
X212416Y721757D01*
X213615Y718862D01*
X213615Y703538D01*
X212416Y700643D01*
X210201Y698428D01*
X207306Y697229D01*
X204174Y697229D01*
X204024Y697291D01*
X203988Y697303D01*
X203953Y697320D01*
X203753Y697379D01*
X203555Y697443D01*
X203517Y697448D01*
X203480Y697459D01*
X203273Y697485D01*
X203067Y697516D01*
X203028Y697516D01*
X202991Y697520D01*
X202783Y697513D01*
X202573Y697510D01*
X202536Y697503D01*
X202498Y697502D01*
X202293Y697461D01*
X202088Y697424D01*
X202051Y697412D01*
X202014Y697404D01*
X201819Y697330D01*
X201622Y697261D01*
X201588Y697243D01*
X201553Y697230D01*
X201372Y697125D01*
X201189Y697025D01*
X201159Y697002D01*
X201125Y696983D01*
X200964Y696851D01*
X200799Y696723D01*
X200773Y696695D01*
X200744Y696670D01*
X200606Y696514D01*
X200464Y696361D01*
X200442Y696329D01*
X200417Y696301D01*
X200306Y696124D01*
X200191Y695950D01*
X200175Y695915D01*
X200155Y695883D01*
X200074Y695691D01*
X199988Y695500D01*
X199978Y695463D01*
X199963Y695428D01*
X199914Y695225D01*
X199860Y695024D01*
X199856Y694986D01*
X199847Y694949D01*
X199832Y694741D01*
X199811Y694533D01*
X199814Y694495D01*
X199811Y694457D01*
X199829Y694249D01*
X199842Y694040D01*
X199850Y694003D01*
X199854Y693965D01*
X199879Y693876D01*
X199952Y693560D01*
X200017Y693400D01*
X200043Y693310D01*
X200633Y691885D01*
X200633Y690118D01*
X200639Y690042D01*
X200637Y689966D01*
X200659Y689797D01*
X200673Y689626D01*
X200691Y689552D01*
X200701Y689477D01*
X200750Y689313D01*
X200791Y689147D01*
X200821Y689077D01*
X200843Y689004D01*
X200919Y688851D01*
X200986Y688694D01*
X201027Y688630D01*
X201060Y688561D01*
X201159Y688422D01*
X201251Y688278D01*
X201302Y688221D01*
X201346Y688159D01*
X201466Y688038D01*
X201580Y687910D01*
X201639Y687862D01*
X201693Y687808D01*
X201831Y687707D01*
X201964Y687600D01*
X202030Y687563D01*
X202091Y687518D01*
X202244Y687441D01*
X202392Y687356D01*
X202464Y687330D01*
X202532Y687295D01*
X202695Y687244D01*
X202855Y687185D01*
X202930Y687170D01*
X203002Y687147D01*
X203107Y687135D01*
X203339Y687090D01*
X203575Y687083D01*
X203680Y687071D01*
X207306Y687071D01*
X210201Y685872D01*
X212416Y683657D01*
X212480Y683503D01*
X212562Y683342D01*
X212637Y683178D01*
X212674Y683123D01*
X212705Y683064D01*
X212812Y682919D01*
X212913Y682769D01*
X212958Y682721D01*
X212998Y682667D01*
X213127Y682541D01*
X213250Y682409D01*
X213303Y682369D01*
X213351Y682323D01*
X213498Y682219D01*
X213642Y682109D01*
X213700Y682078D01*
X213755Y682040D01*
X213917Y681961D01*
X214077Y681876D01*
X214139Y681854D01*
X214199Y681826D01*
X214372Y681774D01*
X214543Y681716D01*
X214609Y681705D01*
X214673Y681686D01*
X214851Y681664D01*
X215030Y681633D01*
X215096Y681633D01*
X215162Y681625D01*
X215342Y681631D01*
X215523Y681630D01*
X215589Y681641D01*
X215655Y681643D01*
X215832Y681679D01*
X216010Y681707D01*
X216074Y681728D01*
X216139Y681741D01*
X216307Y681805D01*
X216479Y681861D01*
X216538Y681892D01*
X216600Y681915D01*
X216756Y682006D01*
X216916Y682089D01*
X216958Y682122D01*
X217027Y682162D01*
X217409Y682475D01*
X217431Y682500D01*
X217450Y682514D01*
X228181Y693246D01*
X228298Y693383D01*
X228421Y693515D01*
X228457Y693571D01*
X228500Y693622D01*
X228594Y693776D01*
X228693Y693927D01*
X228721Y693987D01*
X228755Y694044D01*
X228822Y694212D01*
X228896Y694376D01*
X228913Y694441D01*
X228938Y694502D01*
X228977Y694678D01*
X229024Y694853D01*
X229030Y694919D01*
X229045Y694984D01*
X229055Y695164D01*
X229073Y695344D01*
X229069Y695410D01*
X229072Y695476D01*
X229053Y695656D01*
X229042Y695836D01*
X229027Y695901D01*
X229020Y695967D01*
X228972Y696141D01*
X228932Y696317D01*
X228907Y696379D01*
X228890Y696443D01*
X228814Y696607D01*
X228746Y696774D01*
X228712Y696831D01*
X228684Y696891D01*
X228583Y697041D01*
X228489Y697195D01*
X228446Y697245D01*
X228408Y697300D01*
X228285Y697432D01*
X228167Y697569D01*
X228116Y697611D01*
X228071Y697660D01*
X227927Y697770D01*
X227789Y697886D01*
X227743Y697911D01*
X227679Y697960D01*
X227245Y698193D01*
X227213Y698204D01*
X227192Y698216D01*
X226679Y698428D01*
X224464Y700643D01*
X223265Y703538D01*
X223265Y718862D01*
X224464Y721757D01*
X226679Y723972D01*
X229574Y725171D01*
X232706Y725171D01*
X235601Y723972D01*
X237816Y721757D01*
X239015Y718862D01*
X239015Y711680D01*
X239021Y711604D01*
X239019Y711528D01*
X239041Y711359D01*
X239055Y711188D01*
X239073Y711114D01*
X239083Y711039D01*
X239132Y710875D01*
X239173Y710709D01*
X239203Y710640D01*
X239225Y710566D01*
X239301Y710413D01*
X239368Y710256D01*
X239409Y710192D01*
X239442Y710123D01*
X239541Y709984D01*
X239633Y709840D01*
X239684Y709783D01*
X239728Y709721D01*
X239848Y709600D01*
X239962Y709472D01*
X240021Y709424D01*
X240075Y709370D01*
X240213Y709269D01*
X240346Y709162D01*
X240412Y709125D01*
X240473Y709080D01*
X240626Y709003D01*
X240774Y708918D01*
X240846Y708892D01*
X240914Y708857D01*
X241077Y708806D01*
X241237Y708747D01*
X241312Y708732D01*
X241384Y708709D01*
X241489Y708697D01*
X241721Y708652D01*
X241957Y708645D01*
X242062Y708633D01*
X243293Y708633D01*
X243690Y708468D01*
X243862Y708413D01*
X244031Y708350D01*
X244096Y708337D01*
X244159Y708317D01*
X244338Y708290D01*
X244515Y708256D01*
X244581Y708253D01*
X244647Y708244D01*
X244828Y708246D01*
X245008Y708240D01*
X245074Y708249D01*
X245141Y708250D01*
X245318Y708281D01*
X245497Y708305D01*
X245561Y708324D01*
X245626Y708335D01*
X245797Y708395D01*
X245970Y708447D01*
X246029Y708476D01*
X246092Y708498D01*
X246250Y708585D01*
X246413Y708664D01*
X246467Y708702D01*
X246525Y708734D01*
X246668Y708845D01*
X246815Y708949D01*
X246862Y708996D01*
X246915Y709037D01*
X247038Y709169D01*
X247166Y709296D01*
X247205Y709350D01*
X247250Y709399D01*
X247350Y709549D01*
X247456Y709695D01*
X247486Y709754D01*
X247523Y709810D01*
X247597Y709975D01*
X247679Y710135D01*
X247699Y710199D01*
X247726Y710259D01*
X247773Y710434D01*
X247827Y710606D01*
X247833Y710658D01*
X247854Y710736D01*
X247903Y711227D01*
X247901Y711260D01*
X247903Y711284D01*
X247903Y717976D01*
X248116Y719319D01*
X248536Y720611D01*
X249153Y721823D01*
X249952Y722923D01*
X250913Y723884D01*
X252013Y724683D01*
X253225Y725300D01*
X253493Y725387D01*
X253493Y711200D01*
X253499Y711124D01*
X253496Y711048D01*
X253519Y710879D01*
X253533Y710709D01*
X253551Y710635D01*
X253561Y710559D01*
X253610Y710395D01*
X253651Y710230D01*
X253681Y710160D01*
X253703Y710087D01*
X253778Y709933D01*
X253846Y709776D01*
X253887Y709712D01*
X253920Y709644D01*
X254019Y709504D01*
X254111Y709360D01*
X254162Y709304D01*
X254206Y709241D01*
X254326Y709120D01*
X254440Y708992D01*
X254499Y708944D01*
X254552Y708890D01*
X254553Y708890D01*
X254691Y708789D01*
X254824Y708682D01*
X254890Y708644D01*
X254952Y708599D01*
X255104Y708523D01*
X255253Y708438D01*
X255324Y708411D01*
X255392Y708377D01*
X255555Y708326D01*
X255715Y708266D01*
X255790Y708252D01*
X255863Y708229D01*
X255967Y708217D01*
X256199Y708172D01*
X256435Y708164D01*
X256540Y708153D01*
X265177Y708153D01*
X265177Y704424D01*
X264964Y703081D01*
X264544Y701789D01*
X263927Y700577D01*
X263128Y699477D01*
X262167Y698516D01*
X261067Y697717D01*
X259855Y697100D01*
X258531Y696670D01*
X258410Y696640D01*
X258226Y696603D01*
X258171Y696582D01*
X258114Y696568D01*
X257941Y696495D01*
X257764Y696429D01*
X257713Y696399D01*
X257659Y696376D01*
X257500Y696276D01*
X257337Y696182D01*
X257292Y696145D01*
X257242Y696113D01*
X257101Y695988D01*
X256955Y695869D01*
X256916Y695825D01*
X256872Y695786D01*
X256753Y695641D01*
X256629Y695500D01*
X256598Y695450D01*
X256560Y695404D01*
X256467Y695241D01*
X256367Y695082D01*
X256344Y695028D01*
X256314Y694977D01*
X256248Y694801D01*
X256175Y694627D01*
X256161Y694570D01*
X256140Y694515D01*
X256103Y694330D01*
X256059Y694148D01*
X256055Y694089D01*
X256043Y694031D01*
X256036Y693843D01*
X256022Y693656D01*
X256028Y693597D01*
X256025Y693538D01*
X256049Y693351D01*
X256065Y693164D01*
X256079Y693119D01*
X256087Y693049D01*
X256228Y692576D01*
X256246Y692537D01*
X256254Y692509D01*
X256513Y691885D01*
X256513Y689767D01*
X256530Y689549D01*
X256544Y689331D01*
X256550Y689304D01*
X256553Y689275D01*
X256605Y689063D01*
X256654Y688850D01*
X256665Y688824D01*
X256671Y688796D01*
X256757Y688596D01*
X256840Y688393D01*
X256855Y688369D01*
X256866Y688343D01*
X256983Y688159D01*
X257097Y687973D01*
X257116Y687951D01*
X257131Y687927D01*
X257277Y687764D01*
X257419Y687599D01*
X257441Y687580D01*
X257460Y687559D01*
X257630Y687422D01*
X257797Y687282D01*
X257817Y687270D01*
X257844Y687249D01*
X258272Y687005D01*
X258348Y686977D01*
X258394Y686952D01*
X261001Y685872D01*
X263216Y683657D01*
X264415Y680762D01*
X264415Y665438D01*
X263216Y662543D01*
X261001Y660328D01*
X258106Y659129D01*
X254974Y659129D01*
X252079Y660328D01*
X249864Y662543D01*
X249554Y663293D01*
X249471Y663454D01*
X249396Y663618D01*
X249359Y663673D01*
X249328Y663732D01*
X249221Y663878D01*
X249121Y664027D01*
X249075Y664076D01*
X249036Y664129D01*
X248906Y664255D01*
X248783Y664387D01*
X248730Y664427D01*
X248682Y664474D01*
X248534Y664577D01*
X248391Y664687D01*
X248333Y664718D01*
X248278Y664757D01*
X248115Y664835D01*
X247957Y664920D01*
X247894Y664942D01*
X247834Y664971D01*
X247661Y665022D01*
X247490Y665080D01*
X247424Y665091D01*
X247361Y665110D01*
X247182Y665133D01*
X247004Y665163D01*
X246937Y665163D01*
X246871Y665172D01*
X246691Y665165D01*
X246510Y665166D01*
X246445Y665156D01*
X246378Y665153D01*
X246201Y665117D01*
X246023Y665089D01*
X245960Y665068D01*
X245894Y665055D01*
X245726Y664991D01*
X245554Y664935D01*
X245495Y664904D01*
X245433Y664881D01*
X245277Y664791D01*
X245117Y664707D01*
X245075Y664674D01*
X245006Y664634D01*
X244624Y664322D01*
X244602Y664296D01*
X244583Y664282D01*
X234545Y654244D01*
X234471Y654157D01*
X234390Y654076D01*
X234312Y653969D01*
X234226Y653868D01*
X234167Y653770D01*
X234100Y653678D01*
X234040Y653559D01*
X233971Y653445D01*
X233929Y653339D01*
X233877Y653237D01*
X233837Y653110D01*
X233788Y652987D01*
X233763Y652876D01*
X233729Y652767D01*
X233719Y652673D01*
X233681Y652505D01*
X233663Y652181D01*
X233653Y652089D01*
X233653Y651775D01*
X232883Y649918D01*
X231462Y648497D01*
X229605Y647727D01*
X227595Y647727D01*
X227389Y647813D01*
X227352Y647824D01*
X227318Y647841D01*
X227118Y647900D01*
X226919Y647964D01*
X226881Y647970D01*
X226845Y647980D01*
X226638Y648006D01*
X226431Y648038D01*
X226393Y648037D01*
X226355Y648042D01*
X226146Y648034D01*
X225938Y648031D01*
X225901Y648025D01*
X225862Y648023D01*
X225657Y647982D01*
X225452Y647946D01*
X225416Y647933D01*
X225379Y647926D01*
X225184Y647852D01*
X224987Y647783D01*
X224953Y647764D01*
X224917Y647751D01*
X224737Y647647D01*
X224553Y647547D01*
X224523Y647523D01*
X224490Y647504D01*
X224329Y647372D01*
X224164Y647244D01*
X224138Y647216D01*
X224108Y647192D01*
X223970Y647036D01*
X223828Y646882D01*
X223807Y646851D01*
X223782Y646822D01*
X223671Y646645D01*
X223556Y646471D01*
X223540Y646437D01*
X223519Y646404D01*
X223438Y646211D01*
X223353Y646022D01*
X223343Y645985D01*
X223328Y645950D01*
X223279Y645747D01*
X223225Y645545D01*
X223221Y645507D01*
X223212Y645470D01*
X223197Y645262D01*
X223176Y645054D01*
X223178Y645016D01*
X223175Y644978D01*
X223194Y644770D01*
X223207Y644562D01*
X223215Y644525D01*
X223218Y644487D01*
X223244Y644397D01*
X223316Y644081D01*
X223381Y643922D01*
X223407Y643831D01*
X223493Y643625D01*
X223493Y641615D01*
X222723Y639758D01*
X221302Y638337D01*
X219445Y637567D01*
X217435Y637567D01*
X215578Y638337D01*
X214157Y639758D01*
X213387Y641615D01*
X213387Y643625D01*
X214157Y645482D01*
X214880Y646205D01*
X214954Y646292D01*
X215035Y646373D01*
X215113Y646480D01*
X215199Y646581D01*
X215258Y646679D01*
X215325Y646771D01*
X215385Y646890D01*
X215454Y647004D01*
X215496Y647110D01*
X215548Y647212D01*
X215588Y647339D01*
X215637Y647462D01*
X215662Y647573D01*
X215696Y647682D01*
X215706Y647776D01*
X215744Y647944D01*
X215762Y648268D01*
X215772Y648360D01*
X215772Y658543D01*
X215769Y658581D01*
X215771Y658619D01*
X215749Y658827D01*
X215732Y659035D01*
X215723Y659072D01*
X215719Y659110D01*
X215664Y659311D01*
X215614Y659514D01*
X215599Y659549D01*
X215588Y659585D01*
X215501Y659775D01*
X215419Y659967D01*
X215399Y659999D01*
X215383Y660034D01*
X215266Y660207D01*
X215154Y660383D01*
X215129Y660411D01*
X215107Y660443D01*
X214964Y660595D01*
X214825Y660751D01*
X214796Y660775D01*
X214769Y660803D01*
X214604Y660930D01*
X214441Y661061D01*
X214408Y661080D01*
X214378Y661103D01*
X214194Y661202D01*
X214013Y661305D01*
X213977Y661318D01*
X213943Y661336D01*
X213746Y661404D01*
X213550Y661476D01*
X213513Y661484D01*
X213477Y661496D01*
X213271Y661531D01*
X213066Y661571D01*
X213028Y661572D01*
X212990Y661579D01*
X212781Y661580D01*
X212573Y661586D01*
X212535Y661581D01*
X212497Y661582D01*
X212291Y661549D01*
X212084Y661522D01*
X212047Y661511D01*
X212010Y661505D01*
X211812Y661440D01*
X211612Y661380D01*
X211577Y661363D01*
X211541Y661351D01*
X211356Y661254D01*
X211168Y661163D01*
X211137Y661141D01*
X211103Y661123D01*
X211030Y661065D01*
X210766Y660877D01*
X210644Y660756D01*
X210570Y660698D01*
X210201Y660328D01*
X207306Y659129D01*
X204174Y659129D01*
X202080Y659996D01*
X201909Y660052D01*
X201739Y660115D01*
X201674Y660127D01*
X201611Y660148D01*
X201432Y660175D01*
X201255Y660209D01*
X201189Y660211D01*
X201123Y660221D01*
X200942Y660219D01*
X200762Y660225D01*
X200696Y660216D01*
X200629Y660215D01*
X200452Y660184D01*
X200273Y660160D01*
X200209Y660141D01*
X200144Y660129D01*
X199974Y660070D01*
X199800Y660018D01*
X199741Y659988D01*
X199678Y659966D01*
X199520Y659880D01*
X199357Y659801D01*
X199303Y659762D01*
X199245Y659730D01*
X199102Y659620D01*
X198955Y659515D01*
X198908Y659469D01*
X198855Y659428D01*
X198732Y659295D01*
X198604Y659169D01*
X198565Y659115D01*
X198520Y659066D01*
X198420Y658916D01*
X198314Y658770D01*
X198284Y658710D01*
X198247Y658655D01*
X198173Y658491D01*
X198091Y658329D01*
X198071Y658266D01*
X198044Y658205D01*
X197997Y658031D01*
X197943Y657859D01*
X197937Y657806D01*
X197916Y657729D01*
X197867Y657238D01*
X197869Y657204D01*
X197867Y657181D01*
X197867Y647652D01*
X197876Y647538D01*
X197875Y647424D01*
X197896Y647293D01*
X197907Y647160D01*
X197934Y647050D01*
X197952Y646937D01*
X197993Y646810D01*
X198025Y646681D01*
X198070Y646577D01*
X198106Y646468D01*
X198168Y646350D01*
X198220Y646228D01*
X198281Y646132D01*
X198334Y646030D01*
X198393Y645957D01*
X198485Y645812D01*
X198701Y645570D01*
X198759Y645497D01*
X200915Y643342D01*
X200915Y636818D01*
X196302Y632205D01*
X189778Y632205D01*
G37*
%LPD*%
%LPC*%
G36*
X120915Y731547D02*
X120915Y731547D01*
X119058Y732317D01*
X117637Y733738D01*
X116867Y735595D01*
X116867Y737605D01*
X117637Y739462D01*
X119058Y740884D01*
X120316Y741405D01*
X120350Y741422D01*
X120386Y741435D01*
X120570Y741535D01*
X120755Y741630D01*
X120786Y741652D01*
X120819Y741671D01*
X120985Y741799D01*
X121152Y741923D01*
X121179Y741950D01*
X121209Y741973D01*
X121351Y742127D01*
X121497Y742276D01*
X121519Y742307D01*
X121544Y742335D01*
X121660Y742509D01*
X121780Y742680D01*
X121796Y742715D01*
X121817Y742746D01*
X121903Y742936D01*
X121994Y743125D01*
X122004Y743161D01*
X122020Y743196D01*
X122074Y743398D01*
X122133Y743598D01*
X122138Y743635D01*
X122148Y743672D01*
X122169Y743881D01*
X122194Y744087D01*
X122193Y744125D01*
X122197Y744163D01*
X122184Y744372D01*
X122176Y744580D01*
X122168Y744618D01*
X122166Y744656D01*
X122119Y744859D01*
X122078Y745064D01*
X122065Y745099D01*
X122056Y745137D01*
X121977Y745330D01*
X121904Y745525D01*
X121885Y745558D01*
X121870Y745594D01*
X121761Y745772D01*
X121657Y745952D01*
X121633Y745982D01*
X121613Y746014D01*
X121477Y746173D01*
X121345Y746334D01*
X121316Y746360D01*
X121291Y746388D01*
X121131Y746523D01*
X120975Y746661D01*
X120942Y746681D01*
X120913Y746705D01*
X120832Y746750D01*
X120557Y746923D01*
X120399Y746990D01*
X120316Y747035D01*
X119058Y747557D01*
X117637Y748978D01*
X116867Y750835D01*
X116867Y752845D01*
X117637Y754702D01*
X119058Y756123D01*
X119703Y756391D01*
X119830Y756456D01*
X119961Y756512D01*
X120049Y756568D01*
X120142Y756616D01*
X120257Y756700D01*
X120377Y756777D01*
X120455Y756847D01*
X120539Y756909D01*
X120638Y757011D01*
X120745Y757106D01*
X120811Y757187D01*
X120883Y757262D01*
X120965Y757379D01*
X121055Y757490D01*
X121106Y757580D01*
X121166Y757666D01*
X121228Y757794D01*
X121299Y757918D01*
X121335Y758016D01*
X121380Y758110D01*
X121421Y758247D01*
X121470Y758381D01*
X121490Y758483D01*
X121520Y758584D01*
X121538Y758725D01*
X121565Y758865D01*
X121568Y758969D01*
X121581Y759073D01*
X121576Y759216D01*
X121580Y759358D01*
X121567Y759462D01*
X121563Y759566D01*
X121535Y759706D01*
X121516Y759847D01*
X121486Y759947D01*
X121465Y760050D01*
X121415Y760183D01*
X121373Y760320D01*
X121327Y760413D01*
X121291Y760511D01*
X121219Y760635D01*
X121157Y760763D01*
X121096Y760848D01*
X121044Y760938D01*
X120954Y761049D01*
X120871Y761165D01*
X120798Y761239D01*
X120731Y761320D01*
X120624Y761415D01*
X120524Y761516D01*
X120440Y761577D01*
X120362Y761647D01*
X120241Y761723D01*
X120126Y761806D01*
X120032Y761853D01*
X119944Y761909D01*
X119812Y761965D01*
X119685Y762029D01*
X119586Y762060D01*
X119489Y762101D01*
X119351Y762134D01*
X119215Y762177D01*
X119137Y762186D01*
X119010Y762216D01*
X118577Y762249D01*
X118537Y762253D01*
X87940Y762253D01*
X86166Y762988D01*
X76435Y772719D01*
X76434Y772719D01*
X75129Y774025D01*
X75121Y774032D01*
X75115Y774039D01*
X74932Y774192D01*
X74753Y774345D01*
X74745Y774350D01*
X74737Y774356D01*
X74701Y774376D01*
X74330Y774599D01*
X74293Y774614D01*
X72064Y776843D01*
X70865Y779738D01*
X70865Y795062D01*
X72064Y797957D01*
X74279Y800172D01*
X77174Y801371D01*
X80306Y801371D01*
X83201Y800172D01*
X85416Y797957D01*
X86615Y795062D01*
X86615Y779738D01*
X86355Y779111D01*
X86288Y778904D01*
X86217Y778697D01*
X86213Y778669D01*
X86204Y778642D01*
X86171Y778426D01*
X86135Y778210D01*
X86135Y778182D01*
X86130Y778154D01*
X86133Y777936D01*
X86132Y777717D01*
X86136Y777689D01*
X86137Y777660D01*
X86174Y777446D01*
X86208Y777230D01*
X86217Y777202D01*
X86222Y777175D01*
X86294Y776969D01*
X86363Y776761D01*
X86376Y776736D01*
X86385Y776709D01*
X86489Y776518D01*
X86591Y776323D01*
X86605Y776305D01*
X86621Y776276D01*
X86924Y775886D01*
X86983Y775831D01*
X87016Y775790D01*
X90007Y772799D01*
X90094Y772725D01*
X90174Y772644D01*
X90281Y772566D01*
X90383Y772480D01*
X90481Y772421D01*
X90573Y772354D01*
X90691Y772294D01*
X90805Y772225D01*
X90911Y772183D01*
X91013Y772131D01*
X91140Y772091D01*
X91263Y772042D01*
X91375Y772017D01*
X91484Y771983D01*
X91577Y771973D01*
X91745Y771935D01*
X92069Y771917D01*
X92162Y771907D01*
X95044Y771907D01*
X95082Y771910D01*
X95120Y771908D01*
X95328Y771930D01*
X95536Y771947D01*
X95573Y771956D01*
X95611Y771960D01*
X95813Y772015D01*
X96015Y772065D01*
X96050Y772080D01*
X96087Y772091D01*
X96276Y772178D01*
X96468Y772260D01*
X96500Y772280D01*
X96535Y772296D01*
X96708Y772413D01*
X96884Y772525D01*
X96912Y772550D01*
X96944Y772572D01*
X97096Y772715D01*
X97252Y772854D01*
X97276Y772884D01*
X97304Y772910D01*
X97431Y773075D01*
X97562Y773238D01*
X97581Y773271D01*
X97604Y773301D01*
X97703Y773485D01*
X97806Y773666D01*
X97819Y773702D01*
X97837Y773736D01*
X97905Y773933D01*
X97977Y774129D01*
X97985Y774166D01*
X97997Y774203D01*
X98032Y774409D01*
X98072Y774613D01*
X98073Y774651D01*
X98080Y774689D01*
X98081Y774898D01*
X98087Y775106D01*
X98082Y775144D01*
X98083Y775182D01*
X98050Y775389D01*
X98023Y775595D01*
X98012Y775632D01*
X98006Y775670D01*
X97941Y775868D01*
X97881Y776067D01*
X97864Y776102D01*
X97852Y776138D01*
X97755Y776323D01*
X97664Y776511D01*
X97642Y776542D01*
X97624Y776576D01*
X97566Y776649D01*
X97515Y776720D01*
X96265Y779738D01*
X96265Y795062D01*
X97464Y797957D01*
X99679Y800172D01*
X102574Y801371D01*
X105706Y801371D01*
X108601Y800172D01*
X110816Y797957D01*
X112015Y795062D01*
X112015Y779738D01*
X110778Y776752D01*
X110762Y776733D01*
X110742Y776700D01*
X110718Y776670D01*
X110615Y776489D01*
X110507Y776310D01*
X110493Y776275D01*
X110474Y776242D01*
X110402Y776046D01*
X110324Y775852D01*
X110316Y775815D01*
X110303Y775779D01*
X110263Y775575D01*
X110217Y775371D01*
X110215Y775332D01*
X110208Y775295D01*
X110201Y775087D01*
X110190Y774878D01*
X110194Y774840D01*
X110193Y774802D01*
X110220Y774595D01*
X110242Y774388D01*
X110252Y774351D01*
X110257Y774313D01*
X110317Y774113D01*
X110372Y773912D01*
X110388Y773877D01*
X110399Y773840D01*
X110491Y773653D01*
X110578Y773463D01*
X110600Y773432D01*
X110616Y773397D01*
X110737Y773227D01*
X110853Y773054D01*
X110880Y773026D01*
X110902Y772995D01*
X111048Y772847D01*
X111191Y772695D01*
X111222Y772671D01*
X111249Y772644D01*
X111417Y772521D01*
X111583Y772394D01*
X111616Y772376D01*
X111647Y772354D01*
X111834Y772260D01*
X112017Y772161D01*
X112054Y772149D01*
X112088Y772131D01*
X112287Y772069D01*
X112484Y772001D01*
X112522Y771995D01*
X112558Y771983D01*
X112651Y771973D01*
X112970Y771918D01*
X113143Y771917D01*
X113236Y771907D01*
X119711Y771907D01*
X119757Y771910D01*
X119803Y771908D01*
X120002Y771930D01*
X120203Y771947D01*
X120248Y771958D01*
X120293Y771963D01*
X120486Y772017D01*
X120682Y772065D01*
X120724Y772083D01*
X120768Y772096D01*
X120951Y772181D01*
X121135Y772260D01*
X121174Y772284D01*
X121215Y772304D01*
X121382Y772417D01*
X121551Y772525D01*
X121585Y772555D01*
X121623Y772581D01*
X121769Y772719D01*
X121919Y772854D01*
X121948Y772889D01*
X121981Y772921D01*
X122103Y773081D01*
X122229Y773238D01*
X122252Y773277D01*
X122279Y773314D01*
X122374Y773492D01*
X122473Y773666D01*
X122489Y773709D01*
X122511Y773750D01*
X122575Y773940D01*
X122645Y774129D01*
X122654Y774174D01*
X122668Y774217D01*
X122701Y774416D01*
X122739Y774613D01*
X122741Y774659D01*
X122748Y774704D01*
X122749Y774906D01*
X122755Y775106D01*
X122749Y775151D01*
X122749Y775197D01*
X122717Y775396D01*
X122690Y775595D01*
X122677Y775639D01*
X122670Y775684D01*
X122606Y775874D01*
X122548Y776067D01*
X122528Y776109D01*
X122513Y776152D01*
X122465Y776238D01*
X122331Y776511D01*
X122225Y776661D01*
X122177Y776745D01*
X122153Y776777D01*
X121536Y777989D01*
X121116Y779281D01*
X120903Y780624D01*
X120903Y784353D01*
X129540Y784353D01*
X138177Y784353D01*
X138177Y782279D01*
X138180Y782242D01*
X138178Y782203D01*
X138200Y781996D01*
X138217Y781788D01*
X138226Y781751D01*
X138230Y781713D01*
X138285Y781511D01*
X138335Y781309D01*
X138350Y781274D01*
X138361Y781237D01*
X138448Y781047D01*
X138530Y780856D01*
X138550Y780823D01*
X138566Y780789D01*
X138683Y780615D01*
X138795Y780439D01*
X138820Y780411D01*
X138842Y780379D01*
X138985Y780227D01*
X139124Y780072D01*
X139153Y780048D01*
X139179Y780020D01*
X139346Y779892D01*
X139508Y779762D01*
X139540Y779743D01*
X139571Y779720D01*
X139755Y779621D01*
X139936Y779518D01*
X139972Y779504D01*
X140006Y779486D01*
X140203Y779419D01*
X140399Y779346D01*
X140436Y779339D01*
X140472Y779326D01*
X140679Y779291D01*
X140883Y779251D01*
X140921Y779250D01*
X140959Y779244D01*
X141168Y779242D01*
X141376Y779236D01*
X141414Y779241D01*
X141452Y779241D01*
X141659Y779273D01*
X141865Y779300D01*
X141902Y779311D01*
X141939Y779317D01*
X142138Y779383D01*
X142337Y779443D01*
X142372Y779460D01*
X142408Y779472D01*
X142593Y779568D01*
X142781Y779660D01*
X142812Y779682D01*
X142846Y779699D01*
X142918Y779758D01*
X143183Y779945D01*
X143305Y780066D01*
X143379Y780125D01*
X146173Y782919D01*
X146247Y783006D01*
X146328Y783086D01*
X146406Y783193D01*
X146492Y783295D01*
X146551Y783392D01*
X146618Y783485D01*
X146678Y783603D01*
X146747Y783717D01*
X146789Y783823D01*
X146841Y783925D01*
X146881Y784052D01*
X146930Y784175D01*
X146955Y784287D01*
X146989Y784396D01*
X146999Y784489D01*
X147037Y784657D01*
X147055Y784981D01*
X147065Y785074D01*
X147065Y795062D01*
X148264Y797957D01*
X150479Y800172D01*
X153374Y801371D01*
X156506Y801371D01*
X159401Y800172D01*
X161616Y797957D01*
X162815Y795062D01*
X162815Y779738D01*
X161616Y776843D01*
X159401Y774628D01*
X156506Y773429D01*
X153374Y773429D01*
X153106Y773540D01*
X152898Y773607D01*
X152692Y773678D01*
X152664Y773683D01*
X152637Y773691D01*
X152421Y773724D01*
X152206Y773760D01*
X152177Y773761D01*
X152149Y773765D01*
X151931Y773762D01*
X151712Y773763D01*
X151684Y773759D01*
X151656Y773759D01*
X151441Y773721D01*
X151225Y773687D01*
X151198Y773678D01*
X151170Y773673D01*
X150964Y773601D01*
X150756Y773533D01*
X150731Y773519D01*
X150704Y773510D01*
X150513Y773406D01*
X150319Y773305D01*
X150300Y773290D01*
X150271Y773274D01*
X149881Y772971D01*
X149827Y772912D01*
X149785Y772879D01*
X139894Y762988D01*
X138120Y762253D01*
X126617Y762253D01*
X126607Y762252D01*
X126597Y762253D01*
X126362Y762233D01*
X126125Y762213D01*
X126116Y762211D01*
X126106Y762210D01*
X126067Y762199D01*
X125646Y762095D01*
X125526Y762043D01*
X125451Y762021D01*
X125371Y761989D01*
X125357Y761987D01*
X125218Y761953D01*
X125078Y761928D01*
X124980Y761894D01*
X124878Y761869D01*
X124747Y761812D01*
X124612Y761765D01*
X124521Y761715D01*
X124425Y761674D01*
X124305Y761598D01*
X124179Y761529D01*
X124097Y761465D01*
X124009Y761409D01*
X123902Y761314D01*
X123790Y761226D01*
X123719Y761150D01*
X123641Y761080D01*
X123551Y760969D01*
X123454Y760865D01*
X123396Y760778D01*
X123331Y760696D01*
X123260Y760573D01*
X123181Y760454D01*
X123138Y760358D01*
X123087Y760268D01*
X123037Y760134D01*
X122979Y760004D01*
X122952Y759903D01*
X122915Y759805D01*
X122888Y759665D01*
X122851Y759528D01*
X122841Y759423D01*
X122821Y759321D01*
X122816Y759179D01*
X122802Y759037D01*
X122808Y758932D01*
X122805Y758828D01*
X122824Y758687D01*
X122833Y758544D01*
X122856Y758442D01*
X122870Y758339D01*
X122911Y758202D01*
X122943Y758063D01*
X122982Y757967D01*
X123012Y757867D01*
X123075Y757738D01*
X123129Y757606D01*
X123183Y757517D01*
X123229Y757423D01*
X123311Y757307D01*
X123386Y757185D01*
X123454Y757106D01*
X123514Y757021D01*
X123615Y756920D01*
X123708Y756812D01*
X123788Y756744D01*
X123861Y756670D01*
X123976Y756586D01*
X124086Y756495D01*
X124154Y756457D01*
X124260Y756380D01*
X124648Y756184D01*
X124683Y756165D01*
X124782Y756123D01*
X125505Y755400D01*
X125592Y755326D01*
X125673Y755245D01*
X125780Y755167D01*
X125881Y755081D01*
X125979Y755022D01*
X126071Y754955D01*
X126190Y754895D01*
X126304Y754826D01*
X126410Y754784D01*
X126512Y754732D01*
X126639Y754692D01*
X126762Y754643D01*
X126873Y754618D01*
X126982Y754584D01*
X127076Y754574D01*
X127244Y754536D01*
X127568Y754518D01*
X127660Y754508D01*
X146660Y754508D01*
X146774Y754517D01*
X146888Y754516D01*
X147019Y754537D01*
X147152Y754548D01*
X147262Y754575D01*
X147375Y754593D01*
X147502Y754634D01*
X147630Y754666D01*
X147735Y754711D01*
X147844Y754747D01*
X147962Y754809D01*
X148084Y754861D01*
X148180Y754922D01*
X148281Y754975D01*
X148355Y755034D01*
X148500Y755126D01*
X148742Y755342D01*
X148815Y755400D01*
X149538Y756123D01*
X151395Y756893D01*
X153405Y756893D01*
X155262Y756123D01*
X156683Y754702D01*
X157453Y752845D01*
X157453Y750835D01*
X156683Y748978D01*
X155262Y747557D01*
X154004Y747035D01*
X153970Y747018D01*
X153934Y747005D01*
X153751Y746906D01*
X153565Y746810D01*
X153534Y746788D01*
X153501Y746769D01*
X153336Y746641D01*
X153168Y746517D01*
X153141Y746490D01*
X153111Y746467D01*
X152969Y746313D01*
X152823Y746164D01*
X152802Y746133D01*
X152776Y746105D01*
X152660Y745931D01*
X152540Y745760D01*
X152524Y745726D01*
X152503Y745694D01*
X152417Y745504D01*
X152326Y745316D01*
X152316Y745279D01*
X152300Y745244D01*
X152246Y745043D01*
X152187Y744842D01*
X152182Y744804D01*
X152172Y744768D01*
X152152Y744560D01*
X152126Y744353D01*
X152127Y744315D01*
X152123Y744277D01*
X152136Y744068D01*
X152144Y743860D01*
X152152Y743822D01*
X152154Y743784D01*
X152200Y743581D01*
X152242Y743376D01*
X152255Y743341D01*
X152264Y743303D01*
X152342Y743110D01*
X152416Y742915D01*
X152435Y742882D01*
X152450Y742847D01*
X152559Y742668D01*
X152663Y742488D01*
X152687Y742458D01*
X152707Y742426D01*
X152843Y742267D01*
X152975Y742106D01*
X153004Y742081D01*
X153029Y742052D01*
X153188Y741918D01*
X153345Y741779D01*
X153378Y741759D01*
X153407Y741735D01*
X153488Y741690D01*
X153763Y741517D01*
X153922Y741450D01*
X154004Y741405D01*
X155262Y740884D01*
X156683Y739462D01*
X157453Y737605D01*
X157453Y735595D01*
X156683Y733738D01*
X155262Y732317D01*
X153405Y731547D01*
X151395Y731547D01*
X149538Y732317D01*
X148815Y733040D01*
X148728Y733114D01*
X148647Y733195D01*
X148540Y733273D01*
X148439Y733359D01*
X148341Y733418D01*
X148249Y733485D01*
X148130Y733545D01*
X148016Y733614D01*
X147910Y733656D01*
X147808Y733708D01*
X147681Y733748D01*
X147558Y733797D01*
X147447Y733822D01*
X147338Y733856D01*
X147244Y733866D01*
X147076Y733904D01*
X146752Y733922D01*
X146660Y733932D01*
X127660Y733932D01*
X127546Y733923D01*
X127432Y733924D01*
X127301Y733903D01*
X127168Y733892D01*
X127058Y733865D01*
X126945Y733847D01*
X126818Y733806D01*
X126690Y733774D01*
X126585Y733729D01*
X126476Y733693D01*
X126358Y733631D01*
X126236Y733579D01*
X126140Y733518D01*
X126039Y733465D01*
X125965Y733406D01*
X125820Y733314D01*
X125578Y733098D01*
X125505Y733040D01*
X124782Y732317D01*
X122925Y731547D01*
X120915Y731547D01*
G37*
%LPD*%
%LPC*%
G36*
X33020Y638047D02*
X33020Y638047D01*
X21457Y638047D01*
X21956Y639583D01*
X22809Y641257D01*
X23914Y642778D01*
X25242Y644106D01*
X26763Y645211D01*
X27026Y645345D01*
X27037Y645352D01*
X27047Y645356D01*
X27140Y645415D01*
X27167Y645432D01*
X27312Y645511D01*
X27376Y645561D01*
X27446Y645604D01*
X27571Y645712D01*
X27701Y645814D01*
X27757Y645873D01*
X27818Y645927D01*
X27924Y646054D01*
X28037Y646175D01*
X28082Y646243D01*
X28134Y646306D01*
X28218Y646449D01*
X28309Y646586D01*
X28343Y646661D01*
X28384Y646731D01*
X28444Y646885D01*
X28512Y647036D01*
X28533Y647115D01*
X28563Y647191D01*
X28597Y647353D01*
X28640Y647513D01*
X28648Y647594D01*
X28665Y647674D01*
X28673Y647839D01*
X28689Y648003D01*
X28684Y648085D01*
X28688Y648166D01*
X28669Y648331D01*
X28658Y648496D01*
X28640Y648575D01*
X28631Y648657D01*
X28585Y648816D01*
X28548Y648977D01*
X28518Y649052D01*
X28495Y649131D01*
X28425Y649281D01*
X28362Y649434D01*
X28320Y649503D01*
X28285Y649577D01*
X28191Y649713D01*
X28105Y649855D01*
X28052Y649917D01*
X28006Y649984D01*
X27891Y650103D01*
X27783Y650228D01*
X27721Y650281D01*
X27664Y650340D01*
X27532Y650439D01*
X27405Y650546D01*
X27350Y650576D01*
X27270Y650636D01*
X26833Y650865D01*
X26818Y650870D01*
X26808Y650875D01*
X26689Y650925D01*
X23545Y654069D01*
X21843Y658177D01*
X21843Y662623D01*
X23545Y666731D01*
X26689Y669875D01*
X26808Y669925D01*
X26955Y670000D01*
X27106Y670068D01*
X27175Y670112D01*
X27247Y670150D01*
X27380Y670248D01*
X27519Y670339D01*
X27579Y670394D01*
X27644Y670443D01*
X27760Y670561D01*
X27881Y670673D01*
X27932Y670737D01*
X27989Y670796D01*
X28083Y670931D01*
X28186Y671061D01*
X28225Y671133D01*
X28272Y671200D01*
X28343Y671349D01*
X28423Y671494D01*
X28450Y671571D01*
X28486Y671644D01*
X28532Y671803D01*
X28588Y671959D01*
X28602Y672039D01*
X28625Y672118D01*
X28646Y672282D01*
X28675Y672444D01*
X28676Y672526D01*
X28687Y672607D01*
X28680Y672772D01*
X28683Y672938D01*
X28671Y673019D01*
X28668Y673100D01*
X28635Y673262D01*
X28611Y673426D01*
X28587Y673503D01*
X28570Y673584D01*
X28512Y673738D01*
X28462Y673896D01*
X28425Y673969D01*
X28396Y674045D01*
X28313Y674188D01*
X28238Y674336D01*
X28190Y674401D01*
X28149Y674472D01*
X28045Y674600D01*
X27947Y674734D01*
X27888Y674791D01*
X27837Y674854D01*
X27713Y674963D01*
X27595Y675079D01*
X27542Y675114D01*
X27467Y675181D01*
X27049Y675443D01*
X27035Y675449D01*
X27026Y675455D01*
X26763Y675589D01*
X25242Y676694D01*
X23914Y678022D01*
X22809Y679543D01*
X21956Y681217D01*
X21457Y682753D01*
X33020Y682753D01*
X44583Y682753D01*
X44084Y681217D01*
X43231Y679543D01*
X42126Y678022D01*
X40798Y676694D01*
X39277Y675589D01*
X39014Y675455D01*
X38873Y675368D01*
X38728Y675289D01*
X38664Y675239D01*
X38594Y675196D01*
X38469Y675088D01*
X38339Y674986D01*
X38283Y674927D01*
X38222Y674873D01*
X38116Y674746D01*
X38003Y674625D01*
X37958Y674557D01*
X37906Y674494D01*
X37822Y674351D01*
X37731Y674214D01*
X37697Y674139D01*
X37656Y674069D01*
X37596Y673915D01*
X37528Y673764D01*
X37507Y673685D01*
X37477Y673609D01*
X37443Y673447D01*
X37400Y673287D01*
X37392Y673206D01*
X37375Y673126D01*
X37367Y672961D01*
X37351Y672797D01*
X37356Y672715D01*
X37352Y672634D01*
X37371Y672469D01*
X37382Y672304D01*
X37400Y672225D01*
X37409Y672143D01*
X37455Y671984D01*
X37492Y671823D01*
X37522Y671748D01*
X37545Y671669D01*
X37615Y671519D01*
X37678Y671366D01*
X37720Y671297D01*
X37755Y671223D01*
X37849Y671087D01*
X37935Y670945D01*
X37988Y670883D01*
X38034Y670816D01*
X38149Y670697D01*
X38257Y670572D01*
X38319Y670519D01*
X38376Y670460D01*
X38508Y670361D01*
X38635Y670254D01*
X38690Y670224D01*
X38770Y670164D01*
X39207Y669935D01*
X39222Y669930D01*
X39232Y669925D01*
X39351Y669875D01*
X42495Y666731D01*
X44197Y662623D01*
X44197Y658177D01*
X42495Y654069D01*
X39351Y650925D01*
X39232Y650875D01*
X39085Y650800D01*
X38934Y650732D01*
X38865Y650688D01*
X38793Y650650D01*
X38660Y650552D01*
X38521Y650461D01*
X38461Y650406D01*
X38396Y650357D01*
X38280Y650239D01*
X38159Y650127D01*
X38108Y650063D01*
X38051Y650004D01*
X37957Y649869D01*
X37854Y649739D01*
X37815Y649667D01*
X37768Y649600D01*
X37697Y649451D01*
X37617Y649306D01*
X37590Y649229D01*
X37554Y649156D01*
X37508Y648997D01*
X37452Y648841D01*
X37438Y648761D01*
X37415Y648682D01*
X37394Y648518D01*
X37365Y648356D01*
X37364Y648274D01*
X37353Y648193D01*
X37360Y648028D01*
X37357Y647862D01*
X37369Y647781D01*
X37372Y647700D01*
X37405Y647537D01*
X37429Y647374D01*
X37453Y647297D01*
X37470Y647216D01*
X37528Y647062D01*
X37578Y646904D01*
X37615Y646831D01*
X37644Y646755D01*
X37727Y646612D01*
X37802Y646464D01*
X37850Y646399D01*
X37891Y646328D01*
X37995Y646200D01*
X38093Y646066D01*
X38152Y646009D01*
X38203Y645946D01*
X38327Y645837D01*
X38445Y645721D01*
X38498Y645686D01*
X38573Y645619D01*
X38735Y645518D01*
X38828Y645450D01*
X38903Y645412D01*
X38991Y645357D01*
X39005Y645351D01*
X39014Y645345D01*
X39277Y645211D01*
X40798Y644106D01*
X42126Y642778D01*
X43231Y641257D01*
X44084Y639583D01*
X44583Y638047D01*
X33020Y638047D01*
X33020Y638047D01*
G37*
%LPD*%
%LPC*%
G36*
X323250Y752601D02*
X323250Y752601D01*
X319796Y754032D01*
X317152Y756676D01*
X316831Y757451D01*
X316731Y757646D01*
X316635Y757842D01*
X316619Y757865D01*
X316606Y757890D01*
X316476Y758066D01*
X316350Y758244D01*
X316330Y758264D01*
X316313Y758287D01*
X316157Y758440D01*
X316003Y758595D01*
X315980Y758612D01*
X315960Y758632D01*
X315781Y758757D01*
X315604Y758885D01*
X315579Y758898D01*
X315556Y758914D01*
X315359Y759009D01*
X315164Y759108D01*
X315137Y759116D01*
X315111Y759129D01*
X314902Y759190D01*
X314694Y759256D01*
X314670Y759259D01*
X314638Y759268D01*
X314149Y759329D01*
X314068Y759326D01*
X314016Y759332D01*
X302920Y759332D01*
X302806Y759323D01*
X302692Y759324D01*
X302561Y759303D01*
X302428Y759292D01*
X302318Y759265D01*
X302205Y759247D01*
X302078Y759206D01*
X301950Y759174D01*
X301845Y759129D01*
X301736Y759093D01*
X301618Y759031D01*
X301496Y758979D01*
X301400Y758918D01*
X301299Y758865D01*
X301225Y758806D01*
X301080Y758714D01*
X300838Y758498D01*
X300765Y758440D01*
X300042Y757717D01*
X298185Y756947D01*
X296175Y756947D01*
X294318Y757717D01*
X292897Y759138D01*
X292127Y760995D01*
X292127Y763005D01*
X292897Y764862D01*
X294318Y766283D01*
X296175Y767053D01*
X298185Y767053D01*
X300042Y766283D01*
X300765Y765560D01*
X300852Y765486D01*
X300933Y765405D01*
X301040Y765327D01*
X301141Y765241D01*
X301239Y765182D01*
X301331Y765115D01*
X301450Y765055D01*
X301564Y764986D01*
X301670Y764944D01*
X301772Y764892D01*
X301899Y764852D01*
X302022Y764803D01*
X302133Y764778D01*
X302242Y764744D01*
X302336Y764734D01*
X302504Y764696D01*
X302828Y764678D01*
X302920Y764668D01*
X314016Y764668D01*
X314234Y764685D01*
X314451Y764699D01*
X314479Y764705D01*
X314508Y764708D01*
X314720Y764760D01*
X314932Y764809D01*
X314959Y764820D01*
X314986Y764826D01*
X315187Y764913D01*
X315389Y764995D01*
X315414Y765010D01*
X315440Y765021D01*
X315624Y765138D01*
X315810Y765252D01*
X315832Y765271D01*
X315856Y765286D01*
X316018Y765431D01*
X316184Y765574D01*
X316202Y765596D01*
X316224Y765615D01*
X316361Y765784D01*
X316501Y765952D01*
X316513Y765973D01*
X316534Y765999D01*
X316778Y766427D01*
X316806Y766503D01*
X316831Y766549D01*
X317152Y767324D01*
X319796Y769968D01*
X323250Y771399D01*
X342230Y771399D01*
X345684Y769968D01*
X348328Y767324D01*
X349759Y763870D01*
X349759Y760130D01*
X348328Y756676D01*
X345684Y754032D01*
X342230Y752601D01*
X323250Y752601D01*
G37*
%LPD*%
%LPC*%
G36*
X323250Y778001D02*
X323250Y778001D01*
X319796Y779432D01*
X317152Y782076D01*
X316831Y782851D01*
X316731Y783046D01*
X316635Y783242D01*
X316619Y783265D01*
X316606Y783290D01*
X316476Y783466D01*
X316350Y783644D01*
X316330Y783664D01*
X316313Y783687D01*
X316157Y783840D01*
X316003Y783995D01*
X315980Y784012D01*
X315960Y784032D01*
X315781Y784157D01*
X315604Y784285D01*
X315579Y784298D01*
X315556Y784314D01*
X315359Y784409D01*
X315164Y784508D01*
X315137Y784516D01*
X315111Y784529D01*
X314902Y784590D01*
X314694Y784656D01*
X314670Y784659D01*
X314638Y784668D01*
X314149Y784729D01*
X314068Y784726D01*
X314016Y784732D01*
X305460Y784732D01*
X305346Y784723D01*
X305232Y784724D01*
X305101Y784703D01*
X304968Y784692D01*
X304858Y784665D01*
X304745Y784647D01*
X304618Y784606D01*
X304490Y784574D01*
X304385Y784529D01*
X304276Y784493D01*
X304158Y784431D01*
X304036Y784379D01*
X303940Y784318D01*
X303839Y784265D01*
X303765Y784206D01*
X303620Y784114D01*
X303378Y783898D01*
X303305Y783840D01*
X302582Y783117D01*
X300725Y782347D01*
X298715Y782347D01*
X296858Y783117D01*
X295437Y784538D01*
X294667Y786395D01*
X294667Y788405D01*
X295437Y790262D01*
X296858Y791683D01*
X298715Y792453D01*
X300725Y792453D01*
X302582Y791683D01*
X303305Y790960D01*
X303392Y790886D01*
X303473Y790805D01*
X303580Y790727D01*
X303681Y790641D01*
X303779Y790582D01*
X303871Y790515D01*
X303990Y790455D01*
X304104Y790386D01*
X304210Y790344D01*
X304312Y790292D01*
X304439Y790252D01*
X304562Y790203D01*
X304673Y790178D01*
X304782Y790144D01*
X304876Y790134D01*
X305044Y790096D01*
X305368Y790078D01*
X305460Y790068D01*
X314016Y790068D01*
X314234Y790085D01*
X314451Y790099D01*
X314479Y790105D01*
X314508Y790108D01*
X314720Y790160D01*
X314932Y790209D01*
X314959Y790220D01*
X314986Y790226D01*
X315187Y790313D01*
X315389Y790395D01*
X315414Y790410D01*
X315440Y790421D01*
X315624Y790538D01*
X315810Y790652D01*
X315832Y790671D01*
X315856Y790686D01*
X316018Y790831D01*
X316184Y790974D01*
X316202Y790996D01*
X316224Y791015D01*
X316361Y791184D01*
X316501Y791352D01*
X316513Y791373D01*
X316534Y791399D01*
X316778Y791827D01*
X316806Y791903D01*
X316831Y791949D01*
X317152Y792724D01*
X319796Y795368D01*
X323250Y796799D01*
X342230Y796799D01*
X345684Y795368D01*
X348328Y792724D01*
X349759Y789270D01*
X349759Y785530D01*
X348328Y782076D01*
X345684Y779432D01*
X342230Y778001D01*
X323250Y778001D01*
G37*
%LPD*%
%LPC*%
G36*
X30797Y598423D02*
X30797Y598423D01*
X26689Y600125D01*
X23545Y603269D01*
X21843Y607377D01*
X21843Y611823D01*
X23545Y615931D01*
X26689Y619075D01*
X26808Y619125D01*
X26955Y619200D01*
X27106Y619268D01*
X27175Y619312D01*
X27247Y619350D01*
X27380Y619448D01*
X27519Y619539D01*
X27579Y619594D01*
X27644Y619643D01*
X27760Y619761D01*
X27881Y619873D01*
X27932Y619937D01*
X27989Y619996D01*
X28083Y620131D01*
X28186Y620261D01*
X28225Y620333D01*
X28272Y620400D01*
X28343Y620549D01*
X28423Y620694D01*
X28450Y620771D01*
X28486Y620844D01*
X28532Y621003D01*
X28588Y621159D01*
X28602Y621239D01*
X28625Y621318D01*
X28646Y621482D01*
X28675Y621644D01*
X28676Y621726D01*
X28687Y621807D01*
X28680Y621972D01*
X28683Y622138D01*
X28671Y622219D01*
X28668Y622300D01*
X28635Y622462D01*
X28611Y622626D01*
X28587Y622703D01*
X28570Y622784D01*
X28512Y622938D01*
X28462Y623096D01*
X28425Y623169D01*
X28396Y623245D01*
X28313Y623388D01*
X28238Y623536D01*
X28190Y623601D01*
X28149Y623672D01*
X28045Y623800D01*
X27947Y623934D01*
X27888Y623991D01*
X27837Y624054D01*
X27713Y624163D01*
X27595Y624279D01*
X27542Y624314D01*
X27467Y624381D01*
X27049Y624643D01*
X27035Y624649D01*
X27026Y624655D01*
X26763Y624789D01*
X25242Y625894D01*
X23914Y627222D01*
X22809Y628743D01*
X21956Y630417D01*
X21457Y631953D01*
X33020Y631953D01*
X44583Y631953D01*
X44084Y630417D01*
X43231Y628743D01*
X42126Y627222D01*
X40798Y625894D01*
X39277Y624789D01*
X39014Y624655D01*
X38873Y624568D01*
X38728Y624489D01*
X38664Y624439D01*
X38594Y624396D01*
X38469Y624288D01*
X38339Y624186D01*
X38283Y624127D01*
X38222Y624073D01*
X38116Y623946D01*
X38003Y623825D01*
X37958Y623757D01*
X37906Y623694D01*
X37822Y623551D01*
X37731Y623414D01*
X37697Y623339D01*
X37656Y623269D01*
X37596Y623115D01*
X37528Y622964D01*
X37507Y622885D01*
X37477Y622809D01*
X37443Y622647D01*
X37400Y622487D01*
X37392Y622406D01*
X37375Y622326D01*
X37367Y622161D01*
X37351Y621997D01*
X37356Y621915D01*
X37352Y621834D01*
X37371Y621669D01*
X37382Y621504D01*
X37400Y621425D01*
X37409Y621343D01*
X37455Y621184D01*
X37492Y621023D01*
X37522Y620948D01*
X37545Y620869D01*
X37615Y620719D01*
X37678Y620566D01*
X37720Y620497D01*
X37755Y620423D01*
X37849Y620287D01*
X37935Y620145D01*
X37988Y620083D01*
X38034Y620016D01*
X38149Y619897D01*
X38257Y619772D01*
X38319Y619719D01*
X38376Y619660D01*
X38508Y619561D01*
X38635Y619454D01*
X38690Y619424D01*
X38770Y619364D01*
X39207Y619135D01*
X39222Y619130D01*
X39232Y619125D01*
X39351Y619075D01*
X42495Y615931D01*
X44197Y611823D01*
X44197Y607377D01*
X42495Y603269D01*
X39351Y600125D01*
X35243Y598423D01*
X30797Y598423D01*
G37*
%LPD*%
%LPC*%
G36*
X323250Y727201D02*
X323250Y727201D01*
X319796Y728632D01*
X317152Y731276D01*
X315721Y734730D01*
X315721Y738470D01*
X317152Y741924D01*
X319796Y744568D01*
X323250Y745999D01*
X342230Y745999D01*
X345684Y744568D01*
X348328Y741924D01*
X349759Y738470D01*
X349759Y734730D01*
X348328Y731276D01*
X345684Y728632D01*
X342230Y727201D01*
X323250Y727201D01*
G37*
%LPD*%
%LPC*%
G36*
X323250Y803401D02*
X323250Y803401D01*
X319796Y804832D01*
X317152Y807476D01*
X315721Y810930D01*
X315721Y814670D01*
X317152Y818124D01*
X319796Y820768D01*
X323250Y822199D01*
X342230Y822199D01*
X345684Y820768D01*
X348328Y818124D01*
X349759Y814670D01*
X349759Y810930D01*
X348328Y807476D01*
X345684Y804832D01*
X342230Y803401D01*
X323250Y803401D01*
G37*
%LPD*%
%LPC*%
G36*
X323250Y701801D02*
X323250Y701801D01*
X319796Y703232D01*
X317152Y705876D01*
X315721Y709330D01*
X315721Y713070D01*
X317152Y716524D01*
X319796Y719168D01*
X323250Y720599D01*
X342230Y720599D01*
X345684Y719168D01*
X348328Y716524D01*
X349759Y713070D01*
X349759Y709330D01*
X348328Y705876D01*
X345684Y703232D01*
X342230Y701801D01*
X323250Y701801D01*
G37*
%LPD*%
%LPC*%
G36*
X323250Y828801D02*
X323250Y828801D01*
X319796Y830232D01*
X317152Y832876D01*
X315721Y836330D01*
X315721Y840070D01*
X317152Y843524D01*
X319796Y846168D01*
X323250Y847599D01*
X342230Y847599D01*
X345684Y846168D01*
X348328Y843524D01*
X349759Y840070D01*
X349759Y836330D01*
X348328Y832876D01*
X345684Y830232D01*
X342230Y828801D01*
X323250Y828801D01*
G37*
%LPD*%
%LPC*%
G36*
X327977Y928623D02*
X327977Y928623D01*
X323869Y930325D01*
X320725Y933469D01*
X319023Y937577D01*
X319023Y942023D01*
X320725Y946131D01*
X323869Y949275D01*
X327977Y950977D01*
X332423Y950977D01*
X336531Y949275D01*
X339675Y946131D01*
X341377Y942023D01*
X341377Y937577D01*
X339675Y933469D01*
X336531Y930325D01*
X332423Y928623D01*
X327977Y928623D01*
G37*
%LPD*%
%LPC*%
G36*
X77174Y367029D02*
X77174Y367029D01*
X74279Y368228D01*
X72064Y370443D01*
X70865Y373338D01*
X70865Y388662D01*
X72064Y391557D01*
X74279Y393772D01*
X77174Y394971D01*
X80306Y394971D01*
X83201Y393772D01*
X85416Y391557D01*
X86615Y388662D01*
X86615Y373338D01*
X85416Y370443D01*
X83201Y368228D01*
X80306Y367029D01*
X77174Y367029D01*
G37*
%LPD*%
%LPC*%
G36*
X254974Y773429D02*
X254974Y773429D01*
X252079Y774628D01*
X249864Y776843D01*
X248665Y779738D01*
X248665Y795062D01*
X249864Y797957D01*
X252079Y800172D01*
X254974Y801371D01*
X258106Y801371D01*
X261001Y800172D01*
X263216Y797957D01*
X264415Y795062D01*
X264415Y779738D01*
X263216Y776843D01*
X261001Y774628D01*
X258106Y773429D01*
X254974Y773429D01*
G37*
%LPD*%
%LPC*%
G36*
X229574Y773429D02*
X229574Y773429D01*
X226679Y774628D01*
X224464Y776843D01*
X223265Y779738D01*
X223265Y795062D01*
X224464Y797957D01*
X226679Y800172D01*
X229574Y801371D01*
X232706Y801371D01*
X235601Y800172D01*
X237816Y797957D01*
X239015Y795062D01*
X239015Y779738D01*
X237816Y776843D01*
X235601Y774628D01*
X232706Y773429D01*
X229574Y773429D01*
G37*
%LPD*%
%LPC*%
G36*
X204174Y773429D02*
X204174Y773429D01*
X201279Y774628D01*
X199064Y776843D01*
X197865Y779738D01*
X197865Y795062D01*
X199064Y797957D01*
X201279Y800172D01*
X204174Y801371D01*
X207306Y801371D01*
X210201Y800172D01*
X212416Y797957D01*
X213615Y795062D01*
X213615Y779738D01*
X212416Y776843D01*
X210201Y774628D01*
X207306Y773429D01*
X204174Y773429D01*
G37*
%LPD*%
%LPC*%
G36*
X127974Y11429D02*
X127974Y11429D01*
X125079Y12628D01*
X122864Y14843D01*
X121665Y17738D01*
X121665Y33062D01*
X122864Y35957D01*
X125079Y38172D01*
X127974Y39371D01*
X131106Y39371D01*
X134001Y38172D01*
X136216Y35957D01*
X137415Y33062D01*
X137415Y17738D01*
X136216Y14843D01*
X134001Y12628D01*
X131106Y11429D01*
X127974Y11429D01*
G37*
%LPD*%
%LPC*%
G36*
X153374Y11429D02*
X153374Y11429D01*
X150479Y12628D01*
X148264Y14843D01*
X147065Y17738D01*
X147065Y33062D01*
X148264Y35957D01*
X150479Y38172D01*
X153374Y39371D01*
X156506Y39371D01*
X159401Y38172D01*
X161616Y35957D01*
X162815Y33062D01*
X162815Y17738D01*
X161616Y14843D01*
X159401Y12628D01*
X156506Y11429D01*
X153374Y11429D01*
G37*
%LPD*%
%LPC*%
G36*
X178774Y11429D02*
X178774Y11429D01*
X175879Y12628D01*
X173664Y14843D01*
X172465Y17738D01*
X172465Y33062D01*
X173664Y35957D01*
X175879Y38172D01*
X178774Y39371D01*
X181906Y39371D01*
X184801Y38172D01*
X187016Y35957D01*
X188215Y33062D01*
X188215Y17738D01*
X187016Y14843D01*
X184801Y12628D01*
X181906Y11429D01*
X178774Y11429D01*
G37*
%LPD*%
%LPC*%
G36*
X204174Y11429D02*
X204174Y11429D01*
X201279Y12628D01*
X199064Y14843D01*
X197865Y17738D01*
X197865Y33062D01*
X199064Y35957D01*
X201279Y38172D01*
X204174Y39371D01*
X207306Y39371D01*
X210201Y38172D01*
X212416Y35957D01*
X213615Y33062D01*
X213615Y17738D01*
X212416Y14843D01*
X210201Y12628D01*
X207306Y11429D01*
X204174Y11429D01*
G37*
%LPD*%
%LPC*%
G36*
X229574Y11429D02*
X229574Y11429D01*
X226679Y12628D01*
X224464Y14843D01*
X223265Y17738D01*
X223265Y33062D01*
X224464Y35957D01*
X226679Y38172D01*
X229574Y39371D01*
X232706Y39371D01*
X235601Y38172D01*
X237816Y35957D01*
X239015Y33062D01*
X239015Y17738D01*
X237816Y14843D01*
X235601Y12628D01*
X232706Y11429D01*
X229574Y11429D01*
G37*
%LPD*%
%LPC*%
G36*
X77174Y11429D02*
X77174Y11429D01*
X74279Y12628D01*
X72064Y14843D01*
X70865Y17738D01*
X70865Y33062D01*
X72064Y35957D01*
X74279Y38172D01*
X77174Y39371D01*
X80306Y39371D01*
X83201Y38172D01*
X85416Y35957D01*
X86615Y33062D01*
X86615Y17738D01*
X85416Y14843D01*
X83201Y12628D01*
X80306Y11429D01*
X77174Y11429D01*
G37*
%LPD*%
%LPC*%
G36*
X102574Y11429D02*
X102574Y11429D01*
X99679Y12628D01*
X97464Y14843D01*
X96265Y17738D01*
X96265Y33062D01*
X97464Y35957D01*
X99679Y38172D01*
X102574Y39371D01*
X105706Y39371D01*
X108601Y38172D01*
X110816Y35957D01*
X112015Y33062D01*
X112015Y17738D01*
X110816Y14843D01*
X108601Y12628D01*
X105706Y11429D01*
X102574Y11429D01*
G37*
%LPD*%
%LPC*%
G36*
X102574Y87629D02*
X102574Y87629D01*
X99679Y88828D01*
X97464Y91043D01*
X96265Y93938D01*
X96265Y109262D01*
X97464Y112157D01*
X99679Y114372D01*
X102574Y115571D01*
X105706Y115571D01*
X108601Y114372D01*
X110816Y112157D01*
X112015Y109262D01*
X112015Y93938D01*
X110816Y91043D01*
X108601Y88828D01*
X105706Y87629D01*
X102574Y87629D01*
G37*
%LPD*%
%LPC*%
G36*
X127974Y87629D02*
X127974Y87629D01*
X125079Y88828D01*
X122864Y91043D01*
X121665Y93938D01*
X121665Y109262D01*
X122864Y112157D01*
X125079Y114372D01*
X127974Y115571D01*
X131106Y115571D01*
X134001Y114372D01*
X136216Y112157D01*
X137415Y109262D01*
X137415Y93938D01*
X136216Y91043D01*
X134001Y88828D01*
X131106Y87629D01*
X127974Y87629D01*
G37*
%LPD*%
%LPC*%
G36*
X153374Y87629D02*
X153374Y87629D01*
X150479Y88828D01*
X148264Y91043D01*
X147065Y93938D01*
X147065Y109262D01*
X148264Y112157D01*
X150479Y114372D01*
X153374Y115571D01*
X156506Y115571D01*
X159401Y114372D01*
X161616Y112157D01*
X162815Y109262D01*
X162815Y93938D01*
X161616Y91043D01*
X159401Y88828D01*
X156506Y87629D01*
X153374Y87629D01*
G37*
%LPD*%
%LPC*%
G36*
X178774Y87629D02*
X178774Y87629D01*
X175879Y88828D01*
X173664Y91043D01*
X172465Y93938D01*
X172465Y109262D01*
X173664Y112157D01*
X175879Y114372D01*
X178774Y115571D01*
X181906Y115571D01*
X184801Y114372D01*
X187016Y112157D01*
X188215Y109262D01*
X188215Y93938D01*
X187016Y91043D01*
X184801Y88828D01*
X181906Y87629D01*
X178774Y87629D01*
G37*
%LPD*%
%LPC*%
G36*
X204174Y87629D02*
X204174Y87629D01*
X201279Y88828D01*
X199064Y91043D01*
X197865Y93938D01*
X197865Y109262D01*
X199064Y112157D01*
X201279Y114372D01*
X204174Y115571D01*
X207306Y115571D01*
X210201Y114372D01*
X212416Y112157D01*
X213615Y109262D01*
X213615Y93938D01*
X212416Y91043D01*
X210201Y88828D01*
X207306Y87629D01*
X204174Y87629D01*
G37*
%LPD*%
%LPC*%
G36*
X229574Y87629D02*
X229574Y87629D01*
X226679Y88828D01*
X224464Y91043D01*
X223265Y93938D01*
X223265Y109262D01*
X224464Y112157D01*
X226679Y114372D01*
X229574Y115571D01*
X232706Y115571D01*
X235601Y114372D01*
X237816Y112157D01*
X239015Y109262D01*
X239015Y93938D01*
X237816Y91043D01*
X235601Y88828D01*
X232706Y87629D01*
X229574Y87629D01*
G37*
%LPD*%
%LPC*%
G36*
X77174Y125729D02*
X77174Y125729D01*
X74279Y126928D01*
X72064Y129143D01*
X70865Y132038D01*
X70865Y147362D01*
X72064Y150257D01*
X74279Y152472D01*
X77174Y153671D01*
X80306Y153671D01*
X83201Y152472D01*
X85416Y150257D01*
X86615Y147362D01*
X86615Y132038D01*
X85416Y129143D01*
X83201Y126928D01*
X80306Y125729D01*
X77174Y125729D01*
G37*
%LPD*%
%LPC*%
G36*
X102574Y125729D02*
X102574Y125729D01*
X99679Y126928D01*
X97464Y129143D01*
X96265Y132038D01*
X96265Y147362D01*
X97464Y150257D01*
X99679Y152472D01*
X102574Y153671D01*
X105706Y153671D01*
X108601Y152472D01*
X110816Y150257D01*
X112015Y147362D01*
X112015Y132038D01*
X110816Y129143D01*
X108601Y126928D01*
X105706Y125729D01*
X102574Y125729D01*
G37*
%LPD*%
%LPC*%
G36*
X153374Y697229D02*
X153374Y697229D01*
X150479Y698428D01*
X148264Y700643D01*
X147065Y703538D01*
X147065Y718862D01*
X148264Y721757D01*
X150479Y723972D01*
X153374Y725171D01*
X156506Y725171D01*
X159401Y723972D01*
X161616Y721757D01*
X162815Y718862D01*
X162815Y703538D01*
X161616Y700643D01*
X159401Y698428D01*
X156506Y697229D01*
X153374Y697229D01*
G37*
%LPD*%
%LPC*%
G36*
X127974Y697229D02*
X127974Y697229D01*
X125079Y698428D01*
X122864Y700643D01*
X121665Y703538D01*
X121665Y718862D01*
X122864Y721757D01*
X125079Y723972D01*
X127974Y725171D01*
X131106Y725171D01*
X134001Y723972D01*
X136216Y721757D01*
X137415Y718862D01*
X137415Y703538D01*
X136216Y700643D01*
X134001Y698428D01*
X131106Y697229D01*
X127974Y697229D01*
G37*
%LPD*%
%LPC*%
G36*
X102574Y697229D02*
X102574Y697229D01*
X99679Y698428D01*
X97464Y700643D01*
X96265Y703538D01*
X96265Y718862D01*
X97464Y721757D01*
X99679Y723972D01*
X102574Y725171D01*
X105706Y725171D01*
X108601Y723972D01*
X110816Y721757D01*
X112015Y718862D01*
X112015Y703538D01*
X110816Y700643D01*
X108601Y698428D01*
X105706Y697229D01*
X102574Y697229D01*
G37*
%LPD*%
%LPC*%
G36*
X77174Y697229D02*
X77174Y697229D01*
X74279Y698428D01*
X72064Y700643D01*
X70865Y703538D01*
X70865Y718862D01*
X72064Y721757D01*
X74279Y723972D01*
X77174Y725171D01*
X80306Y725171D01*
X83201Y723972D01*
X85416Y721757D01*
X86615Y718862D01*
X86615Y703538D01*
X85416Y700643D01*
X83201Y698428D01*
X80306Y697229D01*
X77174Y697229D01*
G37*
%LPD*%
%LPC*%
G36*
X127974Y125729D02*
X127974Y125729D01*
X125079Y126928D01*
X122864Y129143D01*
X121665Y132038D01*
X121665Y147362D01*
X122864Y150257D01*
X125079Y152472D01*
X127974Y153671D01*
X131106Y153671D01*
X134001Y152472D01*
X136216Y150257D01*
X137415Y147362D01*
X137415Y132038D01*
X136216Y129143D01*
X134001Y126928D01*
X131106Y125729D01*
X127974Y125729D01*
G37*
%LPD*%
%LPC*%
G36*
X153374Y125729D02*
X153374Y125729D01*
X150479Y126928D01*
X148264Y129143D01*
X147065Y132038D01*
X147065Y147362D01*
X148264Y150257D01*
X150479Y152472D01*
X153374Y153671D01*
X156506Y153671D01*
X159401Y152472D01*
X161616Y150257D01*
X162815Y147362D01*
X162815Y132038D01*
X161616Y129143D01*
X159401Y126928D01*
X156506Y125729D01*
X153374Y125729D01*
G37*
%LPD*%
%LPC*%
G36*
X178774Y125729D02*
X178774Y125729D01*
X175879Y126928D01*
X173664Y129143D01*
X172465Y132038D01*
X172465Y147362D01*
X173664Y150257D01*
X175879Y152472D01*
X178774Y153671D01*
X181906Y153671D01*
X184801Y152472D01*
X187016Y150257D01*
X188215Y147362D01*
X188215Y132038D01*
X187016Y129143D01*
X184801Y126928D01*
X181906Y125729D01*
X178774Y125729D01*
G37*
%LPD*%
%LPC*%
G36*
X229574Y125729D02*
X229574Y125729D01*
X226679Y126928D01*
X224464Y129143D01*
X223265Y132038D01*
X223265Y147362D01*
X224464Y150257D01*
X226679Y152472D01*
X229574Y153671D01*
X232706Y153671D01*
X235601Y152472D01*
X237816Y150257D01*
X239015Y147362D01*
X239015Y132038D01*
X237816Y129143D01*
X235601Y126928D01*
X232706Y125729D01*
X229574Y125729D01*
G37*
%LPD*%
%LPC*%
G36*
X254974Y125729D02*
X254974Y125729D01*
X252079Y126928D01*
X249864Y129143D01*
X248665Y132038D01*
X248665Y147362D01*
X249864Y150257D01*
X252079Y152472D01*
X254974Y153671D01*
X258106Y153671D01*
X261001Y152472D01*
X263216Y150257D01*
X264415Y147362D01*
X264415Y132038D01*
X263216Y129143D01*
X261001Y126928D01*
X258106Y125729D01*
X254974Y125729D01*
G37*
%LPD*%
%LPC*%
G36*
X280374Y125729D02*
X280374Y125729D01*
X277479Y126928D01*
X275264Y129143D01*
X274065Y132038D01*
X274065Y147362D01*
X275264Y150257D01*
X277479Y152472D01*
X280374Y153671D01*
X283506Y153671D01*
X286401Y152472D01*
X288616Y150257D01*
X289815Y147362D01*
X289815Y132038D01*
X288616Y129143D01*
X286401Y126928D01*
X283506Y125729D01*
X280374Y125729D01*
G37*
%LPD*%
%LPC*%
G36*
X305774Y125729D02*
X305774Y125729D01*
X302879Y126928D01*
X300664Y129143D01*
X299465Y132038D01*
X299465Y147362D01*
X300664Y150257D01*
X302879Y152472D01*
X305774Y153671D01*
X308906Y153671D01*
X311801Y152472D01*
X314016Y150257D01*
X315215Y147362D01*
X315215Y132038D01*
X314016Y129143D01*
X311801Y126928D01*
X308906Y125729D01*
X305774Y125729D01*
G37*
%LPD*%
%LPC*%
G36*
X356574Y659129D02*
X356574Y659129D01*
X353679Y660328D01*
X351464Y662543D01*
X350265Y665438D01*
X350265Y680762D01*
X351464Y683657D01*
X353679Y685872D01*
X356574Y687071D01*
X359706Y687071D01*
X362601Y685872D01*
X364816Y683657D01*
X366015Y680762D01*
X366015Y665438D01*
X364816Y662543D01*
X362601Y660328D01*
X359706Y659129D01*
X356574Y659129D01*
G37*
%LPD*%
%LPC*%
G36*
X305774Y659129D02*
X305774Y659129D01*
X302879Y660328D01*
X300664Y662543D01*
X299465Y665438D01*
X299465Y680762D01*
X300664Y683657D01*
X302879Y685872D01*
X305774Y687071D01*
X308906Y687071D01*
X311801Y685872D01*
X314016Y683657D01*
X315215Y680762D01*
X315215Y665438D01*
X314016Y662543D01*
X311801Y660328D01*
X308906Y659129D01*
X305774Y659129D01*
G37*
%LPD*%
%LPC*%
G36*
X407374Y659129D02*
X407374Y659129D01*
X404479Y660328D01*
X402264Y662543D01*
X401065Y665438D01*
X401065Y680762D01*
X402264Y683657D01*
X404479Y685872D01*
X407374Y687071D01*
X410506Y687071D01*
X413401Y685872D01*
X415616Y683657D01*
X416815Y680762D01*
X416815Y665438D01*
X415616Y662543D01*
X413401Y660328D01*
X410506Y659129D01*
X407374Y659129D01*
G37*
%LPD*%
%LPC*%
G36*
X381974Y659129D02*
X381974Y659129D01*
X379079Y660328D01*
X376864Y662543D01*
X375665Y665438D01*
X375665Y680762D01*
X376864Y683657D01*
X379079Y685872D01*
X381974Y687071D01*
X385106Y687071D01*
X388001Y685872D01*
X390216Y683657D01*
X391415Y680762D01*
X391415Y665438D01*
X390216Y662543D01*
X388001Y660328D01*
X385106Y659129D01*
X381974Y659129D01*
G37*
%LPD*%
%LPC*%
G36*
X331174Y659129D02*
X331174Y659129D01*
X328279Y660328D01*
X326064Y662543D01*
X324865Y665438D01*
X324865Y680762D01*
X326064Y683657D01*
X328279Y685872D01*
X331174Y687071D01*
X334306Y687071D01*
X337201Y685872D01*
X339416Y683657D01*
X340615Y680762D01*
X340615Y665438D01*
X339416Y662543D01*
X337201Y660328D01*
X334306Y659129D01*
X331174Y659129D01*
G37*
%LPD*%
%LPC*%
G36*
X102574Y659129D02*
X102574Y659129D01*
X99679Y660328D01*
X97464Y662543D01*
X96265Y665438D01*
X96265Y680762D01*
X97464Y683657D01*
X99679Y685872D01*
X102574Y687071D01*
X105706Y687071D01*
X108601Y685872D01*
X110816Y683657D01*
X112015Y680762D01*
X112015Y665438D01*
X110816Y662543D01*
X108601Y660328D01*
X105706Y659129D01*
X102574Y659129D01*
G37*
%LPD*%
%LPC*%
G36*
X280374Y659129D02*
X280374Y659129D01*
X277479Y660328D01*
X275264Y662543D01*
X274065Y665438D01*
X274065Y680762D01*
X275264Y683657D01*
X277479Y685872D01*
X280374Y687071D01*
X283506Y687071D01*
X286401Y685872D01*
X288616Y683657D01*
X289815Y680762D01*
X289815Y665438D01*
X288616Y662543D01*
X286401Y660328D01*
X283506Y659129D01*
X280374Y659129D01*
G37*
%LPD*%
%LPC*%
G36*
X153374Y659129D02*
X153374Y659129D01*
X150479Y660328D01*
X148264Y662543D01*
X147065Y665438D01*
X147065Y680762D01*
X148264Y683657D01*
X150479Y685872D01*
X153374Y687071D01*
X156506Y687071D01*
X159401Y685872D01*
X161616Y683657D01*
X162815Y680762D01*
X162815Y665438D01*
X161616Y662543D01*
X159401Y660328D01*
X156506Y659129D01*
X153374Y659129D01*
G37*
%LPD*%
%LPC*%
G36*
X127974Y659129D02*
X127974Y659129D01*
X125079Y660328D01*
X122864Y662543D01*
X121665Y665438D01*
X121665Y680762D01*
X122864Y683657D01*
X125079Y685872D01*
X127974Y687071D01*
X131106Y687071D01*
X134001Y685872D01*
X136216Y683657D01*
X137415Y680762D01*
X137415Y665438D01*
X136216Y662543D01*
X134001Y660328D01*
X131106Y659129D01*
X127974Y659129D01*
G37*
%LPD*%
%LPC*%
G36*
X331174Y125729D02*
X331174Y125729D01*
X328279Y126928D01*
X326064Y129143D01*
X324865Y132038D01*
X324865Y147362D01*
X326064Y150257D01*
X328279Y152472D01*
X331174Y153671D01*
X334306Y153671D01*
X337201Y152472D01*
X339416Y150257D01*
X340615Y147362D01*
X340615Y132038D01*
X339416Y129143D01*
X337201Y126928D01*
X334306Y125729D01*
X331174Y125729D01*
G37*
%LPD*%
%LPC*%
G36*
X356574Y125729D02*
X356574Y125729D01*
X353679Y126928D01*
X351464Y129143D01*
X350265Y132038D01*
X350265Y147362D01*
X351464Y150257D01*
X353679Y152472D01*
X356574Y153671D01*
X359706Y153671D01*
X362601Y152472D01*
X364816Y150257D01*
X366015Y147362D01*
X366015Y132038D01*
X364816Y129143D01*
X362601Y126928D01*
X359706Y125729D01*
X356574Y125729D01*
G37*
%LPD*%
%LPC*%
G36*
X381974Y125729D02*
X381974Y125729D01*
X379079Y126928D01*
X376864Y129143D01*
X375665Y132038D01*
X375665Y147362D01*
X376864Y150257D01*
X379079Y152472D01*
X381974Y153671D01*
X385106Y153671D01*
X388001Y152472D01*
X390216Y150257D01*
X391415Y147362D01*
X391415Y132038D01*
X390216Y129143D01*
X388001Y126928D01*
X385106Y125729D01*
X381974Y125729D01*
G37*
%LPD*%
%LPC*%
G36*
X407374Y125729D02*
X407374Y125729D01*
X404479Y126928D01*
X402264Y129143D01*
X401065Y132038D01*
X401065Y147362D01*
X402264Y150257D01*
X404479Y152472D01*
X407374Y153671D01*
X410506Y153671D01*
X413401Y152472D01*
X415616Y150257D01*
X416815Y147362D01*
X416815Y132038D01*
X415616Y129143D01*
X413401Y126928D01*
X410506Y125729D01*
X407374Y125729D01*
G37*
%LPD*%
%LPC*%
G36*
X204174Y125729D02*
X204174Y125729D01*
X201279Y126928D01*
X199064Y129143D01*
X197865Y132038D01*
X197865Y147362D01*
X199064Y150257D01*
X201279Y152472D01*
X204174Y153671D01*
X207306Y153671D01*
X210201Y152472D01*
X212416Y150257D01*
X213615Y147362D01*
X213615Y132038D01*
X212416Y129143D01*
X210201Y126928D01*
X207306Y125729D01*
X204174Y125729D01*
G37*
%LPD*%
%LPC*%
G36*
X51774Y214629D02*
X51774Y214629D01*
X48879Y215828D01*
X46664Y218043D01*
X45465Y220938D01*
X45465Y236262D01*
X46664Y239157D01*
X48879Y241372D01*
X51774Y242571D01*
X54906Y242571D01*
X57801Y241372D01*
X60016Y239157D01*
X61215Y236262D01*
X61215Y220938D01*
X60016Y218043D01*
X57801Y215828D01*
X54906Y214629D01*
X51774Y214629D01*
G37*
%LPD*%
%LPC*%
G36*
X77174Y214629D02*
X77174Y214629D01*
X74279Y215828D01*
X72064Y218043D01*
X70865Y220938D01*
X70865Y236262D01*
X72064Y239157D01*
X74279Y241372D01*
X77174Y242571D01*
X80306Y242571D01*
X83201Y241372D01*
X85416Y239157D01*
X86615Y236262D01*
X86615Y220938D01*
X85416Y218043D01*
X83201Y215828D01*
X80306Y214629D01*
X77174Y214629D01*
G37*
%LPD*%
%LPC*%
G36*
X102574Y214629D02*
X102574Y214629D01*
X99679Y215828D01*
X97464Y218043D01*
X96265Y220938D01*
X96265Y236262D01*
X97464Y239157D01*
X99679Y241372D01*
X102574Y242571D01*
X105706Y242571D01*
X108601Y241372D01*
X110816Y239157D01*
X112015Y236262D01*
X112015Y220938D01*
X110816Y218043D01*
X108601Y215828D01*
X105706Y214629D01*
X102574Y214629D01*
G37*
%LPD*%
%LPC*%
G36*
X127974Y214629D02*
X127974Y214629D01*
X125079Y215828D01*
X122864Y218043D01*
X121665Y220938D01*
X121665Y236262D01*
X122864Y239157D01*
X125079Y241372D01*
X127974Y242571D01*
X131106Y242571D01*
X134001Y241372D01*
X136216Y239157D01*
X137415Y236262D01*
X137415Y220938D01*
X136216Y218043D01*
X134001Y215828D01*
X131106Y214629D01*
X127974Y214629D01*
G37*
%LPD*%
%LPC*%
G36*
X153374Y214629D02*
X153374Y214629D01*
X150479Y215828D01*
X148264Y218043D01*
X147065Y220938D01*
X147065Y236262D01*
X148264Y239157D01*
X150479Y241372D01*
X153374Y242571D01*
X156506Y242571D01*
X159401Y241372D01*
X161616Y239157D01*
X162815Y236262D01*
X162815Y220938D01*
X161616Y218043D01*
X159401Y215828D01*
X156506Y214629D01*
X153374Y214629D01*
G37*
%LPD*%
%LPC*%
G36*
X178774Y214629D02*
X178774Y214629D01*
X175879Y215828D01*
X173664Y218043D01*
X172465Y220938D01*
X172465Y236262D01*
X173664Y239157D01*
X175879Y241372D01*
X178774Y242571D01*
X181906Y242571D01*
X184801Y241372D01*
X187016Y239157D01*
X188215Y236262D01*
X188215Y220938D01*
X187016Y218043D01*
X184801Y215828D01*
X181906Y214629D01*
X178774Y214629D01*
G37*
%LPD*%
%LPC*%
G36*
X51774Y557529D02*
X51774Y557529D01*
X48879Y558728D01*
X46664Y560943D01*
X45465Y563838D01*
X45465Y579162D01*
X46664Y582057D01*
X48879Y584272D01*
X51774Y585471D01*
X54906Y585471D01*
X57801Y584272D01*
X60016Y582057D01*
X61215Y579162D01*
X61215Y563838D01*
X60016Y560943D01*
X57801Y558728D01*
X54906Y557529D01*
X51774Y557529D01*
G37*
%LPD*%
%LPC*%
G36*
X102574Y557529D02*
X102574Y557529D01*
X99679Y558728D01*
X97464Y560943D01*
X96265Y563838D01*
X96265Y579162D01*
X97464Y582057D01*
X99679Y584272D01*
X102574Y585471D01*
X105706Y585471D01*
X108601Y584272D01*
X110816Y582057D01*
X112015Y579162D01*
X112015Y563838D01*
X110816Y560943D01*
X108601Y558728D01*
X105706Y557529D01*
X102574Y557529D01*
G37*
%LPD*%
%LPC*%
G36*
X127974Y557529D02*
X127974Y557529D01*
X125079Y558728D01*
X122864Y560943D01*
X121665Y563838D01*
X121665Y579162D01*
X122864Y582057D01*
X125079Y584272D01*
X127974Y585471D01*
X131106Y585471D01*
X134001Y584272D01*
X136216Y582057D01*
X137415Y579162D01*
X137415Y563838D01*
X136216Y560943D01*
X134001Y558728D01*
X131106Y557529D01*
X127974Y557529D01*
G37*
%LPD*%
%LPC*%
G36*
X77174Y557529D02*
X77174Y557529D01*
X74279Y558728D01*
X72064Y560943D01*
X70865Y563838D01*
X70865Y579162D01*
X72064Y582057D01*
X74279Y584272D01*
X77174Y585471D01*
X80306Y585471D01*
X83201Y584272D01*
X85416Y582057D01*
X86615Y579162D01*
X86615Y563838D01*
X85416Y560943D01*
X83201Y558728D01*
X80306Y557529D01*
X77174Y557529D01*
G37*
%LPD*%
%LPC*%
G36*
X229574Y214629D02*
X229574Y214629D01*
X226679Y215828D01*
X224464Y218043D01*
X223265Y220938D01*
X223265Y236262D01*
X224464Y239157D01*
X226679Y241372D01*
X229574Y242571D01*
X232706Y242571D01*
X235601Y241372D01*
X237816Y239157D01*
X239015Y236262D01*
X239015Y220938D01*
X237816Y218043D01*
X235601Y215828D01*
X232706Y214629D01*
X229574Y214629D01*
G37*
%LPD*%
%LPC*%
G36*
X254974Y214629D02*
X254974Y214629D01*
X252079Y215828D01*
X249864Y218043D01*
X248665Y220938D01*
X248665Y236262D01*
X249864Y239157D01*
X252079Y241372D01*
X254974Y242571D01*
X258106Y242571D01*
X261001Y241372D01*
X263216Y239157D01*
X264415Y236262D01*
X264415Y220938D01*
X263216Y218043D01*
X261001Y215828D01*
X258106Y214629D01*
X254974Y214629D01*
G37*
%LPD*%
%LPC*%
G36*
X77174Y506729D02*
X77174Y506729D01*
X74279Y507928D01*
X72064Y510143D01*
X70865Y513038D01*
X70865Y528362D01*
X72064Y531257D01*
X74279Y533472D01*
X77174Y534671D01*
X80306Y534671D01*
X83201Y533472D01*
X85416Y531257D01*
X86615Y528362D01*
X86615Y513038D01*
X85416Y510143D01*
X83201Y507928D01*
X80306Y506729D01*
X77174Y506729D01*
G37*
%LPD*%
%LPC*%
G36*
X153374Y506729D02*
X153374Y506729D01*
X150479Y507928D01*
X148264Y510143D01*
X147065Y513038D01*
X147065Y528362D01*
X148264Y531257D01*
X150479Y533472D01*
X153374Y534671D01*
X156506Y534671D01*
X159401Y533472D01*
X161616Y531257D01*
X162815Y528362D01*
X162815Y513038D01*
X161616Y510143D01*
X159401Y507928D01*
X156506Y506729D01*
X153374Y506729D01*
G37*
%LPD*%
%LPC*%
G36*
X127974Y506729D02*
X127974Y506729D01*
X125079Y507928D01*
X122864Y510143D01*
X121665Y513038D01*
X121665Y528362D01*
X122864Y531257D01*
X125079Y533472D01*
X127974Y534671D01*
X131106Y534671D01*
X134001Y533472D01*
X136216Y531257D01*
X137415Y528362D01*
X137415Y513038D01*
X136216Y510143D01*
X134001Y507928D01*
X131106Y506729D01*
X127974Y506729D01*
G37*
%LPD*%
%LPC*%
G36*
X102574Y506729D02*
X102574Y506729D01*
X99679Y507928D01*
X97464Y510143D01*
X96265Y513038D01*
X96265Y528362D01*
X97464Y531257D01*
X99679Y533472D01*
X102574Y534671D01*
X105706Y534671D01*
X108601Y533472D01*
X110816Y531257D01*
X112015Y528362D01*
X112015Y513038D01*
X110816Y510143D01*
X108601Y507928D01*
X105706Y506729D01*
X102574Y506729D01*
G37*
%LPD*%
%LPC*%
G36*
X280374Y214629D02*
X280374Y214629D01*
X277479Y215828D01*
X275264Y218043D01*
X274065Y220938D01*
X274065Y236262D01*
X275264Y239157D01*
X277479Y241372D01*
X280374Y242571D01*
X283506Y242571D01*
X286401Y241372D01*
X288616Y239157D01*
X289815Y236262D01*
X289815Y220938D01*
X288616Y218043D01*
X286401Y215828D01*
X283506Y214629D01*
X280374Y214629D01*
G37*
%LPD*%
%LPC*%
G36*
X305774Y214629D02*
X305774Y214629D01*
X302879Y215828D01*
X300664Y218043D01*
X299465Y220938D01*
X299465Y236262D01*
X300664Y239157D01*
X302879Y241372D01*
X305774Y242571D01*
X308906Y242571D01*
X311801Y241372D01*
X314016Y239157D01*
X315215Y236262D01*
X315215Y220938D01*
X314016Y218043D01*
X311801Y215828D01*
X308906Y214629D01*
X305774Y214629D01*
G37*
%LPD*%
%LPC*%
G36*
X102574Y468629D02*
X102574Y468629D01*
X99679Y469828D01*
X97464Y472043D01*
X96265Y474938D01*
X96265Y490262D01*
X97464Y493157D01*
X99679Y495372D01*
X102574Y496571D01*
X105706Y496571D01*
X108601Y495372D01*
X110816Y493157D01*
X112015Y490262D01*
X112015Y474938D01*
X110816Y472043D01*
X108601Y469828D01*
X105706Y468629D01*
X102574Y468629D01*
G37*
%LPD*%
%LPC*%
G36*
X127974Y468629D02*
X127974Y468629D01*
X125079Y469828D01*
X122864Y472043D01*
X121665Y474938D01*
X121665Y490262D01*
X122864Y493157D01*
X125079Y495372D01*
X127974Y496571D01*
X131106Y496571D01*
X134001Y495372D01*
X136216Y493157D01*
X137415Y490262D01*
X137415Y474938D01*
X136216Y472043D01*
X134001Y469828D01*
X131106Y468629D01*
X127974Y468629D01*
G37*
%LPD*%
%LPC*%
G36*
X153374Y468629D02*
X153374Y468629D01*
X150479Y469828D01*
X148264Y472043D01*
X147065Y474938D01*
X147065Y490262D01*
X148264Y493157D01*
X150479Y495372D01*
X153374Y496571D01*
X156506Y496571D01*
X159401Y495372D01*
X161616Y493157D01*
X162815Y490262D01*
X162815Y474938D01*
X161616Y472043D01*
X159401Y469828D01*
X156506Y468629D01*
X153374Y468629D01*
G37*
%LPD*%
%LPC*%
G36*
X331174Y214629D02*
X331174Y214629D01*
X328279Y215828D01*
X326064Y218043D01*
X324865Y220938D01*
X324865Y236262D01*
X326064Y239157D01*
X328279Y241372D01*
X331174Y242571D01*
X334306Y242571D01*
X337201Y241372D01*
X339416Y239157D01*
X340615Y236262D01*
X340615Y220938D01*
X339416Y218043D01*
X337201Y215828D01*
X334306Y214629D01*
X331174Y214629D01*
G37*
%LPD*%
%LPC*%
G36*
X381974Y214629D02*
X381974Y214629D01*
X379079Y215828D01*
X376864Y218043D01*
X375665Y220938D01*
X375665Y236262D01*
X376864Y239157D01*
X379079Y241372D01*
X381974Y242571D01*
X385106Y242571D01*
X388001Y241372D01*
X390216Y239157D01*
X391415Y236262D01*
X391415Y220938D01*
X390216Y218043D01*
X388001Y215828D01*
X385106Y214629D01*
X381974Y214629D01*
G37*
%LPD*%
%LPC*%
G36*
X153374Y405129D02*
X153374Y405129D01*
X150479Y406328D01*
X148264Y408543D01*
X147065Y411438D01*
X147065Y426762D01*
X148264Y429657D01*
X150479Y431872D01*
X153374Y433071D01*
X156506Y433071D01*
X159401Y431872D01*
X161616Y429657D01*
X162815Y426762D01*
X162815Y411438D01*
X161616Y408543D01*
X159401Y406328D01*
X156506Y405129D01*
X153374Y405129D01*
G37*
%LPD*%
%LPC*%
G36*
X127974Y405129D02*
X127974Y405129D01*
X125079Y406328D01*
X122864Y408543D01*
X121665Y411438D01*
X121665Y426762D01*
X122864Y429657D01*
X125079Y431872D01*
X127974Y433071D01*
X131106Y433071D01*
X134001Y431872D01*
X136216Y429657D01*
X137415Y426762D01*
X137415Y411438D01*
X136216Y408543D01*
X134001Y406328D01*
X131106Y405129D01*
X127974Y405129D01*
G37*
%LPD*%
%LPC*%
G36*
X102574Y405129D02*
X102574Y405129D01*
X99679Y406328D01*
X97464Y408543D01*
X96265Y411438D01*
X96265Y426762D01*
X97464Y429657D01*
X99679Y431872D01*
X102574Y433071D01*
X105706Y433071D01*
X108601Y431872D01*
X110816Y429657D01*
X112015Y426762D01*
X112015Y411438D01*
X110816Y408543D01*
X108601Y406328D01*
X105706Y405129D01*
X102574Y405129D01*
G37*
%LPD*%
%LPC*%
G36*
X51774Y405129D02*
X51774Y405129D01*
X48879Y406328D01*
X46664Y408543D01*
X45465Y411438D01*
X45465Y426762D01*
X46664Y429657D01*
X48879Y431872D01*
X51774Y433071D01*
X54906Y433071D01*
X57801Y431872D01*
X60016Y429657D01*
X61215Y426762D01*
X61215Y411438D01*
X60016Y408543D01*
X57801Y406328D01*
X54906Y405129D01*
X51774Y405129D01*
G37*
%LPD*%
%LPC*%
G36*
X26374Y405129D02*
X26374Y405129D01*
X23479Y406328D01*
X21264Y408543D01*
X20065Y411438D01*
X20065Y426762D01*
X21264Y429657D01*
X23479Y431872D01*
X26374Y433071D01*
X29506Y433071D01*
X32401Y431872D01*
X34616Y429657D01*
X35815Y426762D01*
X35815Y411438D01*
X34616Y408543D01*
X32401Y406328D01*
X29506Y405129D01*
X26374Y405129D01*
G37*
%LPD*%
%LPC*%
G36*
X77174Y405129D02*
X77174Y405129D01*
X74279Y406328D01*
X72064Y408543D01*
X70865Y411438D01*
X70865Y426762D01*
X72064Y429657D01*
X74279Y431872D01*
X77174Y433071D01*
X80306Y433071D01*
X83201Y431872D01*
X85416Y429657D01*
X86615Y426762D01*
X86615Y411438D01*
X85416Y408543D01*
X83201Y406328D01*
X80306Y405129D01*
X77174Y405129D01*
G37*
%LPD*%
%LPC*%
G36*
X407374Y214629D02*
X407374Y214629D01*
X404479Y215828D01*
X402264Y218043D01*
X401065Y220938D01*
X401065Y236262D01*
X402264Y239157D01*
X404479Y241372D01*
X407374Y242571D01*
X410506Y242571D01*
X413401Y241372D01*
X415616Y239157D01*
X416815Y236262D01*
X416815Y220938D01*
X415616Y218043D01*
X413401Y215828D01*
X410506Y214629D01*
X407374Y214629D01*
G37*
%LPD*%
%LPC*%
G36*
X356574Y214629D02*
X356574Y214629D01*
X353679Y215828D01*
X351464Y218043D01*
X350265Y220938D01*
X350265Y236262D01*
X351464Y239157D01*
X353679Y241372D01*
X356574Y242571D01*
X359706Y242571D01*
X362601Y241372D01*
X364816Y239157D01*
X366015Y236262D01*
X366015Y220938D01*
X364816Y218043D01*
X362601Y215828D01*
X359706Y214629D01*
X356574Y214629D01*
G37*
%LPD*%
%LPC*%
G36*
X127974Y367029D02*
X127974Y367029D01*
X125079Y368228D01*
X122864Y370443D01*
X121665Y373338D01*
X121665Y388662D01*
X122864Y391557D01*
X125079Y393772D01*
X127974Y394971D01*
X131106Y394971D01*
X134001Y393772D01*
X136216Y391557D01*
X137415Y388662D01*
X137415Y373338D01*
X136216Y370443D01*
X134001Y368228D01*
X131106Y367029D01*
X127974Y367029D01*
G37*
%LPD*%
%LPC*%
G36*
X51774Y367029D02*
X51774Y367029D01*
X48879Y368228D01*
X46664Y370443D01*
X45465Y373338D01*
X45465Y388662D01*
X46664Y391557D01*
X48879Y393772D01*
X51774Y394971D01*
X54906Y394971D01*
X57801Y393772D01*
X60016Y391557D01*
X61215Y388662D01*
X61215Y373338D01*
X60016Y370443D01*
X57801Y368228D01*
X54906Y367029D01*
X51774Y367029D01*
G37*
%LPD*%
%LPC*%
G36*
X26374Y214629D02*
X26374Y214629D01*
X23479Y215828D01*
X21264Y218043D01*
X20065Y220938D01*
X20065Y236262D01*
X21264Y239157D01*
X23479Y241372D01*
X26374Y242571D01*
X29506Y242571D01*
X32401Y241372D01*
X34616Y239157D01*
X35815Y236262D01*
X35815Y220938D01*
X34616Y218043D01*
X32401Y215828D01*
X29506Y214629D01*
X26374Y214629D01*
G37*
%LPD*%
%LPC*%
G36*
X102574Y367029D02*
X102574Y367029D01*
X99679Y368228D01*
X97464Y370443D01*
X96265Y373338D01*
X96265Y388662D01*
X97464Y391557D01*
X99679Y393772D01*
X102574Y394971D01*
X105706Y394971D01*
X108601Y393772D01*
X110816Y391557D01*
X112015Y388662D01*
X112015Y373338D01*
X110816Y370443D01*
X108601Y368228D01*
X105706Y367029D01*
X102574Y367029D01*
G37*
%LPD*%
%LPC*%
G36*
X102574Y278129D02*
X102574Y278129D01*
X99679Y279328D01*
X97464Y281543D01*
X96265Y284438D01*
X96265Y299762D01*
X97464Y302657D01*
X99679Y304872D01*
X102574Y306071D01*
X105706Y306071D01*
X108601Y304872D01*
X110816Y302657D01*
X112015Y299762D01*
X112015Y284438D01*
X110816Y281543D01*
X108601Y279328D01*
X105706Y278129D01*
X102574Y278129D01*
G37*
%LPD*%
%LPC*%
G36*
X127974Y278129D02*
X127974Y278129D01*
X125079Y279328D01*
X122864Y281543D01*
X121665Y284438D01*
X121665Y299762D01*
X122864Y302657D01*
X125079Y304872D01*
X127974Y306071D01*
X131106Y306071D01*
X134001Y304872D01*
X136216Y302657D01*
X137415Y299762D01*
X137415Y284438D01*
X136216Y281543D01*
X134001Y279328D01*
X131106Y278129D01*
X127974Y278129D01*
G37*
%LPD*%
%LPC*%
G36*
X153374Y316229D02*
X153374Y316229D01*
X150479Y317428D01*
X148264Y319643D01*
X147065Y322538D01*
X147065Y337862D01*
X148264Y340757D01*
X150479Y342972D01*
X153374Y344171D01*
X156506Y344171D01*
X159401Y342972D01*
X161616Y340757D01*
X162815Y337862D01*
X162815Y322538D01*
X161616Y319643D01*
X159401Y317428D01*
X156506Y316229D01*
X153374Y316229D01*
G37*
%LPD*%
%LPC*%
G36*
X407374Y316229D02*
X407374Y316229D01*
X404479Y317428D01*
X402264Y319643D01*
X401065Y322538D01*
X401065Y337862D01*
X402264Y340757D01*
X404479Y342972D01*
X407374Y344171D01*
X410506Y344171D01*
X413401Y342972D01*
X415616Y340757D01*
X416815Y337862D01*
X416815Y322538D01*
X415616Y319643D01*
X413401Y317428D01*
X410506Y316229D01*
X407374Y316229D01*
G37*
%LPD*%
%LPC*%
G36*
X381974Y316229D02*
X381974Y316229D01*
X379079Y317428D01*
X376864Y319643D01*
X375665Y322538D01*
X375665Y337862D01*
X376864Y340757D01*
X379079Y342972D01*
X381974Y344171D01*
X385106Y344171D01*
X388001Y342972D01*
X390216Y340757D01*
X391415Y337862D01*
X391415Y322538D01*
X390216Y319643D01*
X388001Y317428D01*
X385106Y316229D01*
X381974Y316229D01*
G37*
%LPD*%
%LPC*%
G36*
X356574Y316229D02*
X356574Y316229D01*
X353679Y317428D01*
X351464Y319643D01*
X350265Y322538D01*
X350265Y337862D01*
X351464Y340757D01*
X353679Y342972D01*
X356574Y344171D01*
X359706Y344171D01*
X362601Y342972D01*
X364816Y340757D01*
X366015Y337862D01*
X366015Y322538D01*
X364816Y319643D01*
X362601Y317428D01*
X359706Y316229D01*
X356574Y316229D01*
G37*
%LPD*%
%LPC*%
G36*
X331174Y316229D02*
X331174Y316229D01*
X328279Y317428D01*
X326064Y319643D01*
X324865Y322538D01*
X324865Y337862D01*
X326064Y340757D01*
X328279Y342972D01*
X331174Y344171D01*
X334306Y344171D01*
X337201Y342972D01*
X339416Y340757D01*
X340615Y337862D01*
X340615Y322538D01*
X339416Y319643D01*
X337201Y317428D01*
X334306Y316229D01*
X331174Y316229D01*
G37*
%LPD*%
%LPC*%
G36*
X305774Y316229D02*
X305774Y316229D01*
X302879Y317428D01*
X300664Y319643D01*
X299465Y322538D01*
X299465Y337862D01*
X300664Y340757D01*
X302879Y342972D01*
X305774Y344171D01*
X308906Y344171D01*
X311801Y342972D01*
X314016Y340757D01*
X315215Y337862D01*
X315215Y322538D01*
X314016Y319643D01*
X311801Y317428D01*
X308906Y316229D01*
X305774Y316229D01*
G37*
%LPD*%
%LPC*%
G36*
X280374Y316229D02*
X280374Y316229D01*
X277479Y317428D01*
X275264Y319643D01*
X274065Y322538D01*
X274065Y337862D01*
X275264Y340757D01*
X277479Y342972D01*
X280374Y344171D01*
X283506Y344171D01*
X286401Y342972D01*
X288616Y340757D01*
X289815Y337862D01*
X289815Y322538D01*
X288616Y319643D01*
X286401Y317428D01*
X283506Y316229D01*
X280374Y316229D01*
G37*
%LPD*%
%LPC*%
G36*
X254974Y316229D02*
X254974Y316229D01*
X252079Y317428D01*
X249864Y319643D01*
X248665Y322538D01*
X248665Y337862D01*
X249864Y340757D01*
X252079Y342972D01*
X254974Y344171D01*
X258106Y344171D01*
X261001Y342972D01*
X263216Y340757D01*
X264415Y337862D01*
X264415Y322538D01*
X263216Y319643D01*
X261001Y317428D01*
X258106Y316229D01*
X254974Y316229D01*
G37*
%LPD*%
%LPC*%
G36*
X229574Y316229D02*
X229574Y316229D01*
X226679Y317428D01*
X224464Y319643D01*
X223265Y322538D01*
X223265Y337862D01*
X224464Y340757D01*
X226679Y342972D01*
X229574Y344171D01*
X232706Y344171D01*
X235601Y342972D01*
X237816Y340757D01*
X239015Y337862D01*
X239015Y322538D01*
X237816Y319643D01*
X235601Y317428D01*
X232706Y316229D01*
X229574Y316229D01*
G37*
%LPD*%
%LPC*%
G36*
X204174Y316229D02*
X204174Y316229D01*
X201279Y317428D01*
X199064Y319643D01*
X197865Y322538D01*
X197865Y337862D01*
X199064Y340757D01*
X201279Y342972D01*
X204174Y344171D01*
X207306Y344171D01*
X210201Y342972D01*
X212416Y340757D01*
X213615Y337862D01*
X213615Y322538D01*
X212416Y319643D01*
X210201Y317428D01*
X207306Y316229D01*
X204174Y316229D01*
G37*
%LPD*%
%LPC*%
G36*
X178774Y316229D02*
X178774Y316229D01*
X175879Y317428D01*
X173664Y319643D01*
X172465Y322538D01*
X172465Y337862D01*
X173664Y340757D01*
X175879Y342972D01*
X178774Y344171D01*
X181906Y344171D01*
X184801Y342972D01*
X187016Y340757D01*
X188215Y337862D01*
X188215Y322538D01*
X187016Y319643D01*
X184801Y317428D01*
X181906Y316229D01*
X178774Y316229D01*
G37*
%LPD*%
%LPC*%
G36*
X127974Y316229D02*
X127974Y316229D01*
X125079Y317428D01*
X122864Y319643D01*
X121665Y322538D01*
X121665Y337862D01*
X122864Y340757D01*
X125079Y342972D01*
X127974Y344171D01*
X131106Y344171D01*
X134001Y342972D01*
X136216Y340757D01*
X137415Y337862D01*
X137415Y322538D01*
X136216Y319643D01*
X134001Y317428D01*
X131106Y316229D01*
X127974Y316229D01*
G37*
%LPD*%
%LPC*%
G36*
X102574Y316229D02*
X102574Y316229D01*
X99679Y317428D01*
X97464Y319643D01*
X96265Y322538D01*
X96265Y337862D01*
X97464Y340757D01*
X99679Y342972D01*
X102574Y344171D01*
X105706Y344171D01*
X108601Y342972D01*
X110816Y340757D01*
X112015Y337862D01*
X112015Y322538D01*
X110816Y319643D01*
X108601Y317428D01*
X105706Y316229D01*
X102574Y316229D01*
G37*
%LPD*%
%LPC*%
G36*
X77174Y316229D02*
X77174Y316229D01*
X74279Y317428D01*
X72064Y319643D01*
X70865Y322538D01*
X70865Y337862D01*
X72064Y340757D01*
X74279Y342972D01*
X77174Y344171D01*
X80306Y344171D01*
X83201Y342972D01*
X85416Y340757D01*
X86615Y337862D01*
X86615Y322538D01*
X85416Y319643D01*
X83201Y317428D01*
X80306Y316229D01*
X77174Y316229D01*
G37*
%LPD*%
%LPC*%
G36*
X153374Y278129D02*
X153374Y278129D01*
X150479Y279328D01*
X148264Y281543D01*
X147065Y284438D01*
X147065Y299762D01*
X148264Y302657D01*
X150479Y304872D01*
X153374Y306071D01*
X156506Y306071D01*
X159401Y304872D01*
X161616Y302657D01*
X162815Y299762D01*
X162815Y284438D01*
X161616Y281543D01*
X159401Y279328D01*
X156506Y278129D01*
X153374Y278129D01*
G37*
%LPD*%
%LPC*%
G36*
X178774Y278129D02*
X178774Y278129D01*
X175879Y279328D01*
X173664Y281543D01*
X172465Y284438D01*
X172465Y299762D01*
X173664Y302657D01*
X175879Y304872D01*
X178774Y306071D01*
X181906Y306071D01*
X184801Y304872D01*
X187016Y302657D01*
X188215Y299762D01*
X188215Y284438D01*
X187016Y281543D01*
X184801Y279328D01*
X181906Y278129D01*
X178774Y278129D01*
G37*
%LPD*%
%LPC*%
G36*
X204174Y278129D02*
X204174Y278129D01*
X201279Y279328D01*
X199064Y281543D01*
X197865Y284438D01*
X197865Y299762D01*
X199064Y302657D01*
X201279Y304872D01*
X204174Y306071D01*
X207306Y306071D01*
X210201Y304872D01*
X212416Y302657D01*
X213615Y299762D01*
X213615Y284438D01*
X212416Y281543D01*
X210201Y279328D01*
X207306Y278129D01*
X204174Y278129D01*
G37*
%LPD*%
%LPC*%
G36*
X407374Y278129D02*
X407374Y278129D01*
X404479Y279328D01*
X402264Y281543D01*
X401065Y284438D01*
X401065Y299762D01*
X402264Y302657D01*
X404479Y304872D01*
X407374Y306071D01*
X410506Y306071D01*
X413401Y304872D01*
X415616Y302657D01*
X416815Y299762D01*
X416815Y284438D01*
X415616Y281543D01*
X413401Y279328D01*
X410506Y278129D01*
X407374Y278129D01*
G37*
%LPD*%
%LPC*%
G36*
X381974Y278129D02*
X381974Y278129D01*
X379079Y279328D01*
X376864Y281543D01*
X375665Y284438D01*
X375665Y299762D01*
X376864Y302657D01*
X379079Y304872D01*
X381974Y306071D01*
X385106Y306071D01*
X388001Y304872D01*
X390216Y302657D01*
X391415Y299762D01*
X391415Y284438D01*
X390216Y281543D01*
X388001Y279328D01*
X385106Y278129D01*
X381974Y278129D01*
G37*
%LPD*%
%LPC*%
G36*
X356574Y278129D02*
X356574Y278129D01*
X353679Y279328D01*
X351464Y281543D01*
X350265Y284438D01*
X350265Y299762D01*
X351464Y302657D01*
X353679Y304872D01*
X356574Y306071D01*
X359706Y306071D01*
X362601Y304872D01*
X364816Y302657D01*
X366015Y299762D01*
X366015Y284438D01*
X364816Y281543D01*
X362601Y279328D01*
X359706Y278129D01*
X356574Y278129D01*
G37*
%LPD*%
%LPC*%
G36*
X331174Y278129D02*
X331174Y278129D01*
X328279Y279328D01*
X326064Y281543D01*
X324865Y284438D01*
X324865Y299762D01*
X326064Y302657D01*
X328279Y304872D01*
X331174Y306071D01*
X334306Y306071D01*
X337201Y304872D01*
X339416Y302657D01*
X340615Y299762D01*
X340615Y284438D01*
X339416Y281543D01*
X337201Y279328D01*
X334306Y278129D01*
X331174Y278129D01*
G37*
%LPD*%
%LPC*%
G36*
X305774Y278129D02*
X305774Y278129D01*
X302879Y279328D01*
X300664Y281543D01*
X299465Y284438D01*
X299465Y299762D01*
X300664Y302657D01*
X302879Y304872D01*
X305774Y306071D01*
X308906Y306071D01*
X311801Y304872D01*
X314016Y302657D01*
X315215Y299762D01*
X315215Y284438D01*
X314016Y281543D01*
X311801Y279328D01*
X308906Y278129D01*
X305774Y278129D01*
G37*
%LPD*%
%LPC*%
G36*
X280374Y278129D02*
X280374Y278129D01*
X277479Y279328D01*
X275264Y281543D01*
X274065Y284438D01*
X274065Y299762D01*
X275264Y302657D01*
X277479Y304872D01*
X280374Y306071D01*
X283506Y306071D01*
X286401Y304872D01*
X288616Y302657D01*
X289815Y299762D01*
X289815Y284438D01*
X288616Y281543D01*
X286401Y279328D01*
X283506Y278129D01*
X280374Y278129D01*
G37*
%LPD*%
%LPC*%
G36*
X254974Y278129D02*
X254974Y278129D01*
X252079Y279328D01*
X249864Y281543D01*
X248665Y284438D01*
X248665Y299762D01*
X249864Y302657D01*
X252079Y304872D01*
X254974Y306071D01*
X258106Y306071D01*
X261001Y304872D01*
X263216Y302657D01*
X264415Y299762D01*
X264415Y284438D01*
X263216Y281543D01*
X261001Y279328D01*
X258106Y278129D01*
X254974Y278129D01*
G37*
%LPD*%
%LPC*%
G36*
X229574Y278129D02*
X229574Y278129D01*
X226679Y279328D01*
X224464Y281543D01*
X223265Y284438D01*
X223265Y299762D01*
X224464Y302657D01*
X226679Y304872D01*
X229574Y306071D01*
X232706Y306071D01*
X235601Y304872D01*
X237816Y302657D01*
X239015Y299762D01*
X239015Y284438D01*
X237816Y281543D01*
X235601Y279328D01*
X232706Y278129D01*
X229574Y278129D01*
G37*
%LPD*%
%LPC*%
G36*
X103135Y604547D02*
X103135Y604547D01*
X101278Y605317D01*
X99857Y606738D01*
X99087Y608595D01*
X99087Y610605D01*
X99857Y612462D01*
X101278Y613883D01*
X103135Y614653D01*
X105145Y614653D01*
X107002Y613883D01*
X107725Y613160D01*
X107812Y613086D01*
X107893Y613005D01*
X108000Y612927D01*
X108101Y612841D01*
X108199Y612782D01*
X108291Y612715D01*
X108410Y612655D01*
X108524Y612586D01*
X108630Y612544D01*
X108732Y612492D01*
X108859Y612452D01*
X108982Y612403D01*
X109093Y612378D01*
X109202Y612344D01*
X109296Y612334D01*
X109464Y612296D01*
X109788Y612278D01*
X109880Y612268D01*
X144120Y612268D01*
X144234Y612277D01*
X144348Y612276D01*
X144479Y612297D01*
X144612Y612308D01*
X144722Y612335D01*
X144835Y612353D01*
X144962Y612394D01*
X145090Y612426D01*
X145195Y612471D01*
X145304Y612507D01*
X145422Y612569D01*
X145544Y612621D01*
X145640Y612682D01*
X145741Y612735D01*
X145815Y612794D01*
X145960Y612886D01*
X146202Y613102D01*
X146275Y613160D01*
X146998Y613883D01*
X148855Y614653D01*
X150865Y614653D01*
X152722Y613883D01*
X154143Y612462D01*
X154913Y610605D01*
X154913Y608595D01*
X154143Y606738D01*
X152722Y605317D01*
X150865Y604547D01*
X148855Y604547D01*
X146998Y605317D01*
X146275Y606040D01*
X146188Y606114D01*
X146107Y606195D01*
X146000Y606273D01*
X145899Y606359D01*
X145801Y606418D01*
X145709Y606485D01*
X145590Y606545D01*
X145476Y606614D01*
X145370Y606656D01*
X145268Y606708D01*
X145141Y606748D01*
X145018Y606797D01*
X144907Y606822D01*
X144798Y606856D01*
X144704Y606866D01*
X144536Y606904D01*
X144212Y606922D01*
X144120Y606932D01*
X109880Y606932D01*
X109766Y606923D01*
X109652Y606924D01*
X109521Y606903D01*
X109388Y606892D01*
X109278Y606865D01*
X109165Y606847D01*
X109038Y606806D01*
X108910Y606774D01*
X108805Y606729D01*
X108696Y606693D01*
X108578Y606631D01*
X108456Y606579D01*
X108360Y606518D01*
X108259Y606465D01*
X108185Y606406D01*
X108040Y606314D01*
X107798Y606098D01*
X107725Y606040D01*
X107002Y605317D01*
X105145Y604547D01*
X103135Y604547D01*
G37*
%LPD*%
%LPC*%
G36*
X103135Y635027D02*
X103135Y635027D01*
X101278Y635797D01*
X99857Y637218D01*
X99087Y639075D01*
X99087Y641085D01*
X99857Y642942D01*
X101278Y644363D01*
X103135Y645133D01*
X105145Y645133D01*
X107002Y644363D01*
X107725Y643640D01*
X107812Y643566D01*
X107893Y643485D01*
X108000Y643407D01*
X108101Y643321D01*
X108199Y643262D01*
X108291Y643195D01*
X108410Y643135D01*
X108524Y643066D01*
X108630Y643024D01*
X108732Y642972D01*
X108859Y642932D01*
X108982Y642883D01*
X109093Y642858D01*
X109202Y642824D01*
X109296Y642814D01*
X109464Y642776D01*
X109788Y642758D01*
X109880Y642748D01*
X144120Y642748D01*
X144234Y642757D01*
X144348Y642756D01*
X144479Y642777D01*
X144612Y642788D01*
X144722Y642815D01*
X144835Y642833D01*
X144962Y642874D01*
X145090Y642906D01*
X145195Y642951D01*
X145304Y642987D01*
X145422Y643048D01*
X145544Y643101D01*
X145640Y643162D01*
X145741Y643215D01*
X145815Y643274D01*
X145960Y643366D01*
X146202Y643582D01*
X146275Y643640D01*
X146998Y644363D01*
X148855Y645133D01*
X150865Y645133D01*
X152722Y644363D01*
X154143Y642942D01*
X154913Y641085D01*
X154913Y639075D01*
X154143Y637218D01*
X152722Y635797D01*
X150865Y635027D01*
X148855Y635027D01*
X146998Y635797D01*
X146275Y636520D01*
X146188Y636594D01*
X146107Y636675D01*
X146000Y636753D01*
X145899Y636839D01*
X145801Y636898D01*
X145709Y636965D01*
X145590Y637025D01*
X145476Y637094D01*
X145370Y637136D01*
X145268Y637188D01*
X145142Y637228D01*
X145018Y637277D01*
X144907Y637302D01*
X144798Y637336D01*
X144704Y637346D01*
X144536Y637384D01*
X144212Y637402D01*
X144120Y637412D01*
X109880Y637412D01*
X109766Y637403D01*
X109652Y637404D01*
X109521Y637383D01*
X109388Y637372D01*
X109278Y637345D01*
X109165Y637327D01*
X109038Y637286D01*
X108910Y637254D01*
X108805Y637209D01*
X108696Y637173D01*
X108578Y637111D01*
X108456Y637059D01*
X108360Y636998D01*
X108259Y636945D01*
X108185Y636886D01*
X108040Y636794D01*
X107798Y636578D01*
X107725Y636520D01*
X107002Y635797D01*
X105145Y635027D01*
X103135Y635027D01*
G37*
%LPD*%
%LPC*%
G36*
X62778Y601725D02*
X62778Y601725D01*
X58165Y606338D01*
X58165Y612862D01*
X62778Y617475D01*
X69302Y617475D01*
X73915Y612862D01*
X73915Y606338D01*
X69302Y601725D01*
X62778Y601725D01*
G37*
%LPD*%
%LPC*%
G36*
X265978Y81025D02*
X265978Y81025D01*
X261365Y85638D01*
X261365Y92162D01*
X265978Y96775D01*
X272502Y96775D01*
X277115Y92162D01*
X277115Y85638D01*
X272502Y81025D01*
X265978Y81025D01*
G37*
%LPD*%
%LPC*%
G36*
X62778Y632205D02*
X62778Y632205D01*
X58165Y636818D01*
X58165Y643342D01*
X62778Y647955D01*
X69302Y647955D01*
X73915Y643342D01*
X73915Y636818D01*
X69302Y632205D01*
X62778Y632205D01*
G37*
%LPD*%
%LPC*%
G36*
X37378Y716025D02*
X37378Y716025D01*
X32765Y720638D01*
X32765Y727162D01*
X37378Y731775D01*
X43902Y731775D01*
X48515Y727162D01*
X48515Y720638D01*
X43902Y716025D01*
X37378Y716025D01*
G37*
%LPD*%
%LPC*%
G36*
X46694Y825245D02*
X46694Y825245D01*
X43799Y826444D01*
X41584Y828659D01*
X40385Y831554D01*
X40385Y834686D01*
X41584Y837581D01*
X43799Y839796D01*
X46694Y840995D01*
X49826Y840995D01*
X52721Y839796D01*
X54936Y837581D01*
X56135Y834686D01*
X56135Y831554D01*
X54936Y828659D01*
X52721Y826444D01*
X49826Y825245D01*
X46694Y825245D01*
G37*
%LPD*%
%LPC*%
G36*
X21294Y825245D02*
X21294Y825245D01*
X18399Y826444D01*
X16184Y828659D01*
X14985Y831554D01*
X14985Y834686D01*
X16184Y837581D01*
X18399Y839796D01*
X21294Y840995D01*
X24426Y840995D01*
X27321Y839796D01*
X29536Y837581D01*
X30735Y834686D01*
X30735Y831554D01*
X29536Y828659D01*
X27321Y826444D01*
X24426Y825245D01*
X21294Y825245D01*
G37*
%LPD*%
%LPC*%
G36*
X132587Y790447D02*
X132587Y790447D01*
X132587Y801587D01*
X132855Y801500D01*
X134067Y800883D01*
X135167Y800084D01*
X136128Y799123D01*
X136927Y798023D01*
X137544Y796811D01*
X137964Y795519D01*
X138177Y794176D01*
X138177Y790447D01*
X132587Y790447D01*
G37*
%LPD*%
%LPC*%
G36*
X30987Y574547D02*
X30987Y574547D01*
X30987Y585687D01*
X31255Y585600D01*
X32467Y584983D01*
X33567Y584184D01*
X34528Y583223D01*
X35327Y582123D01*
X35944Y580911D01*
X36364Y579619D01*
X36577Y578276D01*
X36577Y574547D01*
X30987Y574547D01*
G37*
%LPD*%
%LPC*%
G36*
X30987Y384047D02*
X30987Y384047D01*
X30987Y395187D01*
X31255Y395100D01*
X32467Y394483D01*
X33567Y393684D01*
X34528Y392723D01*
X35327Y391623D01*
X35944Y390411D01*
X36364Y389119D01*
X36577Y387776D01*
X36577Y384047D01*
X30987Y384047D01*
G37*
%LPD*%
%LPC*%
G36*
X183387Y790447D02*
X183387Y790447D01*
X183387Y801587D01*
X183655Y801500D01*
X184867Y800883D01*
X185967Y800084D01*
X186928Y799123D01*
X187727Y798023D01*
X188344Y796811D01*
X188764Y795519D01*
X188977Y794176D01*
X188977Y790447D01*
X183387Y790447D01*
G37*
%LPD*%
%LPC*%
G36*
X208787Y231647D02*
X208787Y231647D01*
X208787Y242787D01*
X209055Y242700D01*
X210267Y242083D01*
X211367Y241284D01*
X212328Y240323D01*
X213127Y239223D01*
X213744Y238011D01*
X214164Y236719D01*
X214377Y235376D01*
X214377Y231647D01*
X208787Y231647D01*
G37*
%LPD*%
%LPC*%
G36*
X259587Y714247D02*
X259587Y714247D01*
X259587Y725387D01*
X259855Y725300D01*
X261067Y724683D01*
X262167Y723884D01*
X263128Y722923D01*
X263927Y721823D01*
X264544Y720611D01*
X264964Y719319D01*
X265177Y717976D01*
X265177Y714247D01*
X259587Y714247D01*
G37*
%LPD*%
%LPC*%
G36*
X81787Y485647D02*
X81787Y485647D01*
X81787Y496787D01*
X82055Y496700D01*
X83267Y496083D01*
X84367Y495284D01*
X85328Y494323D01*
X86127Y493223D01*
X86744Y492011D01*
X87164Y490719D01*
X87377Y489376D01*
X87377Y485647D01*
X81787Y485647D01*
G37*
%LPD*%
%LPC*%
G36*
X183387Y714247D02*
X183387Y714247D01*
X183387Y725387D01*
X183655Y725300D01*
X184867Y724683D01*
X185967Y723884D01*
X186928Y722923D01*
X187727Y721823D01*
X188344Y720611D01*
X188764Y719319D01*
X188977Y717976D01*
X188977Y714247D01*
X183387Y714247D01*
G37*
%LPD*%
%LPC*%
G36*
X81787Y295147D02*
X81787Y295147D01*
X81787Y306287D01*
X82055Y306200D01*
X83267Y305583D01*
X84367Y304784D01*
X85328Y303823D01*
X86127Y302723D01*
X86744Y301511D01*
X87164Y300219D01*
X87377Y298876D01*
X87377Y295147D01*
X81787Y295147D01*
G37*
%LPD*%
%LPC*%
G36*
X81787Y104647D02*
X81787Y104647D01*
X81787Y115787D01*
X82055Y115700D01*
X83267Y115083D01*
X84367Y114284D01*
X85328Y113323D01*
X86127Y112223D01*
X86744Y111011D01*
X87164Y109719D01*
X87377Y108376D01*
X87377Y104647D01*
X81787Y104647D01*
G37*
%LPD*%
%LPC*%
G36*
X81787Y676147D02*
X81787Y676147D01*
X81787Y687287D01*
X82055Y687200D01*
X83267Y686583D01*
X84367Y685784D01*
X85328Y684823D01*
X86127Y683723D01*
X86744Y682511D01*
X87164Y681219D01*
X87377Y679876D01*
X87377Y676147D01*
X81787Y676147D01*
G37*
%LPD*%
%LPC*%
G36*
X81787Y289053D02*
X81787Y289053D01*
X87377Y289053D01*
X87377Y285324D01*
X87164Y283981D01*
X86744Y282689D01*
X86127Y281477D01*
X85328Y280377D01*
X84367Y279416D01*
X83267Y278617D01*
X82055Y278000D01*
X81787Y277913D01*
X81787Y289053D01*
G37*
%LPD*%
%LPC*%
G36*
X183387Y784353D02*
X183387Y784353D01*
X188977Y784353D01*
X188977Y780624D01*
X188764Y779281D01*
X188344Y777989D01*
X187727Y776777D01*
X186928Y775677D01*
X185967Y774716D01*
X184867Y773917D01*
X183655Y773300D01*
X183387Y773213D01*
X183387Y784353D01*
G37*
%LPD*%
%LPC*%
G36*
X30987Y377953D02*
X30987Y377953D01*
X36577Y377953D01*
X36577Y374224D01*
X36364Y372881D01*
X35944Y371589D01*
X35327Y370377D01*
X34528Y369277D01*
X33567Y368316D01*
X32467Y367517D01*
X31255Y366900D01*
X30987Y366813D01*
X30987Y377953D01*
G37*
%LPD*%
%LPC*%
G36*
X183387Y708153D02*
X183387Y708153D01*
X188977Y708153D01*
X188977Y704424D01*
X188764Y703081D01*
X188344Y701789D01*
X187727Y700577D01*
X186928Y699477D01*
X185967Y698516D01*
X184867Y697717D01*
X183655Y697100D01*
X183387Y697013D01*
X183387Y708153D01*
G37*
%LPD*%
%LPC*%
G36*
X208787Y225553D02*
X208787Y225553D01*
X214377Y225553D01*
X214377Y221824D01*
X214164Y220481D01*
X213744Y219189D01*
X213127Y217977D01*
X212328Y216877D01*
X211367Y215916D01*
X210267Y215117D01*
X209055Y214500D01*
X208787Y214413D01*
X208787Y225553D01*
G37*
%LPD*%
%LPC*%
G36*
X81787Y98553D02*
X81787Y98553D01*
X87377Y98553D01*
X87377Y94824D01*
X87164Y93481D01*
X86744Y92189D01*
X86127Y90977D01*
X85328Y89877D01*
X84367Y88916D01*
X83267Y88117D01*
X82055Y87500D01*
X81787Y87413D01*
X81787Y98553D01*
G37*
%LPD*%
%LPC*%
G36*
X30987Y568453D02*
X30987Y568453D01*
X36577Y568453D01*
X36577Y564724D01*
X36364Y563381D01*
X35944Y562089D01*
X35327Y560877D01*
X34528Y559777D01*
X33567Y558816D01*
X32467Y558017D01*
X31255Y557400D01*
X30987Y557313D01*
X30987Y568453D01*
G37*
%LPD*%
%LPC*%
G36*
X81787Y479553D02*
X81787Y479553D01*
X87377Y479553D01*
X87377Y475824D01*
X87164Y474481D01*
X86744Y473189D01*
X86127Y471977D01*
X85328Y470877D01*
X84367Y469916D01*
X83267Y469117D01*
X82055Y468500D01*
X81787Y468413D01*
X81787Y479553D01*
G37*
%LPD*%
%LPC*%
G36*
X81787Y670053D02*
X81787Y670053D01*
X87377Y670053D01*
X87377Y666324D01*
X87164Y664981D01*
X86744Y663689D01*
X86127Y662477D01*
X85328Y661377D01*
X84367Y660416D01*
X83267Y659617D01*
X82055Y659000D01*
X81787Y658913D01*
X81787Y670053D01*
G37*
%LPD*%
%LPC*%
G36*
X70103Y676147D02*
X70103Y676147D01*
X70103Y679876D01*
X70316Y681219D01*
X70736Y682511D01*
X71353Y683723D01*
X72152Y684823D01*
X73113Y685784D01*
X74213Y686583D01*
X75425Y687200D01*
X75693Y687287D01*
X75693Y676147D01*
X70103Y676147D01*
G37*
%LPD*%
%LPC*%
G36*
X120903Y790447D02*
X120903Y790447D01*
X120903Y794176D01*
X121116Y795519D01*
X121536Y796811D01*
X122153Y798023D01*
X122952Y799123D01*
X123913Y800084D01*
X125013Y800883D01*
X126225Y801500D01*
X126493Y801587D01*
X126493Y790447D01*
X120903Y790447D01*
G37*
%LPD*%
%LPC*%
G36*
X197103Y231647D02*
X197103Y231647D01*
X197103Y235376D01*
X197316Y236719D01*
X197736Y238011D01*
X198353Y239223D01*
X199152Y240323D01*
X200113Y241284D01*
X201213Y242083D01*
X202425Y242700D01*
X202693Y242787D01*
X202693Y231647D01*
X197103Y231647D01*
G37*
%LPD*%
%LPC*%
G36*
X19303Y384047D02*
X19303Y384047D01*
X19303Y387776D01*
X19516Y389119D01*
X19936Y390411D01*
X20553Y391623D01*
X21352Y392723D01*
X22313Y393684D01*
X23413Y394483D01*
X24625Y395100D01*
X24893Y395187D01*
X24893Y384047D01*
X19303Y384047D01*
G37*
%LPD*%
%LPC*%
G36*
X171703Y790447D02*
X171703Y790447D01*
X171703Y794176D01*
X171916Y795519D01*
X172336Y796811D01*
X172953Y798023D01*
X173752Y799123D01*
X174713Y800084D01*
X175813Y800883D01*
X177025Y801500D01*
X177293Y801587D01*
X177293Y790447D01*
X171703Y790447D01*
G37*
%LPD*%
%LPC*%
G36*
X70103Y485647D02*
X70103Y485647D01*
X70103Y489376D01*
X70316Y490719D01*
X70736Y492011D01*
X71353Y493223D01*
X72152Y494323D01*
X73113Y495284D01*
X74213Y496083D01*
X75425Y496700D01*
X75693Y496787D01*
X75693Y485647D01*
X70103Y485647D01*
G37*
%LPD*%
%LPC*%
G36*
X70103Y104647D02*
X70103Y104647D01*
X70103Y108376D01*
X70316Y109719D01*
X70736Y111011D01*
X71353Y112223D01*
X72152Y113323D01*
X73113Y114284D01*
X74213Y115083D01*
X75425Y115700D01*
X75693Y115787D01*
X75693Y104647D01*
X70103Y104647D01*
G37*
%LPD*%
%LPC*%
G36*
X70103Y295147D02*
X70103Y295147D01*
X70103Y298876D01*
X70316Y300219D01*
X70736Y301511D01*
X71353Y302723D01*
X72152Y303823D01*
X73113Y304784D01*
X74213Y305583D01*
X75425Y306200D01*
X75693Y306287D01*
X75693Y295147D01*
X70103Y295147D01*
G37*
%LPD*%
%LPC*%
G36*
X19303Y574547D02*
X19303Y574547D01*
X19303Y578276D01*
X19516Y579619D01*
X19936Y580911D01*
X20553Y582123D01*
X21352Y583223D01*
X22313Y584184D01*
X23413Y584983D01*
X24625Y585600D01*
X24893Y585687D01*
X24893Y574547D01*
X19303Y574547D01*
G37*
%LPD*%
%LPC*%
G36*
X171703Y714247D02*
X171703Y714247D01*
X171703Y717976D01*
X171916Y719319D01*
X172336Y720611D01*
X172953Y721823D01*
X173752Y722923D01*
X174713Y723884D01*
X175813Y724683D01*
X177025Y725300D01*
X177293Y725387D01*
X177293Y714247D01*
X171703Y714247D01*
G37*
%LPD*%
%LPC*%
G36*
X75425Y468500D02*
X75425Y468500D01*
X74213Y469117D01*
X73113Y469916D01*
X72152Y470877D01*
X71353Y471977D01*
X70736Y473189D01*
X70316Y474481D01*
X70103Y475824D01*
X70103Y479553D01*
X75693Y479553D01*
X75693Y468413D01*
X75425Y468500D01*
G37*
%LPD*%
%LPC*%
G36*
X24625Y366900D02*
X24625Y366900D01*
X23413Y367517D01*
X22313Y368316D01*
X21352Y369277D01*
X20553Y370377D01*
X19936Y371589D01*
X19516Y372881D01*
X19303Y374224D01*
X19303Y377953D01*
X24893Y377953D01*
X24893Y366813D01*
X24625Y366900D01*
G37*
%LPD*%
%LPC*%
G36*
X177025Y697100D02*
X177025Y697100D01*
X175813Y697717D01*
X174713Y698516D01*
X173752Y699477D01*
X172953Y700577D01*
X172336Y701789D01*
X171916Y703081D01*
X171703Y704424D01*
X171703Y708153D01*
X177293Y708153D01*
X177293Y697013D01*
X177025Y697100D01*
G37*
%LPD*%
%LPC*%
G36*
X24625Y557400D02*
X24625Y557400D01*
X23413Y558017D01*
X22313Y558816D01*
X21352Y559777D01*
X20553Y560877D01*
X19936Y562089D01*
X19516Y563381D01*
X19303Y564724D01*
X19303Y568453D01*
X24893Y568453D01*
X24893Y557313D01*
X24625Y557400D01*
G37*
%LPD*%
%LPC*%
G36*
X75425Y659000D02*
X75425Y659000D01*
X74213Y659617D01*
X73113Y660416D01*
X72152Y661377D01*
X71353Y662477D01*
X70736Y663689D01*
X70316Y664981D01*
X70103Y666324D01*
X70103Y670053D01*
X75693Y670053D01*
X75693Y658913D01*
X75425Y659000D01*
G37*
%LPD*%
%LPC*%
G36*
X75425Y87500D02*
X75425Y87500D01*
X74213Y88117D01*
X73113Y88916D01*
X72152Y89877D01*
X71353Y90977D01*
X70736Y92189D01*
X70316Y93481D01*
X70103Y94824D01*
X70103Y98553D01*
X75693Y98553D01*
X75693Y87413D01*
X75425Y87500D01*
G37*
%LPD*%
%LPC*%
G36*
X202425Y214500D02*
X202425Y214500D01*
X201213Y215117D01*
X200113Y215916D01*
X199152Y216877D01*
X198353Y217977D01*
X197736Y219189D01*
X197316Y220481D01*
X197103Y221824D01*
X197103Y225553D01*
X202693Y225553D01*
X202693Y214413D01*
X202425Y214500D01*
G37*
%LPD*%
%LPC*%
G36*
X177025Y773300D02*
X177025Y773300D01*
X175813Y773917D01*
X174713Y774716D01*
X173752Y775677D01*
X172953Y776777D01*
X172336Y777989D01*
X171916Y779281D01*
X171703Y780624D01*
X171703Y784353D01*
X177293Y784353D01*
X177293Y773213D01*
X177025Y773300D01*
G37*
%LPD*%
%LPC*%
G36*
X75425Y278000D02*
X75425Y278000D01*
X74213Y278617D01*
X73113Y279416D01*
X72152Y280377D01*
X71353Y281477D01*
X70736Y282689D01*
X70316Y283981D01*
X70103Y285324D01*
X70103Y289053D01*
X75693Y289053D01*
X75693Y277913D01*
X75425Y278000D01*
G37*
%LPD*%
%LPC*%
G36*
X36067Y688847D02*
X36067Y688847D01*
X36067Y697363D01*
X37603Y696864D01*
X39277Y696011D01*
X40798Y694906D01*
X42126Y693578D01*
X43231Y692057D01*
X44084Y690383D01*
X44583Y688847D01*
X36067Y688847D01*
G37*
%LPD*%
%LPC*%
G36*
X130047Y942847D02*
X130047Y942847D01*
X130047Y951363D01*
X131583Y950864D01*
X133257Y950011D01*
X134778Y948906D01*
X136106Y947578D01*
X137211Y946057D01*
X138064Y944383D01*
X138563Y942847D01*
X130047Y942847D01*
G37*
%LPD*%
%LPC*%
G36*
X130047Y936753D02*
X130047Y936753D01*
X138563Y936753D01*
X138064Y935217D01*
X137211Y933543D01*
X136106Y932022D01*
X134778Y930694D01*
X133257Y929589D01*
X131583Y928736D01*
X130047Y928237D01*
X130047Y936753D01*
G37*
%LPD*%
%LPC*%
G36*
X21457Y688847D02*
X21457Y688847D01*
X21956Y690383D01*
X22809Y692057D01*
X23914Y693578D01*
X25242Y694906D01*
X26763Y696011D01*
X28437Y696864D01*
X29973Y697363D01*
X29973Y688847D01*
X21457Y688847D01*
G37*
%LPD*%
%LPC*%
G36*
X115437Y942847D02*
X115437Y942847D01*
X115936Y944383D01*
X116789Y946057D01*
X117894Y947578D01*
X119222Y948906D01*
X120743Y950011D01*
X122417Y950864D01*
X123953Y951363D01*
X123953Y942847D01*
X115437Y942847D01*
G37*
%LPD*%
%LPC*%
G36*
X122417Y928736D02*
X122417Y928736D01*
X120743Y929589D01*
X119222Y930694D01*
X117894Y932022D01*
X116789Y933543D01*
X115936Y935217D01*
X115437Y936753D01*
X123953Y936753D01*
X123953Y928237D01*
X122417Y928736D01*
G37*
%LPD*%
%LPC*%
G36*
X272287Y41147D02*
X272287Y41147D01*
X272287Y46737D01*
X272817Y46737D01*
X277877Y41677D01*
X277877Y41147D01*
X272287Y41147D01*
G37*
%LPD*%
%LPC*%
G36*
X43687Y777747D02*
X43687Y777747D01*
X43687Y783337D01*
X44217Y783337D01*
X49277Y778277D01*
X49277Y777747D01*
X43687Y777747D01*
G37*
%LPD*%
%LPC*%
G36*
X32003Y777747D02*
X32003Y777747D01*
X32003Y778277D01*
X37063Y783337D01*
X37593Y783337D01*
X37593Y777747D01*
X32003Y777747D01*
G37*
%LPD*%
%LPC*%
G36*
X272287Y29463D02*
X272287Y29463D01*
X272287Y35053D01*
X277877Y35053D01*
X277877Y34523D01*
X272817Y29463D01*
X272287Y29463D01*
G37*
%LPD*%
%LPC*%
G36*
X43687Y766063D02*
X43687Y766063D01*
X43687Y771653D01*
X49277Y771653D01*
X49277Y771123D01*
X44217Y766063D01*
X43687Y766063D01*
G37*
%LPD*%
%LPC*%
G36*
X260603Y41147D02*
X260603Y41147D01*
X260603Y41677D01*
X265663Y46737D01*
X266193Y46737D01*
X266193Y41147D01*
X260603Y41147D01*
G37*
%LPD*%
%LPC*%
G36*
X37063Y766063D02*
X37063Y766063D01*
X32003Y771123D01*
X32003Y771653D01*
X37593Y771653D01*
X37593Y766063D01*
X37063Y766063D01*
G37*
%LPD*%
%LPC*%
G36*
X265663Y29463D02*
X265663Y29463D01*
X260603Y34523D01*
X260603Y35053D01*
X266193Y35053D01*
X266193Y29463D01*
X265663Y29463D01*
G37*
%LPD*%
D10*
X408940Y679196D02*
X408940Y667004D01*
X383540Y667004D02*
X383540Y679196D01*
X358140Y679196D02*
X358140Y667004D01*
X332740Y667004D02*
X332740Y679196D01*
X307340Y679196D02*
X307340Y667004D01*
X281940Y667004D02*
X281940Y679196D01*
X256540Y679196D02*
X256540Y667004D01*
X231140Y667004D02*
X231140Y679196D01*
X205740Y679196D02*
X205740Y667004D01*
X180340Y667004D02*
X180340Y679196D01*
X154940Y679196D02*
X154940Y667004D01*
X129540Y667004D02*
X129540Y679196D01*
X104140Y679196D02*
X104140Y667004D01*
X78740Y667004D02*
X78740Y679196D01*
X78740Y526796D02*
X78740Y514604D01*
X104140Y514604D02*
X104140Y526796D01*
X129540Y526796D02*
X129540Y514604D01*
X154940Y514604D02*
X154940Y526796D01*
X180340Y526796D02*
X180340Y514604D01*
X205740Y514604D02*
X205740Y526796D01*
X231140Y526796D02*
X231140Y514604D01*
X256540Y514604D02*
X256540Y526796D01*
X281940Y526796D02*
X281940Y514604D01*
X307340Y514604D02*
X307340Y526796D01*
X332740Y526796D02*
X332740Y514604D01*
X358140Y514604D02*
X358140Y526796D01*
X383540Y526796D02*
X383540Y514604D01*
X408940Y514604D02*
X408940Y526796D01*
X408940Y565404D02*
X408940Y577596D01*
X383540Y577596D02*
X383540Y565404D01*
X256540Y565404D02*
X256540Y577596D01*
X231140Y577596D02*
X231140Y565404D01*
X358140Y565404D02*
X358140Y577596D01*
X332740Y577596D02*
X332740Y565404D01*
X281940Y565404D02*
X281940Y577596D01*
X307340Y577596D02*
X307340Y565404D01*
X205740Y565404D02*
X205740Y577596D01*
X180340Y577596D02*
X180340Y565404D01*
X154940Y565404D02*
X154940Y577596D01*
X129540Y577596D02*
X129540Y565404D01*
X104140Y565404D02*
X104140Y577596D01*
X78740Y577596D02*
X78740Y565404D01*
X53340Y565404D02*
X53340Y577596D01*
X27940Y577596D02*
X27940Y565404D01*
X27940Y425196D02*
X27940Y413004D01*
X53340Y413004D02*
X53340Y425196D01*
X78740Y425196D02*
X78740Y413004D01*
X104140Y413004D02*
X104140Y425196D01*
X129540Y425196D02*
X129540Y413004D01*
X154940Y413004D02*
X154940Y425196D01*
X180340Y425196D02*
X180340Y413004D01*
X205740Y413004D02*
X205740Y425196D01*
X231140Y425196D02*
X231140Y413004D01*
X256540Y413004D02*
X256540Y425196D01*
X281940Y425196D02*
X281940Y413004D01*
X307340Y413004D02*
X307340Y425196D01*
X332740Y425196D02*
X332740Y413004D01*
X358140Y413004D02*
X358140Y425196D01*
X383540Y425196D02*
X383540Y413004D01*
X408940Y413004D02*
X408940Y425196D01*
X408940Y298196D02*
X408940Y286004D01*
X383540Y286004D02*
X383540Y298196D01*
X358140Y298196D02*
X358140Y286004D01*
X332740Y286004D02*
X332740Y298196D01*
X307340Y298196D02*
X307340Y286004D01*
X281940Y286004D02*
X281940Y298196D01*
X256540Y298196D02*
X256540Y286004D01*
X231140Y286004D02*
X231140Y298196D01*
X205740Y298196D02*
X205740Y286004D01*
X180340Y286004D02*
X180340Y298196D01*
X154940Y298196D02*
X154940Y286004D01*
X129540Y286004D02*
X129540Y298196D01*
X104140Y298196D02*
X104140Y286004D01*
X78740Y286004D02*
X78740Y298196D01*
X78740Y145796D02*
X78740Y133604D01*
X104140Y133604D02*
X104140Y145796D01*
X129540Y145796D02*
X129540Y133604D01*
X154940Y133604D02*
X154940Y145796D01*
X180340Y145796D02*
X180340Y133604D01*
X205740Y133604D02*
X205740Y145796D01*
X231140Y145796D02*
X231140Y133604D01*
X256540Y133604D02*
X256540Y145796D01*
X281940Y145796D02*
X281940Y133604D01*
X307340Y133604D02*
X307340Y145796D01*
X332740Y145796D02*
X332740Y133604D01*
X358140Y133604D02*
X358140Y145796D01*
X383540Y145796D02*
X383540Y133604D01*
X408940Y133604D02*
X408940Y145796D01*
X408940Y374904D02*
X408940Y387096D01*
X383540Y387096D02*
X383540Y374904D01*
X256540Y374904D02*
X256540Y387096D01*
X231140Y387096D02*
X231140Y374904D01*
X358140Y374904D02*
X358140Y387096D01*
X332740Y387096D02*
X332740Y374904D01*
X281940Y374904D02*
X281940Y387096D01*
X307340Y387096D02*
X307340Y374904D01*
X205740Y374904D02*
X205740Y387096D01*
X180340Y387096D02*
X180340Y374904D01*
X154940Y374904D02*
X154940Y387096D01*
X129540Y387096D02*
X129540Y374904D01*
X104140Y374904D02*
X104140Y387096D01*
X78740Y387096D02*
X78740Y374904D01*
X53340Y374904D02*
X53340Y387096D01*
X27940Y387096D02*
X27940Y374904D01*
X27940Y234696D02*
X27940Y222504D01*
X53340Y222504D02*
X53340Y234696D01*
X78740Y234696D02*
X78740Y222504D01*
X104140Y222504D02*
X104140Y234696D01*
X129540Y234696D02*
X129540Y222504D01*
X154940Y222504D02*
X154940Y234696D01*
X180340Y234696D02*
X180340Y222504D01*
X205740Y222504D02*
X205740Y234696D01*
X231140Y234696D02*
X231140Y222504D01*
X256540Y222504D02*
X256540Y234696D01*
X281940Y234696D02*
X281940Y222504D01*
X307340Y222504D02*
X307340Y234696D01*
X332740Y234696D02*
X332740Y222504D01*
X358140Y222504D02*
X358140Y234696D01*
X383540Y234696D02*
X383540Y222504D01*
X408940Y222504D02*
X408940Y234696D01*
D11*
X33020Y660400D03*
X33020Y685800D03*
X33020Y609600D03*
X33020Y635000D03*
D10*
X231140Y107696D02*
X231140Y95504D01*
X205740Y95504D02*
X205740Y107696D01*
X78740Y107696D02*
X78740Y95504D01*
X78740Y31496D02*
X78740Y19304D01*
X180340Y95504D02*
X180340Y107696D01*
X154940Y107696D02*
X154940Y95504D01*
X104140Y95504D02*
X104140Y107696D01*
X129540Y107696D02*
X129540Y95504D01*
X104140Y31496D02*
X104140Y19304D01*
X129540Y19304D02*
X129540Y31496D01*
X154940Y31496D02*
X154940Y19304D01*
X180340Y19304D02*
X180340Y31496D01*
X205740Y31496D02*
X205740Y19304D01*
X231140Y19304D02*
X231140Y31496D01*
X408940Y476504D02*
X408940Y488696D01*
X383540Y488696D02*
X383540Y476504D01*
X358140Y476504D02*
X358140Y488696D01*
X332740Y488696D02*
X332740Y476504D01*
X307340Y476504D02*
X307340Y488696D01*
X281940Y488696D02*
X281940Y476504D01*
X256540Y476504D02*
X256540Y488696D01*
X231140Y488696D02*
X231140Y476504D01*
X205740Y476504D02*
X205740Y488696D01*
X180340Y488696D02*
X180340Y476504D01*
X154940Y476504D02*
X154940Y488696D01*
X129540Y488696D02*
X129540Y476504D01*
X104140Y476504D02*
X104140Y488696D01*
X78740Y488696D02*
X78740Y476504D01*
X78740Y336296D02*
X78740Y324104D01*
X104140Y324104D02*
X104140Y336296D01*
X129540Y336296D02*
X129540Y324104D01*
X154940Y324104D02*
X154940Y336296D01*
X180340Y336296D02*
X180340Y324104D01*
X205740Y324104D02*
X205740Y336296D01*
X231140Y336296D02*
X231140Y324104D01*
X256540Y324104D02*
X256540Y336296D01*
X281940Y336296D02*
X281940Y324104D01*
X307340Y324104D02*
X307340Y336296D01*
X332740Y336296D02*
X332740Y324104D01*
X358140Y324104D02*
X358140Y336296D01*
X383540Y336296D02*
X383540Y324104D01*
X408940Y324104D02*
X408940Y336296D01*
D12*
X340360Y838200D02*
X325120Y838200D01*
X325120Y812800D02*
X340360Y812800D01*
X340360Y787400D02*
X325120Y787400D01*
X325120Y762000D02*
X340360Y762000D01*
X340360Y736600D02*
X325120Y736600D01*
X325120Y711200D02*
X340360Y711200D01*
D10*
X78740Y705104D02*
X78740Y717296D01*
X104140Y717296D02*
X104140Y705104D01*
X231140Y705104D02*
X231140Y717296D01*
X256540Y717296D02*
X256540Y705104D01*
X129540Y705104D02*
X129540Y717296D01*
X154940Y717296D02*
X154940Y705104D01*
X205740Y705104D02*
X205740Y717296D01*
X180340Y717296D02*
X180340Y705104D01*
X256540Y781304D02*
X256540Y793496D01*
X231140Y793496D02*
X231140Y781304D01*
X205740Y781304D02*
X205740Y793496D01*
X180340Y793496D02*
X180340Y781304D01*
X154940Y781304D02*
X154940Y793496D01*
X129540Y793496D02*
X129540Y781304D01*
X104140Y781304D02*
X104140Y793496D01*
X78740Y793496D02*
X78740Y781304D01*
D13*
X22860Y833120D03*
X48260Y833120D03*
D14*
X193040Y640080D03*
X66040Y640080D03*
X193040Y609600D03*
X66040Y609600D03*
D15*
X269240Y38100D03*
X269240Y88900D03*
D16*
X40640Y774700D03*
X40640Y723900D03*
D11*
X127000Y939800D03*
X330200Y939800D03*
D17*
X370840Y393700D02*
X383540Y381000D01*
X370840Y558800D02*
X383540Y571500D01*
X370840Y558800D02*
X370840Y393700D01*
X358140Y381000D02*
X345440Y393700D01*
X345440Y558800D02*
X358140Y571500D01*
X345440Y558800D02*
X345440Y393700D01*
X332740Y381000D02*
X320040Y393700D01*
X320040Y558800D02*
X332740Y571500D01*
X320040Y558800D02*
X320040Y393700D01*
X307340Y381000D02*
X294640Y393700D01*
X294640Y558800D02*
X307340Y571500D01*
X294640Y558800D02*
X294640Y393700D01*
X281940Y381000D02*
X269240Y393700D01*
X269240Y558800D02*
X281940Y571500D01*
X269240Y558800D02*
X269240Y393700D01*
X256540Y400611D02*
X256540Y381000D01*
X256540Y551889D02*
X256540Y571500D01*
X247777Y409374D02*
X256540Y400611D01*
X247777Y543126D02*
X256540Y551889D01*
X247777Y543126D02*
X247777Y409374D01*
X239903Y409374D02*
X239903Y428826D01*
X234770Y433959D01*
X231140Y400611D02*
X231140Y381000D01*
X231521Y433959D02*
X234770Y433959D01*
X239903Y409374D02*
X231140Y400611D01*
X231521Y433959D02*
X218440Y447040D01*
X218440Y558800D01*
X231140Y571500D01*
X205740Y390553D02*
X205740Y381000D01*
X195580Y457909D02*
X195580Y561340D01*
X205740Y571500D01*
X221615Y406428D02*
X205740Y390553D01*
X221615Y406428D02*
X221615Y431874D01*
X195580Y457909D01*
X218059Y407901D02*
X210843Y400685D01*
X218059Y407901D02*
X218059Y430299D01*
X200025Y400685D02*
X180340Y381000D01*
X200025Y400685D02*
X210843Y400685D01*
X218059Y430299D02*
X189103Y459255D01*
X180340Y569669D02*
X180340Y571500D01*
X180340Y569669D02*
X189103Y560906D01*
X189103Y459255D01*
X214503Y409374D02*
X209370Y404241D01*
X214503Y409374D02*
X214503Y428826D01*
X178181Y404241D02*
X154940Y381000D01*
X178181Y404241D02*
X209370Y404241D01*
X171577Y554863D02*
X154940Y571500D01*
X171577Y554863D02*
X171577Y471752D01*
X214503Y428826D01*
D18*
X78740Y673100D02*
X45720Y673100D01*
X33020Y685800D01*
X33020Y635000D02*
X40640Y635000D01*
X78740Y673100D01*
X47244Y623112D02*
X47244Y601168D01*
X27940Y581864D02*
X27940Y571500D01*
X33020Y635000D02*
X35356Y635000D01*
X47244Y623112D01*
X47244Y601168D02*
X27940Y581864D01*
X78740Y673100D02*
X99060Y693420D01*
X162560Y693420D02*
X180340Y711200D01*
X162560Y693420D02*
X99060Y693420D01*
X180340Y711200D02*
X180340Y716280D01*
X195580Y731520D01*
X198120Y731520D01*
X236220Y731520D01*
X256540Y711200D01*
X159464Y804418D02*
X150416Y804418D01*
X133398Y787400D02*
X129540Y787400D01*
X176482Y787400D02*
X180340Y787400D01*
X150416Y804418D02*
X133398Y787400D01*
X159464Y804418D02*
X176482Y787400D01*
X180340Y787400D02*
X180340Y749300D01*
X198120Y731520D01*
X17018Y429720D02*
X17018Y408480D01*
X27940Y397558D02*
X27940Y381000D01*
X27940Y440642D02*
X27940Y571500D01*
X17018Y408480D02*
X27940Y397558D01*
X17018Y429720D02*
X27940Y440642D01*
X32464Y436118D01*
X201882Y419100D02*
X205740Y419100D01*
X201882Y419100D02*
X184864Y436118D01*
X32464Y436118D01*
X27940Y342900D02*
X78740Y292100D01*
X27940Y342900D02*
X27940Y381000D01*
X205740Y254000D02*
X205740Y228600D01*
X205740Y254000D02*
X195580Y264160D01*
X83820Y264160D01*
X67818Y124000D02*
X78740Y113078D01*
X67818Y124000D02*
X67818Y248158D01*
X83820Y264160D01*
X78740Y113078D02*
X78740Y101600D01*
X78740Y76200D01*
X91440Y63500D01*
X259080Y38100D02*
X269240Y38100D01*
X233680Y63500D02*
X91440Y63500D01*
X233680Y63500D02*
X259080Y38100D01*
X129540Y787400D02*
X109220Y807720D01*
X60960Y807720D01*
X40640Y787400D01*
X40640Y774700D01*
X78740Y292100D02*
X78740Y269240D01*
X83820Y264160D01*
X127000Y825500D02*
X127000Y939800D01*
X127000Y825500D02*
X109220Y807720D01*
D19*
X104140Y640080D03*
D17*
X149860Y640080D01*
D19*
X149860Y640080D03*
X228600Y652780D03*
X251460Y690880D03*
D17*
X229309Y652780D02*
X228600Y652780D01*
X229309Y652780D02*
X247777Y671248D01*
X247777Y687197D01*
X251460Y690880D01*
D19*
X297180Y762000D03*
D17*
X332740Y762000D01*
D19*
X104140Y609600D03*
D17*
X149860Y609600D01*
D19*
X149860Y609600D03*
X218440Y642620D03*
D17*
X218440Y679732D01*
X242288Y703580D01*
D19*
X242288Y703580D03*
X299720Y787400D03*
D17*
X332740Y787400D01*
X393700Y396240D02*
X408940Y381000D01*
X393700Y396240D02*
X393700Y556260D01*
X408940Y571500D01*
D18*
X408940Y609600D02*
X193040Y609600D01*
X408940Y609600D02*
X426720Y591820D01*
X426720Y538480D01*
X408940Y520700D01*
X424180Y505460D01*
X424180Y434340D02*
X408940Y419100D01*
X424180Y434340D02*
X424180Y505460D01*
X154940Y784860D02*
X154940Y787400D01*
X154940Y784860D02*
X137160Y767080D01*
X88900Y767080D02*
X78740Y777240D01*
X78740Y787400D01*
X193040Y688340D02*
X193040Y640080D01*
X193040Y688340D02*
X195580Y690880D01*
D19*
X195580Y690880D03*
D18*
X124460Y767080D02*
X88900Y767080D01*
D19*
X124460Y767080D03*
D18*
X137160Y767080D01*
D19*
X121920Y751840D03*
D17*
X152400Y751840D01*
D19*
X152400Y751840D03*
X152400Y736600D03*
D17*
X121920Y736600D01*
D19*
X121920Y736600D03*
M02*
