G04 EAGLE Gerber RS-274X export*
G75*
%MOMM*%
%FSLAX34Y34*%
%LPD*%
%INTop Solder Mask*%
%IPPOS*%
%AMOC8*
5,1,8,0,0,1.08239X$1,22.5*%
G01*
%ADD10C,1.219200*%
%ADD11C,1.879600*%
%ADD12R,1.600200X1.168400*%
%ADD13C,1.524000*%
%ADD14C,1.219200*%
%ADD15P,1.319650X8X202.500000*%
%ADD16P,1.319650X8X112.500000*%
%ADD17P,1.319650X8X292.500000*%
%ADD18R,1.168400X1.600200*%
%ADD19R,0.152400X1.828800*%


D10*
X408940Y679196D02*
X408940Y667004D01*
X383540Y667004D02*
X383540Y679196D01*
X358140Y679196D02*
X358140Y667004D01*
X332740Y667004D02*
X332740Y679196D01*
X307340Y679196D02*
X307340Y667004D01*
X281940Y667004D02*
X281940Y679196D01*
X256540Y679196D02*
X256540Y667004D01*
X231140Y667004D02*
X231140Y679196D01*
X205740Y679196D02*
X205740Y667004D01*
X180340Y667004D02*
X180340Y679196D01*
X154940Y679196D02*
X154940Y667004D01*
X129540Y667004D02*
X129540Y679196D01*
X104140Y679196D02*
X104140Y667004D01*
X78740Y667004D02*
X78740Y679196D01*
X78740Y526796D02*
X78740Y514604D01*
X104140Y514604D02*
X104140Y526796D01*
X129540Y526796D02*
X129540Y514604D01*
X154940Y514604D02*
X154940Y526796D01*
X180340Y526796D02*
X180340Y514604D01*
X205740Y514604D02*
X205740Y526796D01*
X231140Y526796D02*
X231140Y514604D01*
X256540Y514604D02*
X256540Y526796D01*
X281940Y526796D02*
X281940Y514604D01*
X307340Y514604D02*
X307340Y526796D01*
X332740Y526796D02*
X332740Y514604D01*
X358140Y514604D02*
X358140Y526796D01*
X383540Y526796D02*
X383540Y514604D01*
X408940Y514604D02*
X408940Y526796D01*
X408940Y565404D02*
X408940Y577596D01*
X383540Y577596D02*
X383540Y565404D01*
X256540Y565404D02*
X256540Y577596D01*
X231140Y577596D02*
X231140Y565404D01*
X358140Y565404D02*
X358140Y577596D01*
X332740Y577596D02*
X332740Y565404D01*
X281940Y565404D02*
X281940Y577596D01*
X307340Y577596D02*
X307340Y565404D01*
X205740Y565404D02*
X205740Y577596D01*
X180340Y577596D02*
X180340Y565404D01*
X154940Y565404D02*
X154940Y577596D01*
X129540Y577596D02*
X129540Y565404D01*
X104140Y565404D02*
X104140Y577596D01*
X78740Y577596D02*
X78740Y565404D01*
X53340Y565404D02*
X53340Y577596D01*
X27940Y577596D02*
X27940Y565404D01*
X27940Y425196D02*
X27940Y413004D01*
X53340Y413004D02*
X53340Y425196D01*
X78740Y425196D02*
X78740Y413004D01*
X104140Y413004D02*
X104140Y425196D01*
X129540Y425196D02*
X129540Y413004D01*
X154940Y413004D02*
X154940Y425196D01*
X180340Y425196D02*
X180340Y413004D01*
X205740Y413004D02*
X205740Y425196D01*
X231140Y425196D02*
X231140Y413004D01*
X256540Y413004D02*
X256540Y425196D01*
X281940Y425196D02*
X281940Y413004D01*
X307340Y413004D02*
X307340Y425196D01*
X332740Y425196D02*
X332740Y413004D01*
X358140Y413004D02*
X358140Y425196D01*
X383540Y425196D02*
X383540Y413004D01*
X408940Y413004D02*
X408940Y425196D01*
X408940Y298196D02*
X408940Y286004D01*
X383540Y286004D02*
X383540Y298196D01*
X358140Y298196D02*
X358140Y286004D01*
X332740Y286004D02*
X332740Y298196D01*
X307340Y298196D02*
X307340Y286004D01*
X281940Y286004D02*
X281940Y298196D01*
X256540Y298196D02*
X256540Y286004D01*
X231140Y286004D02*
X231140Y298196D01*
X205740Y298196D02*
X205740Y286004D01*
X180340Y286004D02*
X180340Y298196D01*
X154940Y298196D02*
X154940Y286004D01*
X129540Y286004D02*
X129540Y298196D01*
X104140Y298196D02*
X104140Y286004D01*
X78740Y286004D02*
X78740Y298196D01*
X78740Y145796D02*
X78740Y133604D01*
X104140Y133604D02*
X104140Y145796D01*
X129540Y145796D02*
X129540Y133604D01*
X154940Y133604D02*
X154940Y145796D01*
X180340Y145796D02*
X180340Y133604D01*
X205740Y133604D02*
X205740Y145796D01*
X231140Y145796D02*
X231140Y133604D01*
X256540Y133604D02*
X256540Y145796D01*
X281940Y145796D02*
X281940Y133604D01*
X307340Y133604D02*
X307340Y145796D01*
X332740Y145796D02*
X332740Y133604D01*
X358140Y133604D02*
X358140Y145796D01*
X383540Y145796D02*
X383540Y133604D01*
X408940Y133604D02*
X408940Y145796D01*
X408940Y374904D02*
X408940Y387096D01*
X383540Y387096D02*
X383540Y374904D01*
X256540Y374904D02*
X256540Y387096D01*
X231140Y387096D02*
X231140Y374904D01*
X358140Y374904D02*
X358140Y387096D01*
X332740Y387096D02*
X332740Y374904D01*
X281940Y374904D02*
X281940Y387096D01*
X307340Y387096D02*
X307340Y374904D01*
X205740Y374904D02*
X205740Y387096D01*
X180340Y387096D02*
X180340Y374904D01*
X154940Y374904D02*
X154940Y387096D01*
X129540Y387096D02*
X129540Y374904D01*
X104140Y374904D02*
X104140Y387096D01*
X78740Y387096D02*
X78740Y374904D01*
X53340Y374904D02*
X53340Y387096D01*
X27940Y387096D02*
X27940Y374904D01*
X27940Y234696D02*
X27940Y222504D01*
X53340Y222504D02*
X53340Y234696D01*
X78740Y234696D02*
X78740Y222504D01*
X104140Y222504D02*
X104140Y234696D01*
X129540Y234696D02*
X129540Y222504D01*
X154940Y222504D02*
X154940Y234696D01*
X180340Y234696D02*
X180340Y222504D01*
X205740Y222504D02*
X205740Y234696D01*
X231140Y234696D02*
X231140Y222504D01*
X256540Y222504D02*
X256540Y234696D01*
X281940Y234696D02*
X281940Y222504D01*
X307340Y222504D02*
X307340Y234696D01*
X332740Y234696D02*
X332740Y222504D01*
X358140Y222504D02*
X358140Y234696D01*
X383540Y234696D02*
X383540Y222504D01*
X408940Y222504D02*
X408940Y234696D01*
D11*
X33020Y660400D03*
X33020Y685800D03*
X33020Y609600D03*
X33020Y635000D03*
D10*
X231140Y107696D02*
X231140Y95504D01*
X205740Y95504D02*
X205740Y107696D01*
X78740Y107696D02*
X78740Y95504D01*
X78740Y31496D02*
X78740Y19304D01*
X180340Y95504D02*
X180340Y107696D01*
X154940Y107696D02*
X154940Y95504D01*
X104140Y95504D02*
X104140Y107696D01*
X129540Y107696D02*
X129540Y95504D01*
X104140Y31496D02*
X104140Y19304D01*
X129540Y19304D02*
X129540Y31496D01*
X154940Y31496D02*
X154940Y19304D01*
X180340Y19304D02*
X180340Y31496D01*
X205740Y31496D02*
X205740Y19304D01*
X231140Y19304D02*
X231140Y31496D01*
X408940Y476504D02*
X408940Y488696D01*
X383540Y488696D02*
X383540Y476504D01*
X358140Y476504D02*
X358140Y488696D01*
X332740Y488696D02*
X332740Y476504D01*
X307340Y476504D02*
X307340Y488696D01*
X281940Y488696D02*
X281940Y476504D01*
X256540Y476504D02*
X256540Y488696D01*
X231140Y488696D02*
X231140Y476504D01*
X205740Y476504D02*
X205740Y488696D01*
X180340Y488696D02*
X180340Y476504D01*
X154940Y476504D02*
X154940Y488696D01*
X129540Y488696D02*
X129540Y476504D01*
X104140Y476504D02*
X104140Y488696D01*
X78740Y488696D02*
X78740Y476504D01*
X78740Y336296D02*
X78740Y324104D01*
X104140Y324104D02*
X104140Y336296D01*
X129540Y336296D02*
X129540Y324104D01*
X154940Y324104D02*
X154940Y336296D01*
X180340Y336296D02*
X180340Y324104D01*
X205740Y324104D02*
X205740Y336296D01*
X231140Y336296D02*
X231140Y324104D01*
X256540Y324104D02*
X256540Y336296D01*
X281940Y336296D02*
X281940Y324104D01*
X307340Y324104D02*
X307340Y336296D01*
X332740Y336296D02*
X332740Y324104D01*
X358140Y324104D02*
X358140Y336296D01*
X383540Y336296D02*
X383540Y324104D01*
X408940Y324104D02*
X408940Y336296D01*
D12*
X317500Y637540D03*
X317500Y622300D03*
X317500Y607060D03*
X351790Y637540D03*
X351790Y622300D03*
X351790Y607060D03*
X386080Y637540D03*
X386080Y622300D03*
X386080Y607060D03*
D13*
X340360Y838200D02*
X325120Y838200D01*
X325120Y812800D02*
X340360Y812800D01*
X340360Y787400D02*
X325120Y787400D01*
X325120Y762000D02*
X340360Y762000D01*
X340360Y736600D02*
X325120Y736600D01*
X325120Y711200D02*
X340360Y711200D01*
D10*
X78740Y705104D02*
X78740Y717296D01*
X104140Y717296D02*
X104140Y705104D01*
X231140Y705104D02*
X231140Y717296D01*
X256540Y717296D02*
X256540Y705104D01*
X129540Y705104D02*
X129540Y717296D01*
X154940Y717296D02*
X154940Y705104D01*
X205740Y705104D02*
X205740Y717296D01*
X180340Y717296D02*
X180340Y705104D01*
X256540Y781304D02*
X256540Y793496D01*
X231140Y793496D02*
X231140Y781304D01*
X205740Y781304D02*
X205740Y793496D01*
X180340Y793496D02*
X180340Y781304D01*
X154940Y781304D02*
X154940Y793496D01*
X129540Y793496D02*
X129540Y781304D01*
X104140Y781304D02*
X104140Y793496D01*
X78740Y793496D02*
X78740Y781304D01*
D14*
X22860Y833120D03*
X48260Y833120D03*
D15*
X193040Y640080D03*
X66040Y640080D03*
X193040Y609600D03*
X66040Y609600D03*
D16*
X269240Y38100D03*
X269240Y88900D03*
D17*
X40640Y774700D03*
X40640Y723900D03*
D18*
X231140Y749300D03*
X246380Y749300D03*
D19*
X238760Y749300D03*
D11*
X127000Y939800D03*
X330200Y939800D03*
M02*
